<?xml version="1.0" encoding="UTF-8"?>
<svg width="236px" height="49px" viewBox="0 0 236 49" version="1.1" xmlns="http://www.w3.org/2000/svg" xmlns:xlink="http://www.w3.org/1999/xlink">
    <!-- Generator: Sketch 43.1 (39012) - http://www.bohemiancoding.com/sketch -->
    <title>logo</title>
    <desc>Created with Sketch.</desc>
    <defs></defs>
    <g id="Page-1" stroke="none" stroke-width="1" fill="none" fill-rule="evenodd">
        <g id="main" transform="translate(-230.000000, -30.000000)" fill="#FFFFFF">
            <g id="Group-8" transform="translate(-35.000000, -137.000000)">
                <g id="первый-разговор" transform="translate(35.000000, 0.000000)">
                    <g id="header" transform="translate(230.000000, 167.000000)">
                        <g id="logo">
                            <path d="M28.2352729,16.9479418 C28.2352729,9.86877818 23.8453146,4.35271455 16.2203203,4.35271455 C8.54875294,4.35271455 4.20536774,9.86877818 4.20536774,16.9479418 C4.20536774,24.0271055 8.54875294,29.5431691 16.2203203,29.5431691 C23.8453146,29.5431691 28.2352729,24.0271055 28.2352729,16.9479418 M32.4407302,16.9479418 C32.2562292,26.55506 26.0633564,33.4502509 16.2203203,33.4502509 C6.3307112,33.4502509 0.184411385,26.55506 -8.95635676e-05,16.9479418 C0.184411385,7.34037818 6.3307112,0.445187273 16.2203203,0.445187273 C26.0633564,0.445187273 32.2562292,7.34037818 32.4407302,16.9479418" id="Fill-1"></path>
                            <path d="M60.1667894,11.1098591 C60.1667894,8.12175 58.5031461,4.85835 51.6174991,4.85835 L43.623055,4.85835 L43.623055,17.3613682 L51.6174991,17.3613682 C58.5031461,17.3613682 60.1667894,14.0979682 60.1667894,11.1098591 M64.3722467,11.1098591 C64.3722467,15.9822409 61.3687324,21.3147773 52.0335218,21.3147773 L43.623055,21.3147773 L43.623055,31.1521955 C43.623055,32.3014682 42.6530816,33.2208864 41.4977116,33.2208864 C40.3418937,33.2208864 39.4175977,32.3014682 39.4175977,31.1521955 L39.4175977,3.01951364 C39.4175977,1.87024091 40.3418937,0.904940909 41.4977116,0.904940909 L52.0335218,0.904940909 C61.3687324,0.904940909 64.3722467,6.23747727 64.3722467,11.1098591" id="Fill-4"></path>
                            <path d="M92.9305306,31.0948209 C92.9305306,32.1999936 92.054151,32.9906755 90.9471454,32.9906755 L72.4495818,32.9906755 C71.2955552,32.9906755 70.3327469,32.1042209 70.3327469,30.9527209 L70.3327469,2.99643909 C70.3327469,1.84493909 71.2955552,0.90503 72.4495818,0.90503 L90.9471454,0.90503 C92.054151,0.90503 92.9305306,1.74159364 92.9305306,2.84721182 C92.9305306,3.95238455 92.054151,4.74306636 90.9471454,4.74306636 L74.6380676,4.74306636 L74.6380676,15.0286118 L74.6380676,18.8670936 L74.6380676,29.1530845 L90.9471454,29.1530845 C92.054151,29.1530845 92.9305306,29.9896482 92.9305306,31.0948209" id="Fill-6"></path>
                            <path d="M115.016145,19.1591336 L123.845321,29.9569518 C124.122969,30.27857 124.261344,30.6923973 124.261344,31.1521064 C124.261344,32.2550518 123.475872,33.2207973 122.181678,33.2207973 C121.488456,33.2207973 120.887932,32.8528518 120.518035,32.3468155 L112.547325,22.3806609" id="Fill-8"></path>
                            <path d="M112.730707,11.4998545 L120.656635,1.41075455 C120.980407,0.951045455 121.534805,0.675309091 122.181454,0.675309091 C123.290699,0.675309091 124.215443,1.5484 124.215443,2.65179091 C124.215443,3.06561818 124.076172,3.47944545 123.845098,3.80106364 L115.072346,14.5677" id="Fill-10"></path>
                            <path d="M110.628515,19.9817545 L100.878178,32.3930091 C100.462155,32.8990455 99.9534338,33.2206636 99.2606596,33.2206636 C98.1979879,33.2206636 97.3198171,32.3471273 97.3198171,31.2900636 C97.3198171,30.8303545 97.4581928,30.3706455 97.735392,30.0027 L108.410474,16.9477636 L97.8280903,3.98503636 C97.5508911,3.61709091 97.4120676,3.20326364 97.4120676,2.69767273 C97.4120676,1.5484 98.2897905,0.675309091 99.4451605,0.675309091 C100.138383,0.675309091 100.785479,0.996927273 101.155377,1.50296364 L110.905715,13.8220091 L113.170329,16.9018818 L110.628515,19.9817545 Z" id="Fill-12"></path>
                            <path d="M166.405884,3.70916636 L166.405884,31.1518391 C166.405884,32.3015573 165.481588,33.22053 164.326218,33.22053 C163.170848,33.22053 162.200427,32.3015573 162.200427,31.1518391 L162.200427,5.04241182 L151.525345,31.28993 C151.01752,32.4392027 149.908275,33.22053 148.568404,33.22053 C147.228085,33.22053 146.118392,32.4392027 145.610119,31.28993 L134.935485,5.04241182 L134.935485,31.1518391 C134.935485,32.3015573 133.965512,33.22053 132.810142,33.22053 C131.654324,33.22053 130.730028,32.3015573 130.730028,31.1518391 L130.730028,3.70916636 C130.730028,2.05430273 132.070347,0.675175455 133.73399,0.675175455 L135.25881,0.675175455 C136.506878,0.675175455 137.616123,1.50283 138.077823,2.60577545 L148.568404,28.6238845 L159.058089,2.60577545 C159.520237,1.50283 160.629482,0.675175455 161.877102,0.675175455 L163.401922,0.675175455 C165.066013,0.675175455 166.405884,2.05430273 166.405884,3.70916636" id="Fill-14"></path>
                            <path d="M193.253951,20.9472773 L187.015401,6.00717727 L180.777299,20.9472773 L193.253951,20.9472773 Z M201.941617,31.1521955 C201.941617,32.3014682 201.156145,33.2208864 199.862399,33.2208864 C198.984676,33.2208864 198.244881,32.7611773 197.875431,31.9335227 L194.871469,24.7625955 L179.158885,24.7625955 L176.155371,31.9335227 C175.785921,32.7611773 175.046574,33.2208864 174.168403,33.2208864 C172.874657,33.2208864 172.088737,32.3014682 172.088737,31.1521955 C172.088737,30.8764591 172.181435,30.5543955 172.320259,30.2327773 L184.104137,2.55980455 C184.52016,1.59450455 185.397883,0.675086364 186.784775,0.675086364 L187.246475,0.675086364 C188.632919,0.675086364 189.51109,1.59450455 189.926665,2.55980455 L201.710991,30.2327773 C201.849367,30.5543955 201.941617,30.8764591 201.941617,31.1521955 L201.941617,31.1521955 Z" id="Fill-16"></path>
                            <path d="M235.722308,2.78974818 L235.722308,30.2324209 C235.722308,31.88773 234.335416,33.22053 232.671773,33.22053 L232.117375,33.22053 C231.100828,33.22053 230.222657,32.7149391 229.668259,31.9794936 L211.784206,6.28344818 L211.784206,31.1518391 C211.784206,32.3011118 210.813784,33.22053 209.658862,33.22053 C208.503044,33.22053 207.578748,32.3011118 207.578748,31.1518391 L207.578748,3.70916636 C207.578748,2.05430273 208.919067,0.675175455 210.58271,0.675175455 L211.183234,0.675175455 C212.200228,0.675175455 213.078399,1.22664818 213.725048,2.05430273 L231.516403,27.6127027 L231.516403,2.78974818 C231.516403,1.64047545 232.441147,0.675175455 233.596069,0.675175455 C234.751439,0.675175455 235.722308,1.64047545 235.722308,2.78974818" id="Fill-18"></path>
                            <path d="M103.485283,15.3383809 L78.9587484,15.3383809 C77.8521905,15.3383809 76.9753632,16.0355173 76.9753632,17.1433627 C76.9753632,18.2503173 77.8521905,18.9020173 78.9587484,18.9020173 L103.485283,18.9020173 C104.592737,18.9020173 105.469117,18.2503173 105.469117,17.1433627 C105.469117,16.0355173 104.592737,15.3383809 103.485283,15.3383809" id="Fill-20"></path>
                            <path d="M8.05418292,42.4154245 C8.05418292,40.7690245 7.03315825,39.4861155 5.2593518,39.4861155 C3.47524554,39.4861155 2.4649685,40.7690245 2.4649685,42.4154245 C2.4649685,44.06227 3.47524554,45.3451791 5.2593518,45.3451791 C7.03315825,45.3451791 8.05418292,44.06227 8.05418292,42.4154245 M9.03221708,42.4154245 C8.98922657,44.65027 7.5490444,46.2539064 5.2593518,46.2539064 C2.95935939,46.2539064 1.52992486,44.65027 1.48693435,42.4154245 C1.52992486,40.1810245 2.95935939,38.5769427 5.2593518,38.5769427 C7.5490444,38.5769427 8.98922657,40.1810245 9.03221708,42.4154245" id="Fill-22"></path>
                            <path d="M13.4920349,42.2979582 L13.4920349,44.5434945 C13.9111924,45.0027582 14.4915643,45.3448673 15.1901602,45.3448673 C16.2111848,45.3448673 16.953219,44.6824764 16.953219,43.4205036 C16.953219,42.1589764 16.2111848,41.49614 15.1901602,41.49614 C14.4915643,41.49614 13.9111924,41.8382491 13.4920349,42.2979582 M13.4920349,45.4415309 L13.4920349,48.1677127 C13.4920349,48.4456764 13.2770824,48.6594945 12.997644,48.6594945 C12.7285055,48.6594945 12.5135529,48.4456764 12.5135529,48.1677127 L12.5135529,41.1219582 C12.5135529,40.8546855 12.7285055,40.6408673 12.997644,40.6408673 C13.2770824,40.6408673 13.4920349,40.8546855 13.4920349,41.1219582 L13.4920349,41.3999218 C13.9864258,40.8867582 14.5775454,40.5874127 15.3298793,40.5874127 C16.6303423,40.5874127 17.9312531,41.6030491 17.9312531,43.4205036 C17.9312531,45.2384036 16.6303423,46.25404 15.3298793,46.25404 C14.5775454,46.25404 13.9864258,45.9542491 13.4920349,45.4415309" id="Fill-24"></path>
                            <path d="M22.1116774,42.9715745 L25.2826755,42.9715745 C25.2181898,41.8592745 24.3794269,41.4107018 23.6915787,41.4107018 C23.0037306,41.4107018 22.1761632,41.8592745 22.1116774,42.9715745 M26.0672524,45.38772 C26.0672524,45.5587745 25.9382808,45.6977564 25.7873662,45.7832836 C25.3149184,46.0510018 24.8420228,46.2541291 23.9065313,46.2541291 C22.1546679,46.2541291 21.1228956,45.2166655 21.1228956,43.4205927 C21.1228956,41.97732 21.9074725,40.5870564 23.6915787,40.5870564 C25.3471613,40.5870564 26.249962,41.8592745 26.249962,43.2816109 C26.249962,43.5488836 26.0565047,43.7627018 25.7555712,43.7627018 L22.1116774,43.7627018 C22.2191537,44.7248836 22.8317685,45.3449564 23.9925123,45.3449564 C24.6378178,45.3449564 25.0462277,45.2166655 25.4434421,45.0135382 C25.5079279,44.9814655 25.5621139,44.9707745 25.6373472,44.9707745 C25.8630474,44.9707745 26.0672524,45.1418291 26.0672524,45.38772" id="Fill-26"></path>
                            <path d="M32.9130884,41.0684145 C32.9130884,41.3463782 32.6981359,41.5281236 32.4186975,41.5281236 L32.3649594,41.5281236 C31.6551681,41.5281236 31.075244,41.9129964 30.699077,42.4689236 L30.699077,45.7194055 C30.699077,45.9866782 30.472929,46.2004964 30.2042383,46.2004964 C29.9355476,46.2004964 29.7205951,45.9866782 29.7205951,45.7194055 L29.7205951,41.13256 C29.7205951,40.8652873 29.9355476,40.6407782 30.2042383,40.6407782 C30.472929,40.6407782 30.699077,40.8652873 30.699077,41.13256 L30.699077,41.5922691 C31.0855438,41.0791055 31.6444205,40.5873236 32.3864546,40.5873236 L32.4401928,40.5873236 C32.7088835,40.5873236 32.9130884,40.8011418 32.9130884,41.0684145" id="Fill-28"></path>
                            <path d="M39.3618444,44.5965927 L39.3618444,43.6985564 L38.1903529,43.6985564 C37.1796281,43.6985564 36.5670133,43.9337564 36.5670133,44.5431382 C36.5670133,45.0028473 36.835704,45.3984109 37.7067097,45.3984109 C38.3730626,45.3984109 38.996425,45.0135382 39.3618444,44.5965927 M40.3398786,42.6936109 L40.3398786,45.7195836 C40.3398786,45.9868564 40.1141784,46.2006745 39.8454877,46.2006745 C39.576797,46.2006745 39.3618444,45.9868564 39.3618444,45.7195836 L39.3618444,45.4411745 C38.9749298,45.8367382 38.3515674,46.2541291 37.3408425,46.2541291 C36.4057989,46.2541291 35.5889791,45.6549927 35.5889791,44.6500473 C35.5889791,43.6451018 36.3847514,42.91812 38.0613814,42.91812 L39.3618444,42.91812 L39.3618444,42.8325927 C39.3618444,41.8811018 38.8889488,41.5064745 37.9216622,41.5064745 C37.3193472,41.5064745 36.8894421,41.6352109 36.4917799,41.7635018 C36.4487894,41.7741927 36.3950512,41.7848836 36.3520607,41.7848836 C36.1371082,41.7848836 35.9543985,41.6138291 35.9543985,41.3781836 C35.9543985,41.1968836 36.0511271,41.0467655 36.2338368,40.9719291 C36.7394231,40.7581109 37.3300949,40.5875018 38.0931765,40.5875018 C39.662778,40.5875018 40.3398786,41.6454564 40.3398786,42.6936109" id="Fill-30"></path>
                            <path d="M47.15383,45.6871545 C47.15383,45.8689 47.0571013,45.9865 46.9066345,46.0613364 C46.6486915,46.1789364 46.3585055,46.2537727 46.0145814,46.2537727 C45.5094429,46.2537727 44.4454277,46.1682455 44.4454277,44.8425727 L44.4454277,41.5279455 L43.6818983,41.5279455 C43.5636744,41.5279455 43.4776934,41.4424182 43.4776934,41.3252636 C43.4776934,41.2606727 43.5099362,41.1965273 43.574422,41.1430727 L45.0360994,39.7211818 C45.0687901,39.6891091 45.1332759,39.6249636 45.2192569,39.6249636 C45.337033,39.6249636 45.4234619,39.7211818 45.4234619,39.8387818 L45.4234619,40.6940545 L46.6379438,40.6940545 C46.8743917,40.6940545 47.0571013,40.8758 47.0571013,41.111 C47.0571013,41.3462 46.8743917,41.5279455 46.6379438,41.5279455 L45.4234619,41.5279455 L45.4234619,44.7570455 C45.4234619,45.3878091 45.853367,45.3985 46.1220577,45.3985 C46.4659818,45.3985 46.5842057,45.3022818 46.7669154,45.3022818 C46.9603727,45.3022818 47.15383,45.4626455 47.15383,45.6871545" id="Fill-32"></path>
                            <path d="M51.3879924,41.13256 L51.3879924,45.7194055 C51.3879924,45.9866782 51.1730398,46.2004964 50.8936015,46.2004964 C50.6249108,46.2004964 50.4099583,45.9866782 50.4099583,45.7194055 L50.4099583,41.13256 C50.4099583,40.8545964 50.6249108,40.6407782 50.8936015,40.6407782 C51.1730398,40.6407782 51.3879924,40.8545964 51.3879924,41.13256 L51.3879924,41.13256 Z M51.4847211,39.0366964 C51.4847211,39.3360418 51.2375256,39.5823782 50.936592,39.5823782 L50.8721063,39.5823782 C50.5711727,39.5823782 50.3239772,39.3360418 50.3239772,39.0366964 L50.3239772,38.9939327 C50.3239772,38.6945873 50.5711727,38.4491418 50.8721063,38.4491418 L50.936592,38.4491418 C51.2375256,38.4491418 51.4847211,38.6945873 51.4847211,38.9939327 L51.4847211,39.0366964 Z" id="Fill-34"></path>
                            <path d="M60.1799104,42.6827418 L60.1799104,45.7194055 C60.1799104,45.9866782 59.9542102,46.2004964 59.6855195,46.2004964 C59.416381,46.2004964 59.2014285,45.9866782 59.2014285,45.7194055 L59.2014285,42.7896509 C59.2014285,41.9771418 58.8575044,41.48536 58.0191894,41.48536 C57.2453602,41.48536 56.6864835,41.9771418 56.2565784,42.5116873 L56.2565784,45.7194055 C56.2565784,45.9866782 56.0308782,46.2004964 55.7621875,46.2004964 C55.4934968,46.2004964 55.2785442,45.9866782 55.2785442,45.7194055 L55.2785442,41.13256 C55.2785442,40.8545964 55.4934968,40.6407782 55.7621875,40.6407782 C56.0308782,40.6407782 56.2565784,40.8545964 56.2565784,41.13256 L56.2565784,41.5708873 C56.7079787,41.0791055 57.2990983,40.5873236 58.256085,40.5873236 C59.4808668,40.5873236 60.1799104,41.5388145 60.1799104,42.6827418" id="Fill-36"></path>
                            <path d="M68.079014,42.2657964 C67.6813518,41.8595418 67.1869609,41.4746691 66.4453746,41.4746691 C65.4239021,41.4746691 64.61783,42.0840509 64.61783,43.36696 C64.61783,44.6503145 65.4239021,45.2596964 66.4453746,45.2596964 C67.1869609,45.2596964 67.6813518,44.8743782 68.079014,44.4681236 L68.079014,42.2657964 Z M69.0570482,41.13256 L69.0570482,45.9118418 C69.0570482,47.7079145 68.1434998,48.7133055 66.5313556,48.7133055 C65.6607977,48.7133055 64.7360539,48.4455873 64.2309154,48.1573782 C64.1234391,48.0927873 64.0374581,47.9858782 64.0374581,47.7827509 C64.0374581,47.5689327 64.2201677,47.3444236 64.467811,47.3444236 C64.5430444,47.3444236 64.6075302,47.3658055 64.6608205,47.3871873 C65.1122209,47.6116964 65.7033404,47.7934418 66.4346269,47.7934418 C67.530885,47.7934418 68.079014,47.2054418 68.079014,46.0508236 L68.079014,45.3345327 C67.6383613,45.8049327 67.0472417,46.1470418 66.2411696,46.1470418 C65.0477351,46.1470418 63.6397958,45.2596964 63.6397958,43.36696 C63.6397958,41.4746691 65.0477351,40.5873236 66.2411696,40.5873236 C67.0472417,40.5873236 67.6383613,40.9294327 68.079014,41.3998327 L68.079014,41.13256 C68.079014,40.8652873 68.2939666,40.6407782 68.5626573,40.6407782 C68.831348,40.6407782 69.0570482,40.8652873 69.0570482,41.13256 L69.0570482,41.13256 Z" id="Fill-38"></path>
                            <path d="M83.2978345,45.6978455 C83.2978345,45.9544273 83.0936296,46.1468636 82.8356865,46.1468636 L78.5254398,46.1468636 C78.2567491,46.1468636 78.0417966,45.9330455 78.0417966,45.6657727 L78.0417966,39.1759455 C78.0417966,38.9086727 78.2567491,38.6841636 78.5254398,38.6841636 L82.8356865,38.6841636 C83.0936296,38.6841636 83.2978345,38.8872909 83.2978345,39.1438727 C83.2978345,39.4004545 83.0936296,39.5928909 82.8356865,39.5928909 L79.0198307,39.5928909 L79.0198307,41.9560273 L82.4487719,41.9560273 C82.706715,41.9560273 82.9109199,42.1591545 82.9109199,42.4152909 C82.9109199,42.6723182 82.706715,42.8647545 82.4487719,42.8647545 L79.0198307,42.8647545 L79.0198307,45.2381364 L82.8356865,45.2381364 C83.0936296,45.2381364 83.2978345,45.4412636 83.2978345,45.6978455" id="Fill-41"></path>
                            <path d="M91.1646057,45.3985445 C91.2505867,45.4947627 91.2828296,45.6230536 91.2828296,45.7085809 C91.2828296,45.9544718 91.1216152,46.2003627 90.7884387,46.2003627 C90.6379719,46.2003627 90.4982528,46.1255264 90.4122717,46.0079264 L88.8861085,44.1904718 L87.4454786,45.9865445 C87.3487499,46.1148355 87.1982831,46.2003627 87.0263211,46.2003627 C86.7468827,46.2003627 86.5641731,46.0079264 86.5641731,45.7085809 C86.5641731,45.6016718 86.5964159,45.5054536 86.6716493,45.4092355 L88.3379795,43.4527991 L86.6716493,41.4317718 C86.5964159,41.3355536 86.5534254,41.2393355 86.5534254,41.1217355 C86.5534254,40.82239 86.768378,40.6406445 87.0370687,40.6406445 C87.2090307,40.6406445 87.3487499,40.7154809 87.4239833,40.82239 L88.9286512,42.6719173 L90.4230194,40.82239 C90.5090004,40.70479 90.6487195,40.6406445 90.7991863,40.6406445 C91.0893723,40.6406445 91.2935772,40.8437718 91.2935772,41.1003536 C91.2935772,41.2072627 91.2505867,41.3141718 91.1861009,41.3996991 L89.4879757,43.3886536 L91.1646057,45.3985445 Z" id="Fill-43"></path>
                            <path d="M95.8074467,42.2979582 L95.8074467,44.5434945 C96.2266042,45.0027582 96.8069761,45.3448673 97.5055719,45.3448673 C98.5265966,45.3448673 99.2686307,44.6824764 99.2686307,43.4205036 C99.2686307,42.1589764 98.5265966,41.49614 97.5055719,41.49614 C96.8069761,41.49614 96.2266042,41.8382491 95.8074467,42.2979582 M95.8074467,45.4415309 L95.8074467,48.1677127 C95.8074467,48.4456764 95.5924941,48.6594945 95.3130558,48.6594945 C95.0439173,48.6594945 94.8289647,48.4456764 94.8289647,48.1677127 L94.8289647,41.1219582 C94.8289647,40.8546855 95.0439173,40.6408673 95.3130558,40.6408673 C95.5924941,40.6408673 95.8074467,40.8546855 95.8074467,41.1219582 L95.8074467,41.3999218 C96.3018376,40.8867582 96.8929571,40.5874127 97.6452911,40.5874127 C98.9457541,40.5874127 100.246665,41.6030491 100.246665,43.4205036 C100.246665,45.2384036 98.9457541,46.25404 97.6452911,46.25404 C96.8929571,46.25404 96.3018376,45.9542491 95.8074467,45.4415309" id="Fill-45"></path>
                            <path d="M104.42682,42.9715745 L107.597819,42.9715745 C107.533333,41.8592745 106.69457,41.4107018 106.006722,41.4107018 C105.318874,41.4107018 104.491306,41.8592745 104.42682,42.9715745 M108.382395,45.38772 C108.382395,45.5587745 108.253424,45.6977564 108.102509,45.7832836 C107.630061,46.0510018 107.157166,46.2541291 106.221674,46.2541291 C104.469811,46.2541291 103.438039,45.2166655 103.438039,43.4205927 C103.438039,41.97732 104.222616,40.5870564 106.006722,40.5870564 C107.662304,40.5870564 108.565105,41.8592745 108.565105,43.2816109 C108.565105,43.5488836 108.371648,43.7627018 108.070714,43.7627018 L104.42682,43.7627018 C104.534297,44.7248836 105.146912,45.3449564 106.307655,45.3449564 C106.952961,45.3449564 107.361371,45.2166655 107.758585,45.0135382 C107.823071,44.9814655 107.877257,44.9707745 107.95249,44.9707745 C108.178191,44.9707745 108.382395,45.1418291 108.382395,45.38772" id="Fill-47"></path>
                            <path d="M116.937507,42.6827418 L116.937507,45.7194055 C116.937507,45.9866782 116.711807,46.2004964 116.443117,46.2004964 C116.174426,46.2004964 115.959025,45.9866782 115.959025,45.7194055 L115.959025,42.7896509 C115.959025,41.9771418 115.615101,41.48536 114.776786,41.48536 C114.002957,41.48536 113.44408,41.9771418 113.014175,42.5116873 L113.014175,45.7194055 C113.014175,45.9866782 112.788475,46.2004964 112.519784,46.2004964 C112.251094,46.2004964 112.036141,45.9866782 112.036141,45.7194055 L112.036141,41.13256 C112.036141,40.8545964 112.251094,40.6407782 112.519784,40.6407782 C112.788475,40.6407782 113.014175,40.8545964 113.014175,41.13256 L113.014175,41.5708873 C113.465576,41.0791055 114.056695,40.5873236 115.013682,40.5873236 C116.238464,40.5873236 116.937507,41.5388145 116.937507,42.6827418" id="Fill-49"></path>
                            <path d="M124.611,44.6714291 C124.611,45.5373927 123.912405,46.2541291 122.536708,46.2541291 C121.751683,46.2541291 121.128321,46.0723836 120.580192,45.7730382 C120.472716,45.6977564 120.397482,45.5699109 120.397482,45.4197927 C120.397482,45.2059745 120.569444,44.9921564 120.81664,44.9921564 C120.881126,44.9921564 120.934864,45.0028473 121.010097,45.03492 C121.397012,45.2059745 121.837665,45.3556473 122.472222,45.3556473 C123.29979,45.3556473 123.665209,45.0776836 123.665209,44.5965927 C123.665209,43.6771745 120.440473,44.2224109 120.440473,42.2766655 C120.440473,41.3140382 121.139069,40.5875018 122.536708,40.5875018 C123.12738,40.5875018 123.654461,40.6939655 124.095114,40.8547745 C124.299319,40.91892 124.406795,41.10022 124.406795,41.2610291 C124.406795,41.4855382 124.224086,41.6886655 123.97689,41.6886655 C123.923152,41.6886655 123.880162,41.6779745 123.837171,41.6672836 C123.492799,41.5603745 123.084837,41.4748473 122.611942,41.4748473 C121.816169,41.4748473 121.375517,41.7951291 121.375517,42.2232109 C121.375517,43.3350655 124.611,42.5760109 124.611,44.6714291" id="Fill-51"></path>
                            <path d="M128.705444,42.9715745 L131.876442,42.9715745 C131.811956,41.8592745 130.973193,41.4107018 130.285345,41.4107018 C129.597497,41.4107018 128.769929,41.8592745 128.705444,42.9715745 M132.661019,45.38772 C132.661019,45.5587745 132.532047,45.6977564 132.38158,45.7832836 C131.908237,46.0510018 131.435789,46.2541291 130.500745,46.2541291 C128.748434,46.2541291 127.716662,45.2166655 127.716662,43.4205927 C127.716662,41.97732 128.501239,40.5870564 130.285345,40.5870564 C131.940928,40.5870564 132.843728,41.8592745 132.843728,43.2816109 C132.843728,43.5488836 132.650271,43.7627018 132.349337,43.7627018 L128.705444,43.7627018 C128.81292,44.7248836 129.425535,45.3449564 130.586279,45.3449564 C131.231584,45.3449564 131.639994,45.2166655 132.037208,45.0135382 C132.102142,44.9814655 132.15588,44.9707745 132.231113,44.9707745 C132.456814,44.9707745 132.661019,45.1418291 132.661019,45.38772" id="Fill-53"></path>
                            <path d="M140.194748,44.6714291 C140.194748,45.5373927 139.496152,46.2541291 138.120455,46.2541291 C137.335879,46.2541291 136.712516,46.0723836 136.164387,45.7730382 C136.056911,45.6977564 135.981677,45.5699109 135.981677,45.4197927 C135.981677,45.2059745 136.153639,44.9921564 136.400387,44.9921564 C136.465321,44.9921564 136.519059,45.0028473 136.594292,45.03492 C136.981207,45.2059745 137.42186,45.3556473 138.05597,45.3556473 C138.883537,45.3556473 139.248956,45.0776836 139.248956,44.5965927 C139.248956,43.6771745 136.02422,44.2224109 136.02422,42.2766655 C136.02422,41.3140382 136.723264,40.5875018 138.120455,40.5875018 C138.711575,40.5875018 139.238209,40.6939655 139.679309,40.8547745 C139.883514,40.91892 139.990543,41.10022 139.990543,41.2610291 C139.990543,41.4855382 139.808281,41.6886655 139.560638,41.6886655 C139.506899,41.6886655 139.463909,41.6779745 139.420918,41.6672836 C139.076994,41.5603745 138.668584,41.4748473 138.195689,41.4748473 C137.400364,41.4748473 136.959264,41.7951291 136.959264,42.2232109 C136.959264,43.3350655 140.194748,42.5760109 140.194748,44.6714291" id="Fill-55"></path>
                            <path d="M157.05791,39.3361755 L157.05791,45.7195391 C157.05791,45.9868118 156.843406,46.20063 156.574267,46.20063 C156.305576,46.20063 156.079876,45.9868118 156.079876,45.7195391 L156.079876,39.6462118 L153.596726,45.7511664 C153.47895,46.0184391 153.221007,46.20063 152.908878,46.20063 C152.597197,46.20063 152.339702,46.0184391 152.22103,45.7511664 L149.738328,39.6462118 L149.738328,45.7195391 C149.738328,45.9868118 149.512628,46.20063 149.243937,46.20063 C148.975246,46.20063 148.760294,45.9868118 148.760294,45.7195391 L148.760294,39.3361755 C148.760294,38.9513027 149.071975,38.6305755 149.45889,38.6305755 L149.813561,38.6305755 C150.103747,38.6305755 150.36169,38.8230118 150.469167,39.0795936 L152.908878,45.1310936 L155.349038,39.0795936 C155.456514,38.8230118 155.714457,38.6305755 156.004643,38.6305755 L156.359315,38.6305755 C156.746677,38.6305755 157.05791,38.9513027 157.05791,39.3361755" id="Fill-57"></path>
                            <path d="M164.312201,44.5965927 L164.312201,43.6985564 L163.14071,43.6985564 C162.130433,43.6985564 161.517818,43.9337564 161.517818,44.5431382 C161.517818,45.0028473 161.786061,45.3984109 162.657066,45.3984109 C163.323419,45.3984109 163.946782,45.0135382 164.312201,44.5965927 M165.290683,42.6936109 L165.290683,45.7195836 C165.290683,45.9868564 165.064535,46.2006745 164.795844,46.2006745 C164.526706,46.2006745 164.312201,45.9868564 164.312201,45.7195836 L164.312201,45.4411745 C163.925287,45.8367382 163.301924,46.2541291 162.291199,46.2541291 C161.356156,46.2541291 160.539336,45.6549927 160.539336,44.6500473 C160.539336,43.6451018 161.335108,42.91812 163.011738,42.91812 L164.312201,42.91812 L164.312201,42.8325927 C164.312201,41.8811018 163.838858,41.5064745 162.871571,41.5064745 C162.269704,41.5064745 161.839799,41.6352109 161.442584,41.7635018 C161.399146,41.7741927 161.345408,41.7848836 161.302417,41.7848836 C161.087465,41.7848836 160.905203,41.6138291 160.905203,41.3781836 C160.905203,41.1968836 161.001484,41.0467655 161.184641,40.9719291 C161.68978,40.7581109 162.280899,40.5875018 163.043981,40.5875018 C164.613135,40.5875018 165.290683,41.6454564 165.290683,42.6936109" id="Fill-59"></path>
                            <path d="M173.995814,42.6827418 L173.995814,45.7194055 C173.995814,45.9866782 173.770114,46.2004964 173.501423,46.2004964 C173.232732,46.2004964 173.01778,45.9866782 173.01778,45.7194055 L173.01778,42.7896509 C173.01778,41.9771418 172.673856,41.48536 171.835541,41.48536 C171.061264,41.48536 170.502387,41.9771418 170.072482,42.5116873 L170.072482,45.7194055 C170.072482,45.9866782 169.846782,46.2004964 169.578539,46.2004964 C169.3094,46.2004964 169.094896,45.9866782 169.094896,45.7194055 L169.094896,41.13256 C169.094896,40.8545964 169.3094,40.6407782 169.578539,40.6407782 C169.846782,40.6407782 170.072482,40.8545964 170.072482,41.13256 L170.072482,41.5708873 C170.52433,41.0791055 171.115002,40.5873236 172.071989,40.5873236 C173.297218,40.5873236 173.995814,41.5388145 173.995814,42.6827418" id="Fill-61"></path>
                            <path d="M181.121088,44.5965927 L181.121088,43.6985564 L179.949597,43.6985564 C178.93932,43.6985564 178.326705,43.9337564 178.326705,44.5431382 C178.326705,45.0028473 178.594948,45.3984109 179.465954,45.3984109 C180.132307,45.3984109 180.755669,45.0135382 181.121088,44.5965927 M182.09957,42.6936109 L182.09957,45.7195836 C182.09957,45.9868564 181.873422,46.2006745 181.604732,46.2006745 C181.335593,46.2006745 181.121088,45.9868564 181.121088,45.7195836 L181.121088,45.4411745 C180.734174,45.8367382 180.110811,46.2541291 179.100087,46.2541291 C178.165043,46.2541291 177.348223,45.6549927 177.348223,44.6500473 C177.348223,43.6451018 178.143995,42.91812 179.820625,42.91812 L181.121088,42.91812 L181.121088,42.8325927 C181.121088,41.8811018 180.647745,41.5064745 179.680458,41.5064745 C179.078591,41.5064745 178.648686,41.6352109 178.251472,41.7635018 C178.208033,41.7741927 178.154295,41.7848836 178.111305,41.7848836 C177.896352,41.7848836 177.71409,41.6138291 177.71409,41.3781836 C177.71409,41.1968836 177.810371,41.0467655 177.993529,40.9719291 C178.498667,40.7581109 179.089787,40.5875018 179.852868,40.5875018 C181.422022,40.5875018 182.09957,41.6454564 182.09957,42.6936109" id="Fill-63"></path>
                            <path d="M190.010093,42.2657964 C189.611983,41.8595418 189.11804,41.4746691 188.376454,41.4746691 C187.354981,41.4746691 186.548909,42.0840509 186.548909,43.36696 C186.548909,44.6503145 187.354981,45.2596964 188.376454,45.2596964 C189.11804,45.2596964 189.611983,44.8743782 190.010093,44.4681236 L190.010093,42.2657964 Z M190.988128,41.13256 L190.988128,45.9118418 C190.988128,47.7079145 190.074579,48.7133055 188.461987,48.7133055 C187.591429,48.7133055 186.667133,48.4455873 186.161995,48.1573782 C186.054518,48.0927873 185.968537,47.9858782 185.968537,47.7827509 C185.968537,47.5689327 186.151247,47.3444236 186.398443,47.3444236 C186.473676,47.3444236 186.538162,47.3658055 186.5919,47.3871873 C187.0433,47.6116964 187.63442,47.7934418 188.365258,47.7934418 C189.461517,47.7934418 190.010093,47.2054418 190.010093,46.0508236 L190.010093,45.3345327 C189.569441,45.8049327 188.977873,46.1470418 188.172249,46.1470418 C186.978367,46.1470418 185.570875,45.2596964 185.570875,43.36696 C185.570875,41.4746691 186.978367,40.5873236 188.172249,40.5873236 C188.977873,40.5873236 189.569441,40.9294327 190.010093,41.3998327 L190.010093,41.13256 C190.010093,40.8652873 190.224598,40.6407782 190.493737,40.6407782 C190.762427,40.6407782 190.988128,40.8652873 190.988128,41.13256 L190.988128,41.13256 Z" id="Fill-65"></path>
                            <path d="M195.501997,42.9715745 L198.672547,42.9715745 C198.608509,41.8592745 197.769299,41.4107018 197.081898,41.4107018 C196.393602,41.4107018 195.566483,41.8592745 195.501997,42.9715745 M199.457124,45.38772 C199.457124,45.5587745 199.328153,45.6977564 199.177686,45.7832836 C198.70479,46.0510018 198.231894,46.2541291 197.296851,46.2541291 C195.544987,46.2541291 194.512767,45.2166655 194.512767,43.4205927 C194.512767,41.97732 195.297792,40.5870564 197.081898,40.5870564 C198.737481,40.5870564 199.639834,41.8592745 199.639834,43.2816109 C199.639834,43.5488836 199.446824,43.7627018 199.145443,43.7627018 L195.501997,43.7627018 C195.609025,44.7248836 196.22164,45.3449564 197.382832,45.3449564 C198.02769,45.3449564 198.436099,45.2166655 198.833762,45.0135382 C198.898247,44.9814655 198.951986,44.9707745 199.027219,44.9707745 C199.252919,44.9707745 199.457124,45.1418291 199.457124,45.38772" id="Fill-68"></path>
                            <path d="M211.333522,42.6401118 L211.333522,45.7195391 C211.333522,45.9868118 211.107822,46.20063 210.839131,46.20063 C210.57044,46.20063 210.35504,45.9868118 210.35504,45.7195391 L210.35504,42.8325482 C210.35504,41.9345118 210.075602,41.4854936 209.258782,41.4854936 C208.441962,41.4854936 208.001757,42.03073 207.711123,42.5118209 L207.711123,45.7195391 C207.711123,45.9868118 207.485423,46.20063 207.21718,46.20063 C206.948042,46.20063 206.733089,45.9868118 206.733089,45.7195391 L206.733089,42.8325482 C206.733089,41.9345118 206.453651,41.4854936 205.636831,41.4854936 C204.820011,41.4854936 204.379359,42.03073 204.088725,42.5118209 L204.088725,45.7195391 C204.088725,45.9868118 203.863025,46.20063 203.594782,46.20063 C203.325643,46.20063 203.111139,45.9868118 203.111139,45.7195391 L203.111139,41.1326936 C203.111139,40.8654209 203.325643,40.6409118 203.594782,40.6409118 C203.863025,40.6409118 204.088725,40.8654209 204.088725,41.1326936 L204.088725,41.5710209 C204.389658,41.1540755 204.895245,40.5874573 205.916269,40.5874573 C206.77608,40.5874573 207.334956,41.1326936 207.560657,41.6886209 C207.807852,41.2823664 208.356429,40.5874573 209.53822,40.5874573 C210.806888,40.5874573 211.333522,41.6886209 211.333522,42.6401118" id="Fill-70"></path>
                            <path d="M215.803371,42.9715745 L218.973921,42.9715745 C218.909883,41.8592745 218.070672,41.4107018 217.383272,41.4107018 C216.694976,41.4107018 215.867857,41.8592745 215.803371,42.9715745 M219.758498,45.38772 C219.758498,45.5587745 219.629526,45.6977564 219.47906,45.7832836 C219.006164,46.0510018 218.533268,46.2541291 217.598225,46.2541291 C215.846361,46.2541291 214.814141,45.2166655 214.814141,43.4205927 C214.814141,41.97732 215.599166,40.5870564 217.383272,40.5870564 C219.038855,40.5870564 219.941208,41.8592745 219.941208,43.2816109 C219.941208,43.5488836 219.748198,43.7627018 219.446817,43.7627018 L215.803371,43.7627018 C215.910399,44.7248836 216.523014,45.3449564 217.684206,45.3449564 C218.329063,45.3449564 218.737473,45.2166655 219.135135,45.0135382 C219.199621,44.9814655 219.253359,44.9707745 219.328593,44.9707745 C219.554293,44.9707745 219.758498,45.1418291 219.758498,45.38772" id="Fill-72"></path>
                            <path d="M228.313386,42.6827418 L228.313386,45.7194055 C228.313386,45.9866782 228.087686,46.2004964 227.818995,46.2004964 C227.550304,46.2004964 227.335352,45.9866782 227.335352,45.7194055 L227.335352,42.7896509 C227.335352,41.9771418 226.991428,41.48536 226.153113,41.48536 C225.378836,41.48536 224.819959,41.9771418 224.390054,42.5116873 L224.390054,45.7194055 C224.390054,45.9866782 224.164354,46.2004964 223.896111,46.2004964 C223.626972,46.2004964 223.412468,45.9866782 223.412468,45.7194055 L223.412468,41.13256 C223.412468,40.8545964 223.626972,40.6407782 223.896111,40.6407782 C224.164354,40.6407782 224.390054,40.8545964 224.390054,41.13256 L224.390054,41.5708873 C224.841902,41.0791055 225.432574,40.5873236 226.389561,40.5873236 C227.61479,40.5873236 228.313386,41.5388145 228.313386,42.6827418" id="Fill-74"></path>
                            <path d="M235.12774,45.6871545 C235.12774,45.8689 235.031012,45.9865 234.880545,46.0613364 C234.622602,46.1789364 234.332864,46.2537727 233.988492,46.2537727 C233.483353,46.2537727 232.419338,46.1682455 232.419338,44.8425727 L232.419338,41.5279455 L231.656257,41.5279455 C231.537585,41.5279455 231.452052,41.4424182 231.452052,41.3252636 C231.452052,41.2606727 231.483847,41.1965273 231.54878,41.1430727 L233.010458,39.7211818 C233.042701,39.6891091 233.107186,39.6249636 233.193167,39.6249636 C233.311391,39.6249636 233.397372,39.7211818 233.397372,39.8387818 L233.397372,40.6940545 L234.612302,40.6940545 C234.848302,40.6940545 235.031012,40.8758 235.031012,41.111 C235.031012,41.3462 234.848302,41.5279455 234.612302,41.5279455 L233.397372,41.5279455 L233.397372,44.7570455 C233.397372,45.3878091 233.827277,45.3985 234.095968,45.3985 C234.439892,45.3985 234.558564,45.3022818 234.741274,45.3022818 C234.934283,45.3022818 235.12774,45.4626455 235.12774,45.6871545" id="Fill-76"></path>
                        </g>
                    </g>
                </g>
            </g>
        </g>
    </g>
</svg>