<?xml version="1.0" encoding="UTF-8"?>
<svg width="90px" height="91px" viewBox="0 0 90 91" version="1.1" xmlns="http://www.w3.org/2000/svg" xmlns:xlink="http://www.w3.org/1999/xlink">
    <!-- Generator: Sketch 43.1 (39012) - http://www.bohemiancoding.com/sketch -->
    <title>client_icon</title>
    <desc>Created with Sketch.</desc>
    <defs></defs>
    <g id="Page-1" stroke="none" stroke-width="1" fill="none" fill-rule="evenodd">
        <g id="main" transform="translate(-846.000000, -327.000000)">
            <g id="Group-8" transform="translate(-35.000000, -3.000000)">
                <g id="первый-разговор" transform="translate(35.000000, 0.000000)">
                    <g id="client_icon" transform="translate(846.000000, 330.000000)">
                        <path d="M74.4479821,50.9904394 C74.4479821,51.4220099 74.4161332,51.9536004 74.4565706,52.4794652 C74.4996918,53.0412942 74.2985785,53.3485109 73.752674,53.5365626 C72.8916799,53.8334016 72.0575249,54.2080736 70.9535487,54.6543161 C71.4919384,54.902666 71.789672,55.0572584 72.0995726,55.1807177 C73.8154771,55.8640378 75.538002,56.5308966 77.2510437,57.220837 C80.4312823,58.5017714 82.4601292,61.457994 82.4696123,64.8663638 C82.4848211,70.4125467 82.4744433,75.9587296 82.4819583,81.5050915 C82.4830318,82.2827058 82.3431113,82.9475964 81.4345229,83.1172187 C80.4391551,83.3024076 79.8340258,82.7631233 79.8308052,81.6407177 C79.8195328,77.4960656 79.8331312,73.3514135 79.8186382,69.2067614 C79.8129125,67.5991074 79.8875249,65.9758867 79.6944632,64.3879145 C79.4203479,62.1330835 78.0699901,60.5780338 75.9650994,59.752825 C68.2274254,56.719664 60.4842048,53.701175 52.7284592,50.7150716 C51.9390358,50.4110755 51.6438072,50.0333618 51.6620577,49.1746938 C51.7191352,46.5219304 51.6581213,43.866841 51.7041054,41.2140775 C51.7114414,40.7987893 51.9834095,40.3527256 52.228002,39.9841372 C52.7674652,39.1714533 53.4681412,38.4528847 53.9220775,37.5995845 C54.9573459,35.6539384 55.8492942,33.6320696 56.8781213,31.682666 C57.1459742,31.1748728 57.6990358,30.8154095 58.1313221,30.398332 C58.2129125,30.3196044 58.3372664,30.2652107 58.4505268,30.242666 C61.1147416,29.7128648 61.5851392,27.6315924 61.8835885,25.4170199 C61.9594533,24.8532227 61.6933897,24.6465626 61.1859543,24.6415527 C60.5683002,24.6354692 59.9506461,24.6401213 59.197008,24.6401213 C59.2950596,23.8957873 59.3966899,23.2915527 59.4501889,22.6830239 C59.5834891,21.1714533 59.7103479,19.6589881 59.8091153,18.1449125 C59.8719185,17.1801412 60.3609245,16.6036402 61.1864911,16.6095447 C61.9780616,16.6150915 62.4915805,17.1466819 62.4842445,18.0980338 C62.4761928,19.13867 62.4015805,20.1816322 62.2967296,21.2174374 C62.2435885,21.743839 62.290825,22.060002 62.8426342,22.3457475 C64.1282207,23.0118907 64.6093539,24.2157078 64.4179026,25.5814533 C64.1872664,27.2295447 63.7921968,28.8554493 63.4384592,30.4843956 C63.3944433,30.6872982 63.1795527,30.8613936 63.0219185,31.0281531 C62.9440855,31.1101014 62.8215209,31.1614533 62.7096918,31.1970596 C59.9978827,32.0625268 58.4968688,34.0122883 57.5070477,36.6045746 C56.8353579,38.364674 56.1114215,40.1661054 54.7027336,41.5497435 C54.546173,41.7036203 54.5250596,42.0444751 54.5232704,42.2992664 C54.5091352,44.1479344 54.534006,45.9969602 54.5062724,47.8452704 C54.4978628,48.38867 54.7200895,48.6350517 55.2037276,48.8175567 C58.9660139,50.237159 62.7170278,51.6864632 66.4828926,53.0962247 C66.8085388,53.2178946 67.2522763,53.2234414 67.5788171,53.107497 C68.7291352,52.6997237 69.8565507,52.2250318 70.9821769,51.7514135 C71.2113817,51.6549722 71.5797913,51.4422286 71.5720974,51.2998032 C71.5044632,50.0430239 71.993827,48.7604791 71.0204672,47.5502207 C70.2519781,46.5949324 69.765835,45.3945149 69.2521372,44.2585109 C68.8910636,43.4603201 68.4408847,42.8174374 67.6194334,42.4738986 C66.8110437,42.1359066 66.3800099,41.5341769 66.2359742,40.6619105 C66.1250398,39.989326 65.9038867,39.3340974 65.7197714,38.6745746 C65.467664,37.7713539 65.7142247,36.9869404 66.4179423,36.4270795 C66.8901292,36.0515129 66.9497117,35.6662843 66.9062326,35.1216322 C66.4220577,29.0415328 70.1567893,24.1242763 76.116829,22.962328 C80.3158748,22.1439185 85.0914215,24.305171 87.2469483,27.9994652 C87.6998111,28.7754692 87.5738469,29.6842366 86.9588767,30.0798429 C86.2757356,30.5194652 85.4643042,30.2657475 84.9065905,29.4380338 C82.552992,25.944674 78.4770477,24.5957475 74.7319384,26.0704592 C71.0095527,27.5362247 68.8708449,31.3516521 69.4723956,35.4576561 C69.6098111,36.3948728 69.7552783,37.3306581 69.9055765,38.3229841 C69.432495,38.3918708 69.0046819,38.4543161 68.537505,38.5224871 C68.5647018,39.4423479 68.7398708,40.2051113 69.6795924,40.5615328 C70.6114414,40.9149125 71.0954374,41.6588887 71.4625944,42.5461849 C72.3214414,44.6199423 73.2860338,46.5990477 75.2771272,47.9134414 C76.0431113,48.4194453 76.7559543,48.6973181 77.6570278,48.7250517 C78.1488966,48.7402604 78.7790755,48.899326 79.0753777,49.2340974 C79.3335686,49.5253897 79.3865308,50.2407376 79.2058151,50.6098628 C79.0272465,50.9754095 78.4405467,51.3588489 78.0365308,51.3550915 C76.8983797,51.3445348 75.7621968,51.1389483 74.4479821,50.9904394" id="Fill-1" fill="#70ADF5"></path>
                        <path d="M29.9609105,24.6497117 C29.2283857,24.6497117 28.6642306,24.6402286 28.1007913,24.6523956 C27.5416461,24.6645626 27.2779085,24.8638867 27.483674,25.4958549 C27.8062783,26.4860338 28.0254632,27.5107455 28.3659602,28.4939463 C28.478505,28.8190557 28.7762386,29.1872863 29.0827396,29.3205865 C31.1502346,30.2186183 32.4265169,31.810169 33.2375905,33.8477833 C33.3583658,34.1512425 33.5596581,34.4233897 33.6727396,34.728996 C34.9688827,38.2325547 37.5361193,40.6972664 40.436159,42.8425944 C41.1305726,43.3562922 42.0931968,43.6302286 42.9681471,43.7470676 C44.1109503,43.8998708 45.2891809,43.7739066 46.4520239,43.7925149 C47.3337734,43.8064712 47.8562386,44.2856362 47.8846879,45.0544831 C47.9145686,45.8628728 47.3844095,46.4162922 46.4742107,46.4273857 C45.0733956,46.4445626 43.6630974,46.5041451 42.2731968,46.3719185 C40.6324414,46.2158946 39.2257217,45.4087575 37.8419046,44.2045825 C37.7943101,44.6128926 37.743495,44.8524751 37.7420636,45.0924155 C37.7341909,46.4937674 37.7234553,47.8954771 37.7454632,49.296829 C37.7527992,49.7675845 37.6447276,50.0518986 37.1560795,50.2417396 C34.1569145,51.4061928 31.1709901,52.6051789 28.1811292,53.7937873 C27.4375109,54.0895527 26.8835547,53.83333 26.5410895,53.1616402 C26.199161,52.4913817 26.4888429,51.941004 27.0333161,51.5257157 C27.2641312,51.3496521 27.5618648,51.2557157 27.8375905,51.1453181 C29.9666362,50.29166 32.0883459,49.4181412 34.2338529,48.6081412 C34.9046481,48.3547813 35.1302744,47.9969284 35.1054036,47.2874851 C35.0497575,45.708996 35.0941312,44.1272863 35.0739125,42.547008 C35.070334,42.2653777 35.0474314,41.8692346 34.8704732,41.722336 C33.0869344,40.2418986 32.4225805,38.0910239 31.4452843,36.1274851 C31.3923221,36.0208449 31.3320239,35.9152783 31.2974911,35.8023757 C30.6077296,33.539672 29.2149662,31.9407853 26.9864374,31.0499105 C26.6251849,30.905338 26.2954235,30.4107853 26.1653439,30.0087376 C25.7350258,28.6784195 25.4040119,27.3160736 25.0329185,25.9666103 C24.6081471,24.4208648 25.0606521,23.177505 26.4628986,22.4265507 C27.0492406,22.1125348 27.1710895,21.7793738 27.091825,21.1672664 C26.6480875,17.7406461 26.8601153,14.3666302 28.2761392,11.1735089 C31.0605924,4.89480119 35.8570736,1.16454274 42.693674,0.313568588 C50.1402346,-0.613091451 57.2767157,3.31040755 60.6360596,9.99581511 C60.8074712,10.3368489 60.9690417,10.7091948 61.014668,11.0817197 C61.0985845,11.7655765 60.8396779,12.3576441 60.1452644,12.5637674 C59.4415467,12.7725746 58.8548469,12.5397913 58.5288429,11.8188966 C57.4356024,9.4016004 55.8123817,7.38975149 53.676,5.84275348 C49.0525408,2.49539761 43.9923221,1.89044732 38.770175,4.06708748 C33.508664,6.26018887 30.4223618,10.3409642 29.4924811,15.9939662 C29.0904334,18.438996 29.3607913,20.8670278 29.7551451,23.2873658 C29.821169,23.6922763 29.8780676,24.0987972 29.9609105,24.6497117" id="Fill-3" fill="#70ADF5"></path>
                        <path d="M41.6759761,60.8900994 C42.0982425,62.2771372 42.5528946,63.6550497 42.9268509,65.0547913 C43.0746441,65.6082107 43.1725169,66.232664 43.0732127,66.7851889 C41.7715229,74.021332 40.4304692,81.2503181 39.0994354,88.4807356 C38.9598728,89.238668 38.6741272,89.844334 37.7705487,89.9040954 C37.0575268,89.951332 36.6152207,89.583996 36.4237694,88.9697416 C36.3149821,88.6201193 36.3491571,88.1962425 36.4196541,87.8251491 C37.7446044,80.8659841 39.0922783,73.9114712 40.4045249,66.950159 C40.4934513,66.4788668 40.4320795,65.9322465 40.2826759,65.4718688 C39.7140477,63.7208946 38.9555785,62.0255666 39.1178648,60.1060437 C39.141841,59.8217296 38.8611054,59.4561829 38.6301113,59.2158847 C37.6179245,58.1629026 36.5640477,57.1507157 35.5420199,56.1070378 C34.797507,55.3469583 34.7484811,54.5920676 35.3668509,54.0066203 C35.957666,53.4472962 36.6674672,53.5126044 37.4035706,54.2293837 C38.2790577,55.082326 39.1602704,55.9315109 39.9888787,56.8286481 C40.4311849,57.3076342 40.781165,57.4046123 41.3345845,56.9912922 C42.1449423,56.3858052 43.0501312,55.9057455 43.8517217,55.2902386 C44.4829742,54.8055268 44.9691173,54.8499006 45.5849821,55.3136779 C46.4164533,55.9395626 47.3381034,56.4448509 48.1858569,57.0508748 C48.6460557,57.3799205 48.9414632,57.3224851 49.3191769,56.9236581 C50.2002107,55.9934195 51.1181034,55.0971769 52.0351014,54.2016501 C52.7552803,53.4984692 53.4840477,53.447833 54.0711054,54.0282704 C54.6726561,54.6228429 54.6359761,55.3471372 53.9292167,56.0696421 C52.8867913,57.1347913 51.8103698,58.1670179 50.7836899,59.2471968 C50.5390974,59.504493 50.2669503,59.9104771 50.2948628,60.2223459 C50.4558966,62.019841 49.7317813,63.5981511 49.2209463,65.2415905 C49.0278847,65.8626441 48.9502306,66.592664 49.068501,67.2266004 C50.3676859,74.1907753 51.7169702,81.1454672 53.0490775,88.1030219 C53.2258569,89.0255666 52.8012644,89.75666 52.0281233,89.895328 C51.1683817,90.0499205 50.5210258,89.564493 50.3404891,88.5845129 C49.3157773,83.0224056 48.2992962,77.4590457 47.2810258,71.895507 C46.9702306,70.197495 46.6290179,68.5039563 46.3726163,66.7975348 C46.2883419,66.2364215 46.3541869,65.6253877 46.4787197,65.0655268 C46.8190378,63.5360636 47.2774473,62.0311133 47.5698131,60.4937773 C47.6340477,60.1561431 47.302497,59.5878728 46.9850815,59.3583101 C44.7774871,57.763002 44.7837495,57.8154274 42.498501,59.2529225 C41.8230537,59.6778728 41.7942465,60.202664 41.6759761,60.8900994" id="Fill-6" fill="#55CA86"></path>
                        <path d="M3.64886481,38.3648529 C3.12443141,38.4147734 2.7196998,38.4532425 2.27632008,38.4952903 C2.30995825,39.4244553 2.46938171,40.2015328 3.40624056,40.5624274 C4.29818887,40.9061451 4.79810934,41.5835606 5.15632008,42.4533221 C6.02107157,44.5537396 6.97600199,46.5781133 9.00645924,47.8987694 C9.71160835,48.3573579 10.3369563,48.760837 11.1956243,48.6819304 C11.4305547,48.6602803 11.6731789,48.6812147 11.9082883,48.7123479 C12.7181093,48.8184513 13.1199781,49.2913539 13.1040537,50.1056481 C13.0890239,50.8676958 12.6137952,51.4182525 11.7930596,51.3763837 C10.5971153,51.3157276 9.40868588,51.1040577 8.04973956,50.9362247 C8.04973956,51.349008 8.02647913,51.9242565 8.05671769,52.4966421 C8.08337773,53.0040775 7.93433201,53.3084314 7.4179503,53.5052505 C5.55407356,54.2152306 3.71131014,54.9803201 1.85530616,55.7110557 C1.06480915,56.0220298 0.347850895,55.7847734 0.108626243,55.1683718 C-0.181055666,54.4213539 0.117214712,53.6605586 0.904848907,53.3193459 C2.16109145,52.7746938 3.43093241,52.2597435 4.7084672,51.7669801 C5.18888469,51.5817913 5.43544533,51.3277157 5.4034175,50.784674 C5.36655865,50.1611153 5.41647913,49.5329046 5.39035586,48.9082724 C5.3797992,48.653839 5.31824851,48.3757873 5.19443141,48.1564235 C4.52435189,46.9694254 3.74387475,45.8366421 3.16522664,44.6081332 C2.67461034,43.5664235 2.09274155,42.701672 1.00307952,42.2559662 C0.294709742,41.9662843 0.0714095427,41.3838787 0.0660417495,40.6848131 C0.0562007952,39.4334016 0.0628210736,38.1818111 0.0628210736,36.9300417 C0.0628210736,36.8704592 0.041528827,36.7910159 0.0714095427,36.754336 C1.20616103,35.3613936 0.459858847,33.6932624 0.708029821,32.166841 C1.41049503,27.8448728 4.89311928,24.0120895 9.24586282,23.074336 C13.8655646,22.0791471 18.6291233,24.0763241 20.9896998,27.9980338 C21.4547296,28.7704592 21.3294811,29.6504195 20.6953658,30.067497 C20.0098986,30.5183917 19.1968569,30.269326 18.6507734,29.4414334 C16.6523439,26.4113141 13.3166183,24.9793658 9.85367594,25.6651909 C6.55677734,26.3180934 3.89721471,28.88533 3.34111133,32.3371789 C3.09133002,33.8881133 3.38602187,35.5288688 3.4545507,37.1279344 C3.47065408,37.5086899 3.57085288,37.8856879 3.64886481,38.3648529" id="Fill-8" fill="#55CA86"></path>
                        <path d="M7.21157654,76.6824513 C7.21157654,72.8963678 7.20585089,69.1106421 7.21318688,65.3243797 C7.22034394,61.5660298 9.36101988,58.4600457 12.8722724,57.1112982 C13.8171829,56.7486143 14.7701451,56.4043598 15.7286541,56.0790716 C16.5980577,55.7840219 17.4084155,56.1282763 17.650503,56.8575805 C17.8836441,57.5604036 17.497163,58.2710994 16.6578191,58.6094493 C15.9124115,58.9102247 15.1551948,59.1823718 14.3976203,59.4509404 C11.294499,60.5508012 9.88098012,62.5420736 9.87919085,65.8604433 C9.87489662,73.1937435 9.87775944,80.5268648 9.87758052,87.8605229 C9.87758052,88.0988529 9.88062227,88.3375408 9.87632803,88.5758708 C9.85396223,89.8070636 9.62225249,90.0546978 8.50593042,90.0473618 C7.51897217,90.0407416 7.20907157,89.7034652 7.20764016,88.5773022 C7.20227237,84.6121133 7.20549304,80.6474612 7.20549304,76.6824513 L7.21157654,76.6824513 Z" id="Fill-10" fill="#70ADF5"></path>
                        <path d="M87.4612127,38.5089245 C87.0074553,38.4570358 86.6007555,38.4105149 86.1267793,38.3561213 C86.1267793,37.8463598 86.0936779,37.3494811 86.1337575,36.858507 C86.2182107,35.8201968 86.3400596,34.7851074 86.4481312,33.7487654 C86.5309742,32.954332 87.0310736,32.4973539 87.8115507,32.5297396 C88.5897018,32.5621252 89.0171571,32.9949483 89.0762028,33.7587853 C89.1082306,34.1731789 89.1275547,34.6038549 89.0497217,35.0075129 C88.9310934,35.6240934 88.9853082,36.0891233 89.6036779,36.4340934 C89.8015706,36.54467 89.9389861,36.9277515 89.9456064,37.1900577 C89.9792445,38.5309324 89.9581312,39.8732386 89.9626044,41.215008 C89.9645726,41.8104751 89.7530815,42.265664 89.1536779,42.455505 C87.7140358,42.9117674 86.8788072,43.9105348 86.3080318,45.2889841 C85.8927435,46.29133 85.1596819,47.1578708 84.6799801,48.1394612 C84.4616899,48.5862406 84.4572167,49.1645308 84.4531014,49.6839543 C84.4357455,51.7589642 84.4497018,51.7593221 86.3556262,52.4766382 C87.1361034,52.7706143 87.9194433,53.0572545 88.6966998,53.3591034 C89.6866998,53.7432584 90.0914314,54.4836561 89.7700795,55.296161 C89.5077734,55.9587256 88.8090656,56.1603757 87.861829,55.8082485 C86.047336,55.1336958 84.2442942,54.4274732 82.425328,53.7649085 C81.9663817,53.5977913 81.7733201,53.3750278 81.7828032,52.8645507 C81.8144732,51.1357634 81.7888867,49.4060815 81.805169,47.6767575 C81.807495,47.4244712 81.8668986,47.1440934 81.9885686,46.9258032 C82.8527833,45.3737952 83.7844533,43.8575726 84.6001789,42.2810517 C84.9737773,41.5590835 85.4062425,41.022662 86.1530815,40.6662406 C87.3604771,40.0900974 87.341332,40.0501968 87.4612127,38.5089245" id="Fill-12" fill="#55CA86"></path>
                        <path d="M21.2913698,38.5298767 C21.0664592,38.4923022 20.8673141,38.4532962 20.6667376,38.426994 C20.4622247,38.3999761 20.2559225,38.3853042 19.9147097,38.3520239 C19.9508529,37.8431571 19.979839,37.35433 20.0213499,36.8663976 C20.1045507,35.8894592 20.2018867,34.9135944 20.2795408,33.9361193 C20.3521849,33.0214473 20.8488847,32.5097177 21.6712306,32.5286839 C22.4654851,32.5469344 22.9271153,33.0330775 22.9670159,33.9230577 C22.9802565,34.219002 22.9650477,34.5208509 22.9203161,34.8133956 C22.8217276,35.4587833 22.9670159,35.9084254 23.4612107,36.4460994 C23.9253459,36.9508509 24.0208926,37.8181074 24.204829,38.5445487 C24.2715686,38.8086441 24.100336,39.125165 24.0802962,39.4205726 C23.9609523,41.1767356 23.3411511,42.5417654 21.4600974,43.0492008 C21.1772147,43.1254235 20.9294016,43.5024215 20.7587058,43.7947873 C19.9379702,45.2018648 19.0703559,46.5914076 18.3870358,48.0648668 C18.1096998,48.6624811 18.2177714,49.4576302 18.2208131,50.1626004 C18.2288648,51.9871133 17.9787256,51.4854036 19.593,52.1544095 C20.5541928,52.5530577 21.5456243,52.8776302 22.5134374,53.2614274 C23.4529801,53.6341312 23.8362406,54.3802545 23.5182883,55.1449861 C23.243994,55.8050457 22.4719264,56.0698569 21.6043121,55.7511889 C19.8171948,55.0952445 18.0438549,54.4011889 16.2544115,53.751507 C15.7922445,53.5838529 15.6115288,53.3433757 15.6197594,52.8409503 C15.647672,51.1440119 15.6215487,49.4461789 15.6349682,47.7487038 C15.6369364,47.4942704 15.6539344,47.1518052 15.8099583,47.0002545 C17.1846501,45.6649264 17.7051471,43.8491809 18.4988648,42.2009105 C18.899839,41.3681869 19.4722247,40.8704135 20.2637952,40.56767 C21.2362604,40.1958608 21.3724235,39.4552843 21.2913698,38.5298767" id="Fill-14" fill="#55CA86"></path>
                        <path d="M82.6277654,85.9202266 C82.628839,86.6033678 82.0190577,87.2034871 81.3037097,87.2229901 C80.5668907,87.2433877 79.9970099,86.6985567 79.9778648,85.9561909 C79.9581829,85.1857336 80.4398529,84.7242823 81.2813439,84.7087157 C82.1069105,84.693328 82.6265129,85.160505 82.6277654,85.9202266" id="Fill-16" fill="#70ADF5"></path>
                    </g>
                </g>
            </g>
        </g>
    </g>
</svg>