<?xml version="1.0" encoding="UTF-8"?>
<svg width="401px" height="332px" viewBox="0 0 401 332" version="1.1" xmlns="http://www.w3.org/2000/svg" xmlns:xlink="http://www.w3.org/1999/xlink">
    <!-- Generator: Sketch 43.1 (39012) - http://www.bohemiancoding.com/sketch -->
    <title>client_icon2</title>
    <desc>Created with Sketch.</desc>
    <defs></defs>
    <g id="Page-1" stroke="none" stroke-width="1" fill="none" fill-rule="evenodd">
        <g id="registration" transform="translate(-288.000000, -994.000000)">
            <g id="Group-6" transform="translate(0.000000, -3.000000)">
                <g id="Group-4" transform="translate(288.000000, 872.000000)">
                    <g id="client_icon2" transform="translate(0.000000, 125.000000)">
                        <ellipse id="Oval-3" fill="#F1F3F7" cx="372.463415" cy="20.9268293" rx="18.0731707" ry="18.0731707"></ellipse>
                        <ellipse id="Oval-3" fill="#F1F3F7" cx="372.939024" cy="97.5" rx="28.0609756" ry="28.0609756"></ellipse>
                        <circle id="Oval-3" fill="#F1F3F7" cx="182.219512" cy="161.707317" r="161.707317"></circle>
                        <g id="Page-1" transform="translate(95.658537, 67.536585)">
                            <path d="M141.632746,97.0062017 C141.632746,97.8272384 141.572156,98.8385569 141.649085,99.8389826 C141.731121,100.907828 141.348515,101.492289 140.309965,101.850046 C138.671976,102.414764 137.085047,103.127555 134.9848,103.976504 C136.009053,104.448974 136.575474,104.743077 137.16504,104.977951 C140.429444,106.277926 143.706443,107.546584 146.9654,108.859153 C153.01561,111.296053 156.875368,116.920086 156.893409,123.404302 C156.922343,133.955577 156.9026,144.506851 156.916896,155.058467 C156.918939,156.53783 156.652748,157.802744 154.924214,158.12544 C153.030588,158.477751 151.879366,157.451795 151.873239,155.316487 C151.851794,147.431539 151.877664,139.546592 151.850092,131.661644 C151.839199,128.60318 151.981145,125.515101 151.613857,122.494081 C151.092369,118.204403 148.523396,115.246016 144.51897,113.676106 C129.798517,107.905702 115.067512,102.163211 100.312679,96.4823313 C98.8108486,95.9039974 98.2491941,95.1854201 98.2839146,93.5518566 C98.3925011,88.5051359 98.2764258,83.4539901 98.3639078,78.4072695 C98.377864,77.6172088 98.8952669,76.7686 99.3605891,76.0673829 C100.386885,74.5213014 101.719878,73.1542684 102.583465,71.5309168 C104.553,67.8294437 106.249877,63.9829616 108.207158,60.2743402 C108.716731,59.3082945 109.768897,58.6244377 110.591296,57.8309731 C110.746517,57.6811986 110.983092,57.577718 111.198563,57.534828 C116.267069,56.5269135 117.161972,52.5674198 117.729754,48.3543305 C117.874082,47.2817407 117.367912,46.8885826 116.402547,46.8790514 C115.227498,46.867478 114.052449,46.8763283 112.618698,46.8763283 C112.805235,45.4602782 112.998581,44.3107588 113.100359,43.1530698 C113.353955,40.2773989 113.595296,37.4000261 113.783195,34.5195897 C113.902674,32.684171 114.832978,31.587413 116.403568,31.5986461 C117.909483,31.6091984 118.886421,32.6205168 118.872465,34.4304058 C118.857147,36.4101526 118.715202,38.3943247 118.51573,40.3648809 C118.414632,41.3663278 118.504496,41.9678087 119.55428,42.5114221 C122.00003,43.7787188 122.915356,46.0689074 122.551132,48.667155 C122.11236,51.8025485 121.360765,54.8957328 120.687801,57.9947039 C120.604063,58.3807137 120.195247,58.7119196 119.895357,59.0291693 C119.747285,59.1850709 119.514113,59.2827648 119.301365,59.3505037 C114.142313,60.9970023 111.286726,64.7063045 109.403652,69.6379711 C108.125803,72.9864529 106.748558,76.4135663 104.068615,79.0458536 C103.770768,79.3385947 103.730601,79.9870503 103.727197,80.4717751 C103.700306,83.9887532 103.747621,87.5064122 103.69486,91.0227095 C103.678861,92.0564941 104.101634,92.5252203 105.021726,92.8724249 C112.179246,95.5731318 119.315321,98.3303447 126.479649,101.01233 C127.099171,101.2438 127.943355,101.254352 128.564579,101.033775 C130.752989,100.258011 132.897828,99.3549386 135.039263,98.4539086 C135.475312,98.2704349 136.176188,97.8657032 136.161551,97.5947475 C136.032881,95.2038015 136.963866,92.7638383 135.112108,90.4613954 C133.650105,88.6440177 132.725247,86.3602967 131.747968,84.1991184 C131.061048,82.6806089 130.20461,81.4575638 128.641849,80.8040022 C127.103937,80.160993 126.283921,79.0162391 126.009902,77.3568054 C125.798856,76.0772544 125.378126,74.8307219 125.027858,73.5760199 C124.548239,71.8576976 125.017305,70.3653987 126.356085,69.3002976 C127.254392,68.5858051 127.367744,67.8529311 127.285028,66.8167637 C126.363915,55.2497453 133.469014,45.8949647 144.807626,43.6844289 C152.796054,42.1274547 161.881241,46.2391058 165.981999,53.2672753 C166.843543,54.7435755 166.603904,56.4724501 165.433961,57.2250671 C164.134326,58.0614216 162.590627,57.5787392 161.529611,56.0040643 C157.052034,49.3581602 149.297798,46.7919099 142.172956,49.5974591 C135.091344,52.3859884 131.022583,59.6446064 132.166997,67.4560286 C132.428421,69.2390262 132.705164,71.0193007 132.991097,72.9071405 C132.091088,73.0381932 131.2772,73.1569916 130.388424,73.2866827 C130.440164,75.0366619 130.773413,76.4877728 132.561176,77.1658429 C134.333962,77.8381263 135.254735,79.2534955 135.953228,80.9415225 C137.587132,84.8867196 139.422211,88.6518469 143.210144,91.1524006 C144.667383,92.1150423 146.023523,92.6436783 147.73776,92.6964398 C148.673511,92.7253735 149.872388,93.0279861 150.436084,93.6648683 C150.927277,94.219034 151.028034,95.5799398 150.684234,96.2821781 C150.344518,96.9776084 149.228357,97.7070784 148.459742,97.6999301 C146.294478,97.6798467 144.13296,97.2887309 141.632746,97.0062017" id="Fill-1" fill="#70ADF5"></path>
                            <path d="M56.9988054,46.8945735 C55.6052215,46.8945735 54.5319509,46.8765325 53.4600419,46.8996795 C52.3963024,46.9228265 51.8945577,47.3020283 52.2860139,48.5043093 C52.899749,50.3880643 53.3167349,52.3375159 53.9645097,54.2079954 C54.1786192,54.8264961 54.7450392,55.5270324 55.3281387,55.7806279 C59.2614219,57.4890787 61.6894712,60.5169069 63.2324892,64.3933438 C63.4622569,64.9706565 63.8452031,65.4883998 64.0603338,66.0697973 C66.5261671,72.735104 71.4101782,77.4240678 76.927327,81.5054236 C78.2484063,82.4827023 80.0797403,83.0038496 81.7442799,83.2261286 C83.9183933,83.5168273 86.1599052,83.2771881 88.3721429,83.3125893 C90.0496176,83.3391403 91.0435758,84.2507225 91.0976989,85.7134069 C91.1545451,87.2513189 90.1459499,88.3041657 88.4143521,88.3252703 C85.7493868,88.3579484 83.0663804,88.4713005 80.4221793,88.2197474 C77.3007421,87.9229215 74.6245437,86.3873922 71.991916,84.0965228 C71.9013705,84.873308 71.8046979,85.3290991 71.8019747,85.785571 C71.7869972,88.4515575 71.7665734,91.1182248 71.8084422,93.7842113 C71.8223985,94.6797949 71.6167989,95.2206852 70.6871757,95.581846 C64.9814471,97.7971474 59.3009079,100.078145 53.61288,102.3394 C52.1981915,102.902076 51.1443235,102.414628 50.4928043,101.136779 C49.8423064,99.861653 50.3934085,98.8145929 51.4292355,98.0245323 C51.8683472,97.689582 52.4347672,97.5108738 52.9593184,97.3008491 C57.0096981,95.6768167 61.0461215,94.0150002 65.1278177,92.4740246 C66.4039647,91.992023 66.8332049,91.3112297 66.7858897,89.961557 C66.6800264,86.9585778 66.7644447,83.9494715 66.7259799,80.9430883 C66.719172,80.407304 66.6756012,79.6536658 66.3389489,79.3742002 C62.9458752,76.5577583 61.6819824,72.4658503 59.822736,68.7303375 C59.7219786,68.5274611 59.6072649,68.3266271 59.5415683,68.1118368 C58.2293393,63.8071808 55.5796918,60.7653964 51.3400516,59.0705615 C50.6527908,58.795521 50.0254398,57.8546647 49.7779714,57.0897934 C48.9593175,54.5589444 48.3295837,51.9671643 47.623601,49.3998928 C46.8154994,46.4592062 47.6763625,44.0937899 50.344051,42.6651452 C51.4595308,42.0677491 51.6913409,41.4339306 51.5405452,40.2694336 C50.6963615,33.7504975 51.0997316,27.331638 53.7936306,21.2569195 C59.0908832,9.31206081 68.215896,2.21547156 81.2221114,0.59654512 C95.388739,-1.1663691 108.965459,6.29784852 115.356406,19.0164287 C115.682506,19.6652247 115.989884,20.3735902 116.076685,21.082296 C116.236331,22.383292 115.743778,23.5096645 114.422698,23.9018014 C113.083918,24.2990443 111.967758,23.8561882 111.347555,22.4847302 C109.267731,17.8859715 106.179653,14.0585516 102.115317,11.1154822 C93.3194678,4.7473418 83.6927103,3.59646075 73.7578938,7.73738593 C63.7481901,11.9096276 57.8766884,19.6730539 56.107647,30.4275455 C55.3427757,35.0790656 55.8571151,39.6982481 56.6073493,44.3027935 C56.7329556,45.0731111 56.8412018,45.8464923 56.9988054,46.8945735" id="Fill-3" fill="#70ADF5"></path>
                            <path d="M79.2860034,115.839701 C80.0893395,118.478456 80.9542873,121.099851 81.6657163,123.762774 C81.946884,124.81562 82.1330809,126.003605 81.9441608,127.05475 C79.4677752,140.821071 76.9165024,154.573776 74.3842917,168.329204 C74.1187823,169.771124 73.5751689,170.923367 71.8561658,171.03706 C70.4996852,171.126924 69.6582247,170.42809 69.2940003,169.259508 C69.0870391,168.594373 69.1520549,167.787974 69.2861712,167.081991 C71.8068083,153.842604 74.3706758,140.612067 76.8671448,127.368595 C77.036322,126.47199 76.9195659,125.432079 76.6353347,124.556238 C75.5535542,121.225117 74.1106128,117.999858 74.4193526,114.348083 C74.4649657,113.807193 73.9308834,113.111763 73.4914313,112.65461 C71.5658075,110.651376 69.5608713,108.725752 67.6165256,106.740218 C66.2001352,105.294213 66.1068665,103.85808 67.2832773,102.744302 C68.407267,101.680222 69.7576205,101.804467 71.1580123,103.168096 C72.8235731,104.790767 74.5000266,106.406289 76.0764034,108.113038 C76.9178639,109.02428 77.5836798,109.208775 78.6365266,108.422458 C80.178183,107.270556 81.9002496,106.357272 83.4252266,105.186308 C84.626146,104.264173 85.5510036,104.348591 86.7226489,105.230899 C88.3044721,106.421607 90.0578552,107.382887 91.6706545,108.535811 C92.5461547,109.1618 93.1081495,109.052533 93.8267269,108.293788 C95.5028399,106.524066 97.2490747,104.81902 98.9936075,103.115334 C100.363704,101.777576 101.75014,101.681243 102.866981,102.78549 C104.011394,103.916628 103.941613,105.294554 102.597046,106.669075 C100.613896,108.695457 98.5660693,110.659205 96.6128734,112.714179 C96.1475512,113.20367 95.6298079,113.97603 95.6829098,114.569341 C95.9892667,117.988966 94.6116815,120.991605 93.6398491,124.118148 C93.2725611,125.299664 93.124829,126.688483 93.3498312,127.894508 C95.8214512,141.143426 98.3883823,154.374303 100.922635,167.610627 C101.258947,169.365712 100.451186,170.756573 98.9803321,171.02038 C97.3447262,171.314483 96.1131711,170.390987 95.7697109,168.526634 C93.8202593,157.945064 91.886466,147.361111 89.9492687,136.776818 C89.3579997,133.546454 88.7088633,130.3246 88.2210749,127.078237 C88.0607481,126.010753 88.1860141,124.848299 88.4229301,123.783197 C89.0703645,120.873487 89.9424607,118.010411 90.4986689,115.085723 C90.6208713,114.443394 89.9901163,113.362295 89.3862526,112.925566 C85.1864388,109.890589 85.1983527,109.990325 80.8508068,112.725072 C79.5658094,113.533514 79.5110056,114.531897 79.2860034,115.839701" id="Fill-6" fill="#55CA86"></path>
                            <path d="M6.94174281,72.9867933 C5.94404025,73.081764 5.17406304,73.1549492 4.33056015,73.2349424 C4.39455472,75.0026222 4.69784813,76.4809648 6.48016496,77.1675449 C8.17704223,77.8214468 9.12811046,79.1101885 9.80958454,80.7648566 C11.4547215,84.7607728 13.2714184,88.6120205 17.1342395,91.1244881 C18.4757427,91.9969247 19.665429,92.7645191 21.2989925,92.6144042 C21.7459333,92.5732162 22.2075111,92.6130426 22.6547923,92.6722716 C24.1954275,92.8741268 24.9599584,93.7737952 24.9296631,95.3229403 C24.9010698,96.7726896 23.9969763,97.8200901 22.4355769,97.7404373 C20.1603657,97.6250428 17.8994512,97.2223536 15.3141387,96.9030615 C15.3141387,97.6883566 15.2698871,98.7827318 15.3274141,99.8716607 C15.3781332,100.837026 15.0945828,101.41604 14.1121981,101.790477 C10.5662863,103.14117 7.06054124,104.596706 3.52960685,105.986886 C2.02573447,106.578496 0.661765117,106.12713 0.206654803,104.954463 C-0.344447365,103.533307 0.222993842,102.085941 1.72141987,101.436804 C4.11134471,100.400637 6.5271397,99.4209755 8.95757174,98.4835232 C9.87153673,98.1312126 10.3406033,97.6478494 10.2796723,96.6147456 C10.2095506,95.4284633 10.3045213,94.2333307 10.2548234,93.045006 C10.23474,92.5609619 10.1176435,92.0319856 9.88208903,91.6146593 C8.60730359,89.3564679 7.12249343,87.2014168 6.02165068,84.8642534 C5.08828308,82.8824641 3.98131319,81.2373272 1.90829763,80.3893991 C0.560667313,79.838297 0.135852301,78.7303059 0.125640401,77.4003762 C0.106918586,75.0196421 0.119513262,72.6385675 0.119513262,70.2571526 C0.119513262,70.1438005 0.0790060612,69.9926644 0.135852301,69.9228831 C2.29464782,67.2728952 0.874853416,64.0993773 1.34698356,61.1954535 C2.68338079,52.9731726 9.30886108,45.6815361 17.5896902,43.8975172 C26.3783912,42.0042311 35.4407711,45.8037384 39.931624,53.2645521 C40.8163149,54.7340444 40.5780372,56.4081151 39.3716715,57.2015797 C38.067612,58.0593792 36.5208496,57.5855471 35.4819591,56.0105318 C31.680069,50.2459147 25.3340543,47.5217203 18.7460177,48.8264607 C12.4738691,50.068568 7.41421335,54.9525791 6.35626058,61.5195111 C5.88106687,64.4700692 6.44170014,67.5915065 6.57207206,70.6336313 C6.60270775,71.3579953 6.79332987,72.0752111 6.94174281,72.9867933" id="Fill-8" fill="#55CA86"></path>
                            <path d="M13.7195846,145.883688 C13.7195846,138.680895 13.7086919,131.478783 13.7226482,124.275649 C13.7362641,117.125618 17.8087695,111.216672 24.4887133,108.650762 C26.286348,107.960778 28.0993005,107.305855 29.9228053,106.687014 C31.5767926,106.1257 33.118449,106.780623 33.5790057,108.16808 C34.0225425,109.505158 33.2872857,110.857213 31.6904851,111.500904 C30.2723927,112.07311 28.8318341,112.590854 27.3905947,113.101789 C21.4870957,115.194207 18.7979622,118.982481 18.7945582,125.295478 C18.7863887,139.246634 18.791835,153.19745 18.7914946,167.149287 C18.7914946,167.602696 18.7972814,168.056785 18.7891119,168.510193 C18.7465623,170.852462 18.3057486,171.323571 16.182014,171.309615 C14.3043861,171.297021 13.7148191,170.655373 13.7120959,168.512916 C13.701884,160.969386 13.7080112,153.426877 13.7080112,145.883688 L13.7195846,145.883688 Z" id="Fill-10" fill="#70ADF5"></path>
                            <path d="M166.389624,73.2608807 C165.526378,73.1621656 164.752657,73.0736625 163.850946,72.9701819 C163.850946,72.0003919 163.787973,71.0551104 163.864222,70.121062 C164.024889,68.1457403 164.256699,66.1765457 164.462298,64.2049683 C164.619902,62.6936072 165.571311,61.8242342 167.056121,61.885846 C168.536506,61.9474578 169.349713,62.7708773 169.462044,64.2240305 C169.522975,65.0123892 169.559738,65.8317239 169.411666,66.5996587 C169.185983,67.7726656 169.289123,68.6573564 170.465534,69.3136412 C170.842012,69.5240063 171.103437,70.2527955 171.116032,70.751817 C171.180026,73.3027495 171.139859,75.8564051 171.148369,78.4090395 C171.152114,79.5418796 170.749765,80.4078486 169.609436,80.7690095 C166.870605,81.6370209 165.281633,83.537115 164.195768,86.1595307 C163.405707,88.0664327 162.011102,89.7149737 161.098499,91.5823897 C160.683215,92.4323601 160.674705,93.532522 160.666876,94.5206935 C160.633857,98.4682734 160.660408,98.4689542 164.286313,99.8336043 C165.771124,100.392876 167.26138,100.938191 168.740063,101.512441 C170.623478,102.243272 171.393455,103.651833 170.782103,105.197575 C170.283081,106.458063 168.953832,106.84169 167.151772,106.17179 C163.69981,104.888494 160.269633,103.544949 156.809161,102.28446 C155.936043,101.96653 155.568755,101.542736 155.586796,100.571584 C155.647047,97.2826719 155.59837,93.9920575 155.629346,90.7021239 C155.633771,90.2221647 155.746783,89.6887631 155.978252,89.2734792 C157.622368,86.3208787 159.394814,83.4363576 160.946682,80.4371227 C161.65743,79.0636223 162.480169,78.0431131 163.900984,77.365043 C166.197981,76.2689658 166.161558,76.1930574 166.389624,73.2608807" id="Fill-12" fill="#55CA86"></path>
                            <path d="M40.5055328,73.3007411 C40.0776542,73.2292578 39.6987927,73.1550514 39.3172081,73.105013 C38.9281347,73.0536132 38.5356574,73.0257006 37.886521,72.9623868 C37.9552811,71.9942988 38.0104254,71.0643352 38.0893974,70.1360735 C38.2476818,68.2775078 38.4328576,66.4209845 38.5805897,64.5613977 C38.7187908,62.82129 39.6637319,61.8477556 41.2281948,61.8838377 C42.7392155,61.9185581 43.6174389,62.8434158 43.6933473,64.5365487 C43.7185367,65.0995648 43.689603,65.6738139 43.6045038,66.2303624 C43.4169453,67.4581731 43.6933473,68.3135899 44.6335229,69.3364818 C45.5165118,70.2967407 45.6982836,71.9466433 46.0482113,73.3286536 C46.1751793,73.8310791 45.8494197,74.4332408 45.8112953,74.9952356 C45.5842507,78.3362287 44.4051167,80.9331147 40.8265268,81.8984796 C40.2883597,82.0434885 39.8169103,82.7607043 39.4921719,83.3169124 C37.9307725,85.9937916 36.2801892,88.6373119 34.9802144,91.4404783 C34.4525996,92.5774031 34.6581992,94.0901258 34.6639859,95.4312886 C34.6793038,98.9023131 34.2034293,97.947841 37.2744878,99.220584 C39.1030986,99.9789877 40.9892364,100.596467 42.8304418,101.326618 C44.6178646,102.035664 45.3469942,103.455118 44.7421094,104.909974 C44.2202813,106.165697 42.7514698,106.669484 41.1008865,106.063237 C37.7010048,104.815343 34.3273337,103.494945 30.9230268,102.258964 C30.0437823,101.940013 29.6999817,101.48252 29.7156399,100.526686 C29.7687418,97.2983642 29.7190439,94.0683404 29.7445736,90.8389974 C29.748318,90.3549534 29.7806557,89.7034342 30.0774815,89.4151183 C32.692749,86.8747381 33.6829628,83.420393 35.1929623,80.2846591 C35.9557912,78.7004531 37.0447201,77.7534696 38.5506348,77.1775185 C40.4006906,76.4701743 40.6597324,75.0612726 40.5055328,73.3007411" id="Fill-14" fill="#55CA86"></path>
                            <path d="M157.194285,163.457992 C157.196328,164.757627 156.036256,165.899317 154.67535,165.93642 C153.273597,165.975225 152.189434,164.938718 152.153011,163.526412 C152.115567,162.060664 153.031915,161.182781 154.632801,161.153166 C156.203391,161.123892 157.191903,162.012668 157.194285,163.457992" id="Fill-16" fill="#70ADF5"></path>
                        </g>
                        <ellipse id="Oval-3" fill="#F1F3F7" cx="29.0731707" cy="312.95122" rx="18.0731707" ry="18.0731707"></ellipse>
                        <ellipse id="Oval-3" fill="#F1F3F7" cx="28.5177305" cy="312.51773" rx="17.5177305" ry="17.5177305"></ellipse>
                        <ellipse id="Oval-3-Copy" fill="#F1F3F7" cx="5.9929078" cy="255.992908" rx="5.9929078" ry="5.9929078"></ellipse>
                    </g>
                </g>
            </g>
        </g>
    </g>
</svg>