<?xml version="1.0" encoding="UTF-8"?>
<svg width="390px" height="321px" viewBox="0 0 390 321" version="1.1" xmlns="http://www.w3.org/2000/svg" xmlns:xlink="http://www.w3.org/1999/xlink">
    <!-- Generator: Sketch 43.1 (39012) - http://www.bohemiancoding.com/sketch -->
    <title>contacts_icon</title>
    <desc>Created with Sketch.</desc>
    <defs></defs>
    <g id="Page-1" stroke="none" stroke-width="1" fill="none" fill-rule="evenodd">
        <g id="main" transform="translate(-933.000000, -2883.000000)">
            <g id="Group-8" transform="translate(-35.000000, -3.000000)">
                <g id="Остались-вопросы" transform="translate(327.000000, 2886.000000)">
                    <g id="contacts_icon" transform="translate(641.000000, 0.000000)">
                        <ellipse id="Oval-3" fill="#F1F3F7" cx="362.340426" cy="20.2836879" rx="17.5177305" ry="17.5177305"></ellipse>
                        <ellipse id="Oval-3" fill="#F1F3F7" cx="362.801418" cy="94.5035461" rx="27.1985816" ry="27.1985816"></ellipse>
                        <ellipse id="Oval-3" fill="#F1F3F7" cx="177.943262" cy="156.737589" rx="156.737589" ry="156.737589"></ellipse>
                        <g id="Page-1" transform="translate(82.056738, 80.212766)">
                            <path d="M63.2066295,102.882813 L2.70131039,102.882813 C1.20956616,102.882813 0.000180075355,101.673787 0.000180075355,100.181682 L0.000180075355,43.0380098 C0.000180075355,41.5462655 1.20956616,40.3368794 2.70131039,40.3368794 L63.6867104,40.3368794 C65.1784547,40.3368794 66.3878408,41.5462655 66.3878408,43.0380098 C66.3878408,44.529754 65.1784547,45.7391401 63.6867104,45.7391401 L5.40244071,45.7391401 L5.40244071,97.4805519 L63.2066295,97.4805519 C64.6983738,97.4805519 65.9077599,98.6895778 65.9077599,100.181682 C65.9077599,101.673787 64.6983738,102.882813 63.2066295,102.882813" id="Fill-17" fill="#55CA86"></path>
                            <path d="M3.30150155,101.80236 C2.61037234,101.80236 1.91888298,101.53873 1.39162234,101.011469 C0.336740913,99.9562278 0.336740913,98.2462323 1.39162234,97.1909907 L16.6378823,81.9450909 C17.6927637,80.8902094 19.4031195,80.8902094 20.4580009,81.9450909 C21.5128823,82.9996121 21.5128823,84.710328 20.4580009,85.7648493 L5.21138076,101.011469 C4.68412012,101.53873 3.99263076,101.80236 3.30150155,101.80236" id="Fill-19" fill="#55CA86"></path>
                            <path d="M64.8872728,74.3109763 L31.2733267,74.3109763 C30.5569869,74.3109763 29.8698194,74.0264572 29.3634475,73.5197252 L0.791251108,44.947889 C-0.263630319,43.8933677 -0.263630319,42.1826518 0.791251108,41.1281305 C1.84613254,40.0732491 3.55648825,40.0732491 4.61136968,41.1281305 L32.3919548,68.9087156 L64.8872728,68.9087156 C66.3790171,68.9087156 67.5884031,70.1181017 67.5884031,71.609846 C67.5884031,73.1015902 66.3790171,74.3109763 64.8872728,74.3109763" id="Fill-21" fill="#55CA86"></path>
                            <path d="M108.105358,114.407635 L20.2285849,114.407635 C18.7368406,114.407635 17.5274546,113.198609 17.5274546,111.706505 C17.5274546,110.2144 18.7368406,109.005375 20.2285849,109.005375 L108.105358,109.005375 C109.597462,109.005375 110.806488,110.2144 110.806488,111.706505 C110.806488,113.198609 109.597462,114.407635 108.105358,114.407635 Z" id="Fill-1" fill="#70ADF5"></path>
                            <path d="M121.791445,111.88658 C121.791445,110.394836 120.582059,109.18545 119.090315,109.18545 C117.59857,109.18545 116.389184,110.394836 116.389184,111.88658 C116.389184,113.378324 117.59857,114.587711 119.090315,114.587711 C120.582059,114.587711 121.791445,113.378324 121.791445,111.88658" id="Fill-3" fill="#70ADF5"></path>
                            <path d="M181.576103,114.167415 L129.7144,114.167415 C128.222296,114.167415 127.01327,112.958389 127.01327,111.466284 C127.01327,109.97418 128.222296,108.765154 129.7144,108.765154 L178.874972,108.765154 L178.874972,73.0500887 C178.874972,71.5583444 180.083998,70.3489583 181.576103,70.3489583 C183.068207,70.3489583 184.277233,71.5583444 184.277233,73.0500887 L184.277233,111.466284 C184.277233,112.958389 183.068207,114.167415 181.576103,114.167415" id="Fill-5" fill="#70ADF5"></path>
                            <path d="M184.217448,61.7048371 C184.217448,60.2130929 183.008062,59.0037068 181.516318,59.0037068 C180.024573,59.0037068 178.815187,60.2130929 178.815187,61.7048371 C178.815187,63.1965813 180.024573,64.4059674 181.516318,64.4059674 C183.008062,64.4059674 184.217448,63.1965813 184.217448,61.7048371" id="Fill-7" fill="#70ADF5"></path>
                            <path d="M181.335882,54.3823969 C179.843778,54.3823969 178.634752,53.1730109 178.634752,51.6812666 L178.634752,31.6327571 C178.634752,21.9763963 170.500388,13.5052914 161.227588,13.5052914 L134.51665,13.5052914 C133.024546,13.5052914 131.81552,12.2962655 131.81552,10.8041611 C131.81552,9.31241689 133.024546,8.10303081 134.51665,8.10303081 L161.227588,8.10303081 C173.591561,8.10303081 184.037012,18.8783799 184.037012,31.6327571 L184.037012,51.6812666 C184.037012,53.1730109 182.827986,54.3823969 181.335882,54.3823969" id="Fill-9" fill="#70ADF5"></path>
                            <path d="M65.8476147,112.012165 C64.3558705,112.012165 63.1464844,110.803139 63.1464844,109.311034 L63.1464844,31.6330092 C63.1464844,21.8704039 51.990456,13.5055436 42.8577543,13.5055436 C33.8871205,13.5055436 22.9295351,21.593448 22.9295351,31.032638 C22.9295351,32.5243822 21.720149,33.7337683 20.2284048,33.7337683 C18.7366606,33.7337683 17.5272745,32.5243822 17.5272745,31.032638 C17.5272745,25.2284491 20.5435367,19.3172955 25.8024573,14.8150515 C30.7844221,10.5494265 37.0006233,8.10328291 42.8577543,8.10328291 C48.6839123,8.10328291 55.1266484,10.6401845 60.0927665,14.8896027 C65.5458084,19.5553552 68.548745,25.5014434 68.548745,31.6330092 L68.548745,109.311034 C68.548745,110.803139 67.3393589,112.012165 65.8476147,112.012165" id="Fill-11" fill="#70ADF5"></path>
                            <path d="M86.7365359,13.4456865 L41.0571809,13.4456865 C39.5650765,13.4456865 38.3560505,12.2363004 38.3560505,10.7445562 C38.3560505,9.25281195 39.5650765,8.04342586 41.0571809,8.04342586 L86.7365359,8.04342586 C88.2282801,8.04342586 89.4376662,9.25281195 89.4376662,10.7445562 C89.4376662,12.2363004 88.2282801,13.4456865 86.7365359,13.4456865" id="Fill-13" fill="#70ADF5"></path>
                            <path d="M161.887744,102.402732 L85.5357934,102.402732 C84.0440492,102.402732 82.8346631,101.193706 82.8346631,99.7016013 C82.8346631,98.2094969 84.0440492,97.000471 85.5357934,97.000471 L161.887744,97.000471 C163.379848,97.000471 164.588874,98.2094969 164.588874,99.7016013 C164.588874,101.193706 163.379848,102.402732 161.887744,102.402732" id="Fill-15" fill="#70ADF5"></path>
                            <path d="M100.482408,16.3267121 L120.770778,16.3267121 L120.770778,5.40226064 L100.482408,5.40226064 L100.482408,16.3267121 Z M123.471908,21.7289727 L97.7809176,21.7289727 C96.2891733,21.7289727 95.0797872,20.5195867 95.0797872,19.0278424 L95.0797872,2.70113032 C95.0797872,1.20938608 96.2891733,0 97.7809176,0 L123.471908,0 C124.964013,0 126.173039,1.20938608 126.173039,2.70113032 L126.173039,19.0278424 C126.173039,20.5195867 124.964013,21.7289727 123.471908,21.7289727 L123.471908,21.7289727 Z" id="Fill-23" fill="#55CA86"></path>
                            <path d="M98.0211381,60.3852089 C96.5293938,60.3852089 95.3200078,59.1758228 95.3200078,57.6840786 L95.3200078,18.0675006 C95.3200078,16.5757563 96.5293938,15.3663702 98.0211381,15.3663702 C99.5132425,15.3663702 100.722268,16.5757563 100.722268,18.0675006 L100.722268,57.6840786 C100.722268,59.1758228 99.5132425,60.3852089 98.0211381,60.3852089" id="Fill-25" fill="#55CA86"></path>
                            <path d="M98.0211381,62.5459331 C93.0233267,62.5459331 88.9572252,66.6120346 88.9572252,71.609846 C88.9572252,76.6076574 93.0233267,80.6737589 98.0211381,80.6737589 C103.018949,80.6737589 107.085051,76.6076574 107.085051,71.609846 C107.085051,66.6120346 103.018949,62.5459331 98.0211381,62.5459331 M98.0211381,86.0760195 C90.0445202,86.0760195 83.5549645,79.5864639 83.5549645,71.609846 C83.5549645,63.6332281 90.0445202,57.1436724 98.0211381,57.1436724 C105.997756,57.1436724 112.487312,63.6332281 112.487312,71.609846 C112.487312,79.5864639 105.997756,86.0760195 98.0211381,86.0760195" id="Fill-26" fill="#55CA86"></path>
                            <path d="M100.722268,71.609846 C100.722268,70.1181017 99.5128823,68.9087156 98.0211381,68.9087156 C96.5293938,68.9087156 95.3200078,70.1181017 95.3200078,71.609846 C95.3200078,73.1015902 96.5293938,74.3109763 98.0211381,74.3109763 C99.5128823,74.3109763 100.722268,73.1015902 100.722268,71.609846" id="Fill-27" fill="#55CA86"></path>
                            <path d="M141.002172,82.5935782 C141.002172,81.101834 139.792786,79.8924479 138.301042,79.8924479 C136.809297,79.8924479 135.599911,81.101834 135.599911,82.5935782 C135.599911,84.0853225 136.809297,85.2947086 138.301042,85.2947086 C139.792786,85.2947086 141.002172,84.0853225 141.002172,82.5935782" id="Fill-28" fill="#70ADF5"></path>
                            <path d="M152.526995,82.5935782 C152.526995,81.101834 151.317609,79.8924479 149.825864,79.8924479 C148.33412,79.8924479 147.124734,81.101834 147.124734,82.5935782 C147.124734,84.0853225 148.33412,85.2947086 149.825864,85.2947086 C151.317609,85.2947086 152.526995,84.0853225 152.526995,82.5935782" id="Fill-29" fill="#70ADF5"></path>
                            <path d="M164.051817,82.5935782 C164.051817,81.101834 162.842431,79.8924479 161.350687,79.8924479 C159.858943,79.8924479 158.649557,81.101834 158.649557,82.5935782 C158.649557,84.0853225 159.858943,85.2947086 161.350687,85.2947086 C162.842431,85.2947086 164.051817,84.0853225 164.051817,82.5935782" id="Fill-30" fill="#70ADF5"></path>
                            <path d="M86.1156001,148.982463 C84.6238558,148.982463 83.4144697,147.773437 83.4144697,146.281333 L83.4144697,111.706865 C83.4144697,110.214761 84.6238558,109.005735 86.1156001,109.005735 C87.6073443,109.005735 88.8167304,110.214761 88.8167304,111.706865 L88.8167304,146.281333 C88.8167304,147.773437 87.6073443,148.982463 86.1156001,148.982463" id="Fill-31" fill="#70ADF5"></path>
                            <path d="M97.6404228,184.397523 C96.1486785,184.397523 94.9392924,183.188497 94.9392924,181.696393 L94.9392924,112.667387 C94.9392924,111.175283 96.1486785,109.966257 97.6404228,109.966257 C99.132167,109.966257 100.341553,111.175283 100.341553,112.667387 L100.341553,181.696393 C100.341553,183.188497 99.132167,184.397523 97.6404228,184.397523" id="Fill-32" fill="#70ADF5"></path>
                            <path d="M86.1156001,184.397523 C84.6238558,184.397523 83.4144697,183.188497 83.4144697,181.696393 L83.4144697,168.010666 C83.4144697,166.518562 84.6238558,165.309536 86.1156001,165.309536 C87.6073443,165.309536 88.8167304,166.518562 88.8167304,168.010666 L88.8167304,181.696393 C88.8167304,183.188497 87.6073443,184.397523 86.1156001,184.397523" id="Fill-33" fill="#70ADF5"></path>
                            <path d="M88.8165503,157.270864 C88.8165503,155.77912 87.6071642,154.569733 86.11542,154.569733 C84.6236758,154.569733 83.4142897,155.77912 83.4142897,157.270864 C83.4142897,158.762608 84.6236758,159.971994 86.11542,159.971994 C87.6071642,159.971994 88.8165503,158.762608 88.8165503,157.270864" id="Fill-34" fill="#70ADF5"></path>
                        </g>
                        <ellipse id="Oval-3" fill="#F1F3F7" cx="29.5035461" cy="303.333333" rx="17.5177305" ry="17.5177305"></ellipse>
                        <circle id="Oval-3-Copy" fill="#F1F3F7" cx="5.9929078" cy="246.631206" r="5.9929078"></circle>
                    </g>
                </g>
            </g>
        </g>
    </g>
</svg>