<?xml version="1.0" encoding="UTF-8"?>
<svg width="104px" height="112px" viewBox="0 0 104 112" version="1.1" xmlns="http://www.w3.org/2000/svg" xmlns:xlink="http://www.w3.org/1999/xlink">
    <!-- Generator: Sketch 43.1 (39012) - http://www.bohemiancoding.com/sketch -->
    <title>icon_2</title>
    <desc>Created with Sketch.</desc>
    <defs>
        <polygon id="path-1" points="103.822278 7.01518336 103.822278 79.8633547 0.000218984207 79.8633547 0.000218984207 7.01518336 103.822278 7.01518336"></polygon>
        <path d="M36.3273316,76.5406407 L42.3709603,76.5406407 C59.1167156,76.5428286 75.8626903,76.5465479 92.608665,76.5447976 C94.5848844,76.5445788 96.3542008,75.9317643 97.8292895,74.6057134 C99.4401924,73.1575809 100.285796,71.3436412 100.40318,69.097384 L39.5930194,69.097384 C39.2950616,71.8103079 38.2765637,74.1898047 36.3273316,76.5406407 M14.2271122,10.452502 L10.4670954,10.452502 C10.4447156,10.8843819 10.4078549,11.2700985 10.407416,11.6560338 C10.4006143,16.4323113 10.4300152,21.2088076 10.3565131,25.9837725 C10.3477367,26.5615815 9.92581266,27.3586123 9.44991392,27.636687 C9.01701941,27.8898203 8.04810802,27.7915862 7.68344979,27.4535646 C7.25691814,27.0582216 7.06230211,26.2373433 7.05440338,25.5976184 C7.00240338,21.3326395 7.02719662,17.0665667 7.02719662,12.8009314 C7.02719662,10.3833662 7.02566076,10.443313 4.60338228,10.3715518 C3.52717975,10.3396093 3.35779578,10.7478606 3.35933165,11.691258 C3.3843443,26.7853977 3.37776203,41.8793186 3.3771038,56.9732396 C3.3771038,57.337734 3.41571983,57.711855 3.34660591,58.0643163 C3.18665654,58.8806001 2.63462278,59.3455165 1.82061435,59.3870855 C1.02371983,59.4273418 0.370538397,59.0952274 0.150909705,58.2677856 C0.0315510549,57.8181841 0.00456371308,57.3331396 0.0043443038,56.8640663 C-0.00179915612,41.0409376 0.000614345991,25.217809 0.00105316456,9.39468042 C0.00127257384,7.55667448 0.52544135,7.01474605 2.313627,7.01518362 C8.8583865,7.01649633 15.403146,7.0182466 21.9479055,7.01977809 C22.1673148,7.01999687 22.3871629,7.01299578 22.6061333,7.02262228 C23.8023527,7.07469292 24.4496101,7.68685107 24.4307409,8.74226598 C24.4127494,9.74451633 23.78107,10.3643319 22.6414582,10.3881794 C21.0364793,10.4214346 19.430184,10.3964932 17.6913654,10.3964932 C17.6654751,10.8487201 17.6244456,11.2318112 17.6244456,11.6149023 C17.6222515,29.9901485 17.6110616,48.3656134 17.630589,66.7408595 C17.6382684,73.9318581 25.2618633,78.7733333 31.7978464,75.7350774 C34.5615257,74.4505954 36.0969519,72.1546742 36.1177958,69.1512049 C36.1436861,65.4638162 37.0445806,65.8453758 39.5004287,65.8455946 C59.975703,65.8484388 80.4511966,65.8471261 100.926251,65.8475637 C101.292007,65.8475637 101.657981,65.8427504 102.023078,65.8589405 C103.149087,65.909042 103.727011,66.4166213 103.795028,67.5247632 C104.281678,75.4611596 98.1739814,79.8784123 92.7677367,79.8633161 C72.9877705,79.8070886 53.2075848,79.8451571 33.4273992,79.8466885 C31.5262177,79.8466885 29.6245975,79.8611283 27.7238549,79.8331239 C20.0234667,79.7197937 14.2415932,73.902541 14.236108,66.2313111 C14.2227241,48.1113862 14.2288675,29.9910236 14.2271122,11.8710986 C14.2268928,11.439875 14.2271122,11.0088701 14.2271122,10.452502" id="path-3"></path>
        <polygon id="path-5" points="3.35247823e-05 111.932396 70.0706139 111.932396 70.0706139 70.0354737 3.35247823e-05 70.0354737"></polygon>
    </defs>
    <g id="Page-1" stroke="none" stroke-width="1" fill="none" fill-rule="evenodd">
        <g id="main" transform="translate(-750.000000, -889.000000)">
            <g id="Group-8" transform="translate(-35.000000, -3.000000)">
                <g id="преимущества" transform="translate(35.000000, 663.000000)">
                    <g id="icon_2" transform="translate(750.000000, 229.000000)">
                        <mask id="mask-2" fill="white">
                            <use xlink:href="#path-1"></use>
                        </mask>
                        <g id="Clip-2"></g>
                        <mask id="mask-4" fill="white">
                            <use xlink:href="#path-3"></use>
                        </mask>
                        <use id="Fill-1" fill="#70ADF5" xlink:href="#path-3"></use>
                        <mask id="mask-6" fill="white">
                            <use xlink:href="#path-5"></use>
                        </mask>
                        <g id="Clip-5"></g>
                        <path d="M35.0072338,111.932396 C24.1497654,111.932396 13.2920776,111.932833 2.43460928,111.931958 C0.536280169,111.931958 0.000482700422,111.418253 0.00026329114,109.55443 C-0.00105316456,97.1600875 0.00355443038,84.766401 0.00728438819,72.3722769 C0.00728438819,72.1176121 -0.000614345991,71.8594468 0.0338329114,71.6080638 C0.174474262,70.5876543 0.859908861,69.9855602 1.79963882,70.0387248 C2.74134346,70.0916706 3.36424641,70.7443038 3.3686346,71.7868104 C3.38640675,75.9423972 3.38311561,80.0979841 3.38311561,84.2535709 C3.3828962,91.9090483 3.39957131,99.5643069 3.35327595,107.219128 C3.34713249,108.268198 3.62534346,108.557868 4.68728439,108.556556 C25.634508,108.525051 46.5817316,108.532271 67.5291747,108.534459 C69.3614616,108.534459 70.0659848,109.00572 70.0705924,110.2005 C70.0752,111.441006 69.3382042,111.932396 67.470373,111.932396 L35.0072338,111.932396 Z" id="Fill-4" fill="#70ADF5"></path>
                        <path d="M10.3979376,65.2593624 C10.3979376,73.0609877 10.4242667,80.8628317 10.3887224,88.6646757 C10.365465,93.7468136 12.4325198,97.8319519 16.2046042,101.118309 C16.5580726,101.426576 17.2020388,101.515402 17.7115072,101.516715 C27.4001823,101.538812 37.0888574,101.5375 46.7775325,101.525248 C47.7650937,101.523935 48.6335156,101.667895 48.9529755,102.752846 C49.3084186,103.960534 48.5009924,104.900431 47.0790008,104.907432 C43.1671527,104.926685 39.2548658,104.919684 35.3430177,104.919247 C29.0911696,104.919247 22.8393215,104.903057 16.5874734,104.929092 C15.675389,104.932593 15.0039966,104.633515 14.3477435,104.017637 C11.320773,101.178256 8.71024135,98.0553305 7.73145654,93.9181216 C7.33191224,92.229764 7.06050295,90.4676762 7.0545789,88.7377496 C7.00214008,72.9520331 7.02100928,57.1663166 7.02035105,41.3806001 C7.02035105,40.9797875 7.00587004,40.5754743 7.05084895,40.1788186 C7.17393755,39.0916799 7.87670549,38.4672699 8.85746498,38.5379372 C9.79587848,38.6055415 10.3757772,39.2450477 10.3887224,40.3229973 C10.4135156,42.3644726 10.4038616,44.4061666 10.4043004,46.4476418 C10.4056169,52.7182153 10.4047392,58.9887889 10.4047392,65.2593624 L10.3979376,65.2593624 Z" id="Fill-7" fill="#70ADF5"></path>
                        <path d="M56.1656608,3.5428817 C55.8997367,3.46871386 55.797492,3.41533052 55.6950278,3.41511174 C50.2135257,3.40745429 44.7318042,3.41204876 39.2500827,3.39104548 C38.5775932,3.38842007 38.4749097,3.71397093 38.4775426,4.27077668 C38.4915848,7.18607595 38.5032135,10.101594 38.4703021,13.0164557 C38.4617451,13.7620722 38.6813738,14.0506485 39.4611544,14.0318331 C41.2872979,13.9878575 43.115416,14.0206751 44.9426565,14.0206751 C48.3413063,14.0211127 51.7399561,14.024832 55.1386059,14.0141116 C55.5765468,14.0127989 56.1647831,14.181919 56.1652219,13.4113612 C56.1665384,10.1365995 56.1656608,6.861619 56.1656608,3.5428817 M35.1036861,3.40767307 C33.9930363,3.40767307 33.0462852,3.35647757 32.1122599,3.4433349 C31.8761755,3.4654321 31.5082262,3.92072199 31.4963781,4.18982654 C31.4338464,5.60820441 31.4794835,7.03095796 31.461492,8.45196124 C31.4459139,9.66883888 30.8646987,10.3466323 29.8468591,10.3910455 C28.8147578,10.436115 28.1220827,9.71784654 28.1021165,8.45568058 C28.0678886,6.30634474 28.0639392,4.15547742 28.099703,2.00614158 C28.1240574,0.554289733 28.739281,0.00404750742 30.2330194,0.00317237068 C39.2959392,-0.000984528832 48.3588591,-0.000984528832 57.4219983,0.00317237068 C58.9730025,0.00382872324 59.546319,0.570698547 59.5485131,2.09934365 C59.5546565,6.47218315 59.5557536,10.8448039 59.5498295,15.2176434 C59.547416,16.8515237 59.0135932,17.4008908 57.4002768,17.4024223 C50.6760405,17.4081106 43.9520236,17.405704 37.2277873,17.3960775 C35.6844624,17.3938897 35.1267241,16.8403657 35.1177283,15.269714 C35.097762,11.7350367 35.1065384,8.20035943 35.1036861,4.66568214 C35.1034667,4.30600094 35.1036861,3.94653852 35.1036861,3.40767307" id="Fill-9" fill="#70ADF5"></path>
                        <path d="M78.2319376,101.53459 C78.0019966,101.161125 77.9271781,101.002069 77.8192287,100.869705 C74.9267561,97.3212439 73.7290008,93.2059134 73.7211021,88.6939272 C73.7175916,86.6533271 73.6884101,84.6118519 73.7544523,82.5736584 C73.7717857,82.033699 73.9464354,81.2935521 74.3220641,81.02401 C74.7698785,80.702616 75.6196506,80.5509986 76.0957688,80.7658447 C76.5596,80.9747836 77.0260641,81.7278387 77.0504186,82.2618909 C77.1568321,84.5890983 77.0853046,86.9239631 77.1098785,89.2553274 C77.1541992,93.4579528 78.6501316,97.0661416 81.6233468,100.056046 C82.2664354,100.702554 82.9189586,101.340528 83.5574397,101.991849 C84.0890684,102.533996 84.2630599,103.147248 83.9657603,103.88827 C83.6599038,104.650514 83.0600388,104.906492 82.3175578,104.907804 C75.448292,104.916337 68.5790262,104.923557 61.7097603,104.909555 C60.5482076,104.906929 59.8564101,104.202663 59.876157,103.178534 C59.8956844,102.159 60.577389,101.543122 61.7898447,101.540059 C66.7590262,101.52737 71.7282076,101.53459 76.6976084,101.53459 L78.2319376,101.53459 Z" id="Fill-11" fill="#70ADF5"></path>
                        <path d="M79.1134363,10.5756993 L74.852508,10.5756993 C71.8207105,10.5756993 68.7886937,10.5763557 65.7566768,10.5746054 C65.4282211,10.5743866 65.0962549,10.5879512 64.7719679,10.547695 C63.7589553,10.421894 63.1704996,9.73206751 63.2328118,8.7748867 C63.2931494,7.84330364 63.8796304,7.23749023 64.8801367,7.23355212 C70.2133181,7.21189248 75.546719,7.20642288 80.8799004,7.22764494 C82.0131494,7.23202063 82.5586008,7.90171902 82.5662802,9.19735896 C82.5831747,12.0384904 82.5706684,14.8798406 82.5702295,17.720972 C82.5695713,22.5655102 82.5671578,27.4102672 82.5700101,32.2548054 C82.5706684,33.1953586 82.3839511,34.0273949 81.3097232,34.2722144 C80.0108203,34.5682294 79.1904489,33.8447101 79.1838667,32.3784185 C79.167411,28.6630255 79.1753097,24.9476324 79.1750903,21.2322394 C79.1746515,18.0631505 79.178162,14.8940616 79.1750903,11.7249727 C79.1746515,11.4033599 79.1417401,11.0817471 79.1134363,10.5756993" id="Fill-13" fill="#70ADF5"></path>
                        <path d="M42.1466143,87.4110424 C35.9695848,87.4110424 29.7925553,87.4119175 23.6155257,87.4084169 C23.2517451,87.4079794 22.8756776,87.4226379 22.5270363,87.3397187 C21.7112726,87.1456571 21.290665,86.5654415 21.2735511,85.75594 C21.2564371,84.9464385 21.6441333,84.3406251 22.4616523,84.1301547 C22.8423274,84.0321394 23.2559139,84.0356399 23.6548,84.0352024 C36.0088591,84.0288576 48.3629181,84.0275449 60.7169772,84.0255759 C60.8997451,84.0253571 61.0829519,84.0198875 61.265281,84.0306079 C62.4327578,84.0997437 63.090108,84.7510642 63.0552219,85.7988217 C63.02253,86.7794124 62.3605722,87.3990092 61.2260068,87.4075418 C58.3752219,87.4294202 55.5242177,87.416512 52.6732135,87.4169495 C49.1644203,87.4173871 45.6554076,87.4169495 42.1466143,87.4169495 L42.1466143,87.4110424 Z" id="Fill-15" fill="#55CA86"></path>
                        <path d="M48.6173671,38.7246257 C54.9424979,38.7246257 61.2676287,38.7198125 67.5927595,38.7287826 C68.8440506,38.7305329 69.5108354,39.291058 69.5571308,40.3033724 C69.6056203,41.3583497 68.9030717,42.0175465 67.6489283,42.0847132 C67.3937553,42.0984966 67.1372658,42.0844945 66.8812152,42.0847132 C62.8960844,42.084932 58.9109536,42.0862447 54.9256034,42.0855884 C46.6628692,42.0842757 38.3999156,42.0823066 30.136962,42.0792436 C29.8815696,42.0792436 29.6226667,42.0851508 29.3710042,42.0497078 C28.330346,41.9037787 27.7719494,41.268867 27.8048608,40.2911205 C27.8375527,39.3173121 28.4334684,38.7403782 29.53227,38.7346898 C33.3346329,38.7145617 37.1369958,38.7224379 40.9393586,38.7209064 C43.4987679,38.7200313 46.0579578,38.7206876 48.6173671,38.7206876 L48.6173671,38.7246257 Z" id="Fill-17" fill="#55CA86"></path>
                        <path d="M48.6970785,31.7253477 C54.9792051,31.7253477 61.2617705,31.729067 67.5441165,31.7207532 C68.3642684,31.7196593 69.0843696,31.8513674 69.4126059,32.7238787 C69.8867494,33.9851696 69.1576523,35.0263635 67.6882684,35.0622441 C65.5711882,35.1138772 63.4519139,35.0878419 61.3332979,35.0880606 C51.1430532,35.0893733 40.952589,35.0891546 30.7621249,35.0871855 C30.287762,35.0869667 29.8085722,35.1014065 29.3399139,35.0429911 C28.2700743,34.9095327 27.7474414,34.2960619 27.7963696,33.2962182 C27.8442008,32.3178153 28.4361671,31.7360681 29.5215848,31.7275356 C32.5529435,31.7043444 35.5845215,31.7174715 38.6160996,31.7168151 C41.9765722,31.7163776 45.3368253,31.7168151 48.6970785,31.7168151 L48.6970785,31.7253477 Z" id="Fill-19" fill="#55CA86"></path>
                        <path d="M48.6181131,45.7260259 C54.9432439,45.7260259 61.2685941,45.7231817 67.5937249,45.7284326 C68.848746,45.7293077 69.4850329,46.2637975 69.5315477,47.3108986 C69.5813536,48.4288858 68.9033789,49.0563588 67.5265857,49.0729864 C65.2234464,49.100772 62.9198684,49.0900516 60.6165097,49.0902704 C50.4521553,49.0909267 40.2880203,49.0900516 30.1236658,49.0885201 C28.6683241,49.0883013 27.9433958,48.6198844 27.8108726,47.604507 C27.659919,46.4508579 28.3389907,45.7325895 29.6422819,45.7290889 C33.9931679,45.7174934 38.344054,45.7227442 42.6949401,45.721869 C44.6694042,45.7214315 46.6436489,45.721869 48.6181131,45.721869 L48.6181131,45.7260259 Z" id="Fill-21" fill="#55CA86"></path>
                        <path d="M52.2503679,24.7158087 C57.332984,24.7158087 62.4156,24.7134021 67.498216,24.7177778 C68.7942667,24.7188717 69.4235325,25.189914 69.5382835,26.2109798 C69.6631274,27.3219659 68.9553131,28.054893 67.6417097,28.0693327 C65.0094565,28.098431 62.3765451,28.0866167 59.7438532,28.0870542 C52.3576591,28.0885857 44.971465,28.0885857 37.5852709,28.085304 C37.14733,28.0850852 36.703465,28.0920863 36.2727646,28.0268886 C35.2656759,27.8746148 34.743043,27.2552368 34.8235662,26.3127145 C34.9076,25.3321238 35.4804776,24.7626285 36.4544354,24.7346242 C38.0620473,24.6882419 39.6718532,24.7164651 41.2807814,24.7160275 C44.9372371,24.7151524 48.5939122,24.7158087 52.2503679,24.7158087" id="Fill-23" fill="#55CA86"></path>
                        <path d="M36.1337468,94.418131 C32.0814768,94.418131 28.0292068,94.4194437 23.9771561,94.4163807 C23.539654,94.4163807 23.0911814,94.450511 22.6668439,94.3697797 C21.7600253,94.1967214 21.250557,93.6020659 21.2683291,92.6836099 C21.2861013,91.7631849 21.827384,91.2129426 22.7350802,91.0516987 C22.9834515,91.0077231 23.2445485,91.0296015 23.4999409,91.0296015 C31.9693586,91.0282888 40.4389958,91.0313518 48.9084135,91.0234755 C49.7502869,91.0226004 50.541038,91.103113 50.9506751,91.9666542 C51.5571224,93.2456665 50.7231477,94.4015034 49.1664388,94.406973 C44.8223544,94.4211939 40.4780506,94.4117862 36.1337468,94.4117862 L36.1337468,94.418131 Z" id="Fill-25" fill="#55CA86"></path>
                        <path d="M42.7218177,52.7278856 C46.9943747,52.7281044 51.2669316,52.7250414 55.5392692,52.7300734 C56.9685013,52.7316049 57.5903072,53.2514362 57.5856996,54.4070542 C57.5813114,55.498131 56.9566532,56.0715643 55.6096996,56.0737521 C46.9917418,56.0877543 38.373784,56.0831599 29.7558262,56.0761588 C28.8461553,56.0752836 28.0804169,55.7731427 27.8399443,54.7890514 C27.5461553,53.5879262 28.300265,52.7372933 29.6851764,52.7326989 C34.0307966,52.7186967 38.3764169,52.7276668 42.7218177,52.7278856" id="Fill-27" fill="#55CA86"></path>
                        <path d="M79.1768675,53.098681 C79.1755511,51.2066354 79.1645806,49.314371 79.1795004,47.4225441 C79.1900321,46.0645507 79.8138127,45.3419065 80.9025215,45.37188 C81.9052219,45.3996656 82.5575257,46.1691296 82.5614751,47.4089795 C82.573762,51.2659259 82.5755173,55.1228723 82.5619139,58.9798187 C82.5570869,60.2719581 81.9528338,60.9425316 80.8748759,60.9451571 C79.7844118,60.9480013 79.1931038,60.2890233 79.1821333,58.9929458 C79.165897,57.0284826 79.178184,55.063363 79.1768675,53.098681" id="Fill-29" fill="#70ADF5"></path>
                        <path d="M80.6902211,38.5309361 C81.6358751,38.5217471 82.3524658,39.2155118 82.365411,40.1525645 C82.3790143,41.1600656 81.6490397,41.9223097 80.691757,41.8999937 C79.8020523,41.8792093 79.0310481,41.0963994 79.0253435,40.2085732 C79.0198582,39.3203094 79.794373,38.5399062 80.6902211,38.5309361" id="Fill-31" fill="#70ADF5"></path>
                        <path d="M8.70427342,31.5316581 C9.5759865,31.526626 10.3860456,32.3251883 10.3967966,33.2001063 C10.4073283,34.0695546 9.60077975,34.8967776 8.74003713,34.8996218 C7.87731983,34.9022472 7.03807932,34.0818065 7.03391055,33.2316112 C7.02952236,32.3689451 7.84748017,31.5364713 8.70427342,31.5316581" id="Fill-33" fill="#70ADF5"></path>
                        <path d="M1.75441857,66.3979372 C0.916494515,66.4298797 0.0592624473,65.6232224 0.0250345992,64.7708392 C-0.00897383966,63.9300516 0.790992405,63.0783247 1.65107679,63.0391624 C2.51138059,63.0004376 3.36422447,63.8053446 3.3648827,64.657509 C3.36532152,65.5540866 2.61450295,66.3655571 1.75441857,66.3979372" id="Fill-35" fill="#70ADF5"></path>
                        <path d="M56.0227595,103.173327 C56.016616,104.069467 55.2293755,104.907848 54.4008861,104.900628 C53.4666414,104.892314 52.641443,104.050214 52.6820338,103.146417 C52.721308,102.278937 53.3797553,101.732414 54.3813586,101.736353 C55.4351814,101.740072 56.0291224,102.260122 56.0227595,103.173327" id="Fill-37" fill="#70ADF5"></path>
                    </g>
                </g>
            </g>
        </g>
    </g>
</svg>