<?xml version="1.0" encoding="UTF-8"?>
<svg width="100px" height="121px" viewBox="0 0 100 121" version="1.1" xmlns="http://www.w3.org/2000/svg" xmlns:xlink="http://www.w3.org/1999/xlink">
    <!-- Generator: Sketch 43.1 (39012) - http://www.bohemiancoding.com/sketch -->
    <title>icon_1</title>
    <desc>Created with Sketch.</desc>
    <defs>
        <polygon id="path-1" points="0 119.908948 0 64.0865147 26.5403431 64.0865147 26.5403431 119.908948 2.89205217e-17 119.908948"></polygon>
    </defs>
    <g id="Page-1" stroke="none" stroke-width="1" fill="none" fill-rule="evenodd">
        <g id="main" transform="translate(-359.000000, -884.000000)">
            <g id="Group-8" transform="translate(-35.000000, -3.000000)">
                <g id="преимущества" transform="translate(35.000000, 663.000000)">
                    <g id="icon_1" transform="translate(359.000000, 224.000000)">
                        <path d="M64.4017799,59.5127869 C62.4444028,59.5825761 60.4713349,58.7378454 58.5437002,57.7778923 C56.275082,56.6481499 54.0195785,55.4896019 51.7830445,54.2973302 C50.5743794,53.6530679 49.4376112,53.6561124 48.2282436,54.2924122 C45.9162998,55.5090398 43.5797658,56.6790632 41.2481499,57.8577518 C39.2034192,58.8914754 37.075082,59.5647775 34.7390164,59.4607963 C31.9355035,59.3362061 29.4668852,57.4682904 28.6429977,54.7764871 C28.3259016,53.7406557 28.7001405,52.8652459 29.6340984,52.4575176 C30.5605621,52.0528337 31.5682904,52.3579859 31.9364403,53.4055269 C32.7947541,55.8465105 34.8725059,56.384918 37.0933489,55.5085714 C40.2404215,54.2664169 43.2474473,52.6736768 46.3451054,51.3001405 C47.327541,50.8645433 48.3996721,50.4340984 49.445808,50.3942857 C50.5652459,50.3516628 51.7961593,50.5673536 52.8134895,51.0315222 C55.4359719,52.2284778 57.9483841,53.6640749 60.544637,54.9219204 C61.5842155,55.4256674 62.7013115,55.8549415 63.8305855,56.0685246 C66.0511944,56.4888993 67.5177049,55.3835129 68.0085714,53.1858548 C68.5223888,50.886089 67.7926464,48.6963934 67.4572834,46.4760187 C67.1725059,44.5896019 66.7254333,42.727541 66.4493208,40.8401874 C66.1357377,38.6959251 66.798267,36.8317564 68.3547073,35.310445 C70.3078689,33.4010773 72.3059953,31.5364403 74.2155972,29.5846838 C75.0530679,28.7287119 75.8469789,27.7776581 76.4376112,26.7425293 C77.7586885,24.4268384 77.0961593,22.3078689 74.6148946,21.3022482 C73.08726,20.6830445 71.3952225,20.4296487 69.7544731,20.1376112 C67.492178,19.7345667 65.2038876,19.4809368 62.9359719,19.1059953 C60.7036534,18.7369087 59.1078689,17.5256674 58.1399532,15.4343326 C56.9771897,12.9223888 55.7729742,10.42637 54.4837471,7.97789227 C53.9284778,6.92332553 53.2310539,5.88913349 52.3935831,5.04955504 C50.8247307,3.4771897 48.8809368,3.5123185 47.320281,5.10271663 C46.5973302,5.83995316 46.003185,6.74978923 45.5237939,7.67133489 C44.3722717,9.88421546 43.1884309,12.0968618 42.2645433,14.408103 C40.9622014,17.6659485 38.6291803,19.1490867 35.2062295,19.42637 C32.6898361,19.6301171 30.1846838,20.0966276 27.708103,20.6078689 C26.5903044,20.838548 25.4767213,21.3376112 24.4977986,21.9376112 C22.8685246,22.9364403 22.4052927,24.4907728 23.2767213,26.1914754 C23.8711007,27.351897 24.6785948,28.4516628 25.5825761,29.3947541 C27.5523653,31.449555 29.6497892,33.3818735 31.6851522,35.3741452 C33.1144262,36.7729742 33.7017799,38.4935831 33.5439344,40.4718033 C33.4577518,41.555644 32.7565808,42.2900703 31.8069321,42.3401874 C30.9162998,42.3874941 29.9429977,41.6404215 29.9408899,40.6071663 C29.9376112,38.938548 29.0682904,37.8673536 27.9359719,36.8315222 C26.3818735,35.4099766 24.8125527,33.9879625 23.4113817,32.4219204 C22.1486183,31.0106792 20.8680562,29.52637 20.0099766,27.8607963 C18.0504918,24.0561124 19.368993,20.1247307 23.2790632,18.3715691 C25.2652459,17.4809368 27.5233255,17.1521311 29.6879625,16.716534 C31.786089,16.2942857 33.9244965,16.0736768 36.0408899,15.7378454 C37.1123185,15.567822 37.868993,14.9771897 38.3481499,13.9736768 C39.5411241,11.4755504 40.6509602,8.92496487 42.0364403,6.5357377 C42.9985012,4.87672131 44.1633724,3.22449649 45.5898361,1.96946136 C48.2437002,-0.366135831 51.7179391,-0.34529274 54.3184075,2.03784543 C55.8066979,3.40154567 57.0109133,5.15751756 58.045808,6.9123185 C59.3291803,9.08843091 60.3223888,11.437377 61.4052927,13.7287119 C61.9137237,14.8045902 62.6540047,15.4048244 63.8809368,15.5776581 C67.1586885,16.0392506 70.4537705,16.4589227 73.684918,17.1589227 C80.6675878,18.6715691 82.7856206,24.5144262 78.3036534,30.0769555 C76.1331616,32.7711007 73.5893677,35.1706323 71.1493208,37.6390164 C70.2008431,38.5985012 69.9116159,39.5687588 70.1579859,40.9010773 C70.7593911,44.1547073 71.3378454,47.4212178 71.6900703,50.7078689 C71.8387822,52.0954567 71.6071663,53.6144262 71.1771897,54.9544731 C70.2399532,57.8757845 67.7254333,59.521452 64.4017799,59.5127869" id="Fill-1" fill="#55CA86"></path>
                        <path d="M49.1660422,115.362342 C50.0311475,113.709649 50.8320843,112.200281 51.6159251,110.681311 C55.782904,102.605667 59.9449649,94.5276815 64.1105386,86.4511007 C64.828103,85.0595316 65.6395785,84.6532084 66.6473068,85.1688993 C67.7461358,85.7316628 68.0320843,86.8836534 67.3505855,88.2009836 C62.1189696,98.3166745 56.8843091,108.431194 51.636534,118.538689 C50.6892272,120.36281 49.6892272,120.555316 48.0969555,119.273583 C39.6468384,112.472881 31.2023419,105.665386 22.7515222,98.8656206 C20.929274,97.3991101 20.0187354,95.5087119 20.0128806,93.1749883 C20.0117096,92.7066042 19.9948478,92.2382201 20.0046838,91.7703044 C20.0370023,90.2632787 19.3903981,89.1808431 18.081733,88.4148009 C14.1793911,86.1309602 13.1330211,82.8384543 14.9515222,78.6717096 C15.7625293,76.8133958 16.5866511,74.9604684 17.4213115,73.1129274 C17.9594848,71.9215925 18.8348946,71.4878689 19.8161593,71.8888056 C20.8503513,72.3112881 21.163466,73.278267 20.6201405,74.5440749 C19.7744731,76.5148009 18.901171,78.4738173 18.0299766,80.4335363 C17.0861827,82.5567213 17.5936768,84.1808431 19.6168618,85.2431382 C22.1566745,86.5763934 23.4854801,88.7412646 23.3545667,91.5089461 C23.236534,93.9977049 24.2388759,95.5487588 26.1168618,97.0180796 C33.3067916,102.644075 40.3995316,108.394192 47.5302108,114.0963 C48.0145199,114.483653 48.5107728,114.856019 49.1660422,115.362342" id="Fill-4" fill="#70ADF5"></path>
                        <path d="M29.8373068,73.6148712 C29.5506557,70.8713115 30.2059251,68.4537471 32.2588525,66.4797424 C34.9511241,63.8909836 39.7829742,63.8258782 41.9532319,65.7867681 C42.785082,66.5382904 43.818103,67.0628806 44.7295785,67.7314988 C45.7094379,68.4502342 45.8890632,69.3396956 45.3040515,70.2675644 C44.7478454,71.1497658 43.7829742,71.3563232 42.7555738,70.7354801 C41.7883607,70.151171 40.8764169,69.4762295 39.9202108,68.8729508 C37.1750117,67.1411007 33.6775878,68.9558548 33.518103,72.2038642 C33.4665808,73.2544496 33.4593208,74.3127635 33.5211475,75.3624122 C33.6155269,76.9640515 34.4042857,78.1870023 35.8300468,78.9162763 C37.2654098,79.65 38.6836768,79.5343091 40.0279391,78.607377 C46.2572131,74.3125293 52.5003044,70.037822 58.7178689,65.7258782 C63.3590867,62.5076112 70.1991335,65.5741218 70.6909368,71.202459 C70.8553396,73.0855972 70.8857845,75.0703747 70.4766511,76.8966042 C69.3506557,81.9214286 63.5501874,84.3282201 59.0740749,81.7898126 C57.9209133,81.1359485 56.7796956,80.4603044 55.6452693,79.7752927 C54.4705621,79.0656909 54.120445,78.1139344 54.6487822,77.151171 C55.225363,76.0998829 56.2209133,75.8802108 57.4576815,76.5614754 C58.5504215,77.1633489 59.6148244,77.8179157 60.714356,78.4066745 C63.6307494,79.9687354 66.8604918,78.1516393 67.0396487,74.8429742 C67.0923419,73.8706089 67.0930445,72.890281 67.0349649,71.9183841 C66.9373068,70.2778689 66.1703279,68.9973068 64.6874239,68.2626464 C63.2031148,67.5277518 61.759555,67.7055035 60.3836768,68.6565574 C54.159555,72.9588993 47.9152927,77.231733 41.6970258,81.54274 C37.2031148,84.6584309 30.3682201,81.5247073 29.8480796,76.0692037 C29.7707963,75.2584309 29.8373068,74.4336066 29.8373068,73.6148712" id="Fill-7" fill="#70ADF5"></path>
                        <mask id="mask-2" fill="white">
                            <use xlink:href="#path-1"></use>
                        </mask>
                        <g id="Clip-10"></g>
                        <path d="M3.31185012,78.9486885 C3.46992974,79.4934192 3.66173302,80.2475176 3.90669789,80.9835831 C7.86758782,92.8908431 11.8350351,104.795761 15.8010773,116.701148 C15.8502576,116.848923 15.9022482,116.99623 15.9493208,117.144473 C16.3778923,118.491546 16.0558782,119.495995 15.0952225,119.812389 C14.0219204,120.16555 12.9821077,119.532061 12.5453396,118.205129 C9.9624356,110.35548 7.38960187,102.502787 4.81512881,94.6505621 C3.37016393,90.2428337 1.91793911,85.8372131 0.487962529,81.4245667 C-0.897985948,77.1472834 0.70763466,73.5428337 4.79639344,71.7166042 C10.1376112,69.3311241 15.4814052,66.951733 20.8254333,64.5723419 C22.7622014,63.710281 23.4212178,63.9306557 24.414192,65.7580562 C25.0102108,66.8547775 25.6221546,67.9435363 26.1954567,69.0522014 C26.7966276,70.2144965 26.5926464,71.352904 25.7333958,71.8643794 C24.7942857,72.4229274 23.6994379,72.0372131 22.9952225,70.8723419 C22.5919438,70.2048946 22.2877283,69.4671897 21.814192,68.857822 C21.6146604,68.6009133 21.0013115,68.3854567 20.732459,68.504192 C15.5975644,70.7774941 10.4804684,73.0906089 5.37367681,75.4271429 C3.9947541,76.057822 3.40459016,77.2484543 3.31185012,78.9486885" id="Fill-9" fill="#70ADF5"></path>
                        <path d="M85.1936534,81.934637 C84.9917799,84.9522014 84.0109836,87.0690632 81.6472834,88.3240984 C80.0618033,89.1660187 79.2667213,90.4055972 79.4084075,92.2016159 C79.6463466,95.2240984 78.4269087,97.4838173 76.0833489,99.3819438 C71.3875644,103.184754 66.8201171,107.145878 62.1571194,110.989906 C61.6458782,111.411686 60.811452,111.760632 60.2095785,111.65829 C59.6552459,111.563208 58.8971663,110.869297 58.8055972,110.339087 C58.7046604,109.754075 59.0880328,108.867658 59.5582904,108.438618 C61.6885012,106.495059 63.9219906,104.664614 66.1215222,102.7974 C68.9751522,100.375386 71.8721077,98.0018501 74.6552459,95.5013817 C75.246815,94.9697658 75.5756206,94.0147307 75.7596956,93.1945902 C75.9697658,92.2601639 75.8215222,91.2514988 75.9369789,90.2877986 C76.2105152,87.999274 77.3732787,86.3051288 79.4435363,85.2344028 C81.3952927,84.2243326 81.9470492,82.4798361 80.939555,80.5381499 C80.2217564,79.1550117 79.4496253,77.799274 78.7255035,76.4187119 C78.1538407,75.3294848 78.3910773,74.3643794 79.3283138,73.7959953 C80.2505621,73.2365105 81.2784309,73.5135597 81.9006792,74.5974005 C82.8123888,76.1852225 83.7222248,77.7819438 84.494356,79.439555 C84.9116862,80.3355738 85.0416628,81.3655504 85.1936534,81.934637" id="Fill-12" fill="#70ADF5"></path>
                        <path d="M99.8740984,78.8123653 C99.701733,79.5664637 99.5829977,80.3376581 99.3476347,81.0713817 C98.1708197,84.7418735 96.9637939,88.4029977 95.7656674,92.0669321 C95.6930679,92.2889461 95.6230445,92.5144731 95.5225761,92.7243091 C95.060281,93.6917564 93.9654333,94.252178 93.1317096,93.9585012 C92.2513817,93.6484309 91.8317096,92.6421077 92.2026698,91.4912881 C93.3851054,87.8226698 94.6010304,84.1648244 95.8066511,80.5037002 C96.7656674,77.5915222 95.9708197,75.7889461 93.1701171,74.604637 C88.6499766,72.6933958 84.1176581,70.8109602 79.6068852,68.8779391 C78.9197658,68.5833255 78.5485714,68.6777049 78.2125059,69.3343794 C77.8584075,70.0266511 77.4422482,70.6910539 77.0103981,71.338829 C76.3387354,72.34726 75.3982201,72.616815 74.5071194,72.1018267 C73.5354567,71.54 73.2581733,70.5533489 73.8506792,69.4873068 C74.5698829,68.1931616 75.3284309,66.9198595 76.1099297,65.6624824 C76.7052459,64.7041686 77.6026698,64.3959719 78.6373302,64.8348478 C84.3389696,67.2528806 90.0530211,69.6437471 95.7111007,72.1608431 C98.218829,73.2762998 99.7855738,76.0659953 99.8740984,78.8123653" id="Fill-14" fill="#70ADF5"></path>
                        <path d="M45.4578454,104.018665 C45.0887588,104.498056 44.7981265,105.243489 44.3070258,105.415152 C43.7468384,105.610468 42.9613583,105.406487 42.3641686,105.158478 C42.0002342,105.00719 41.7688525,104.466909 41.5423888,104.065269 C38.5981265,98.840445 35.6655738,93.6090632 32.7302108,88.3793208 C32.6540984,88.2434895 32.5772834,88.1074239 32.5096019,87.967377 C31.9484778,86.8060187 32.1976581,85.6666745 33.111007,85.2060187 C34.0566745,84.7292037 35.135363,85.1235831 35.7559719,86.2196019 C37.3676815,89.0662061 38.9629977,91.922178 40.5618267,94.7762763 C41.9702576,97.2903279 43.3836066,99.8018033 44.7725995,102.326628 C45.0283372,102.791967 45.1775176,103.315621 45.4578454,104.018665" id="Fill-17" fill="#70ADF5"></path>
                        <path d="M34.5074239,29.2085948 C33.4542623,28.9769789 32.6249883,28.2474707 32.5751054,27.2891569 C32.5184309,26.2069555 33.1535597,25.614918 34.1268618,25.4114052 C35.1912646,25.1889227 36.2741686,25.0446604 37.3549649,24.9146838 C40.6664403,24.5165574 43.2753396,22.9029742 45.3544965,20.352623 C45.4280328,20.2619906 45.4924356,20.1633958 45.5690164,20.0755738 C46.3217096,19.2158548 47.3872834,19.040445 48.1610539,19.6472365 C48.9043794,20.2301405 49.0329508,21.3907963 48.3732319,22.2760422 C46.6366979,24.6060187 44.4615222,26.479555 41.7242857,27.4277986 C39.3926698,28.2352927 36.9184309,28.6308431 34.5074239,29.2085948" id="Fill-19" fill="#55CA86"></path>
                        <path d="M90.4252225,107.924918 C90.3259251,108.280422 90.2458314,108.620234 90.1362295,108.950913 C89.1423185,111.943653 88.1448946,114.935691 87.1437237,117.926089 C87.0451288,118.220703 86.9472365,118.523044 86.7936066,118.789321 C86.2793208,119.680187 85.1603513,120.15911 84.4095316,119.757939 C83.4814286,119.261218 83.2338876,118.405948 83.5432553,117.455363 C84.6156206,114.160281 85.7139813,110.873396 86.8406792,107.597049 C87.1699532,106.640141 87.90274,106.164731 88.9427869,106.332646 C89.8352927,106.476674 90.2369321,107.102904 90.4252225,107.924918" id="Fill-21" fill="#70ADF5"></path>
                        <path d="M51.8578689,15.6717799 C50.7623185,15.6668618 49.972623,14.9080796 49.9967447,13.8827869 C50.0171194,13.0043326 50.8602108,12.0741218 51.6499063,12.0586651 C52.6937002,12.0382904 53.68363,12.9223653 53.6967447,13.886534 C53.7110304,14.9795082 52.9932319,15.6766979 51.8578689,15.6717799" id="Fill-23" fill="#55CA86"></path>
                        <path d="M92.7289461,100.455012 C92.7256674,101.447049 91.9643091,102.248923 90.9975644,102.279133 C90.0195785,102.309813 89.110445,101.420117 89.1289461,100.450328 C89.1467447,99.5250351 90.0247307,98.6692974 90.9432319,98.682178 C91.9113817,98.6952927 92.7322248,99.5105152 92.7289461,100.455012" id="Fill-25" fill="#70ADF5"></path>
                        <path d="M31.0591569,45.2845902 C31.9776581,45.341733 32.8326932,46.2799063 32.77274,47.164918 C32.7111475,48.078267 31.7818735,48.925808 30.8891335,48.8834192 C29.9821077,48.8403279 29.1027166,47.8735831 29.1809368,47.0054333 C29.2668852,46.0532084 30.1661827,45.2290867 31.0591569,45.2845902" id="Fill-27" fill="#55CA86"></path>
                    </g>
                </g>
            </g>
        </g>
    </g>
</svg>