<?xml version="1.0" encoding="UTF-8"?>
<svg width="104px" height="104px" viewBox="0 0 104 104" version="1.1" xmlns="http://www.w3.org/2000/svg" xmlns:xlink="http://www.w3.org/1999/xlink">
    <!-- Generator: Sketch 43.1 (39012) - http://www.bohemiancoding.com/sketch -->
    <title>icon_3</title>
    <desc>Created with Sketch.</desc>
    <defs></defs>
    <g id="Page-1" stroke="none" stroke-width="1" fill="none" fill-rule="evenodd">
        <g id="main" transform="translate(-1140.000000, -893.000000)">
            <g id="Group-8" transform="translate(-35.000000, -3.000000)">
                <g id="преимущества" transform="translate(35.000000, 663.000000)">
                    <g id="icon_3" transform="translate(1140.000000, 233.000000)">
                        <path d="M93.6374481,45.5100947 L93.6374481,44.3013746 C93.6372446,30.9757386 93.6270685,17.6503061 93.6575969,4.32487358 C93.6598356,3.34877965 93.3964775,3.07382074 92.4124462,3.07585597 C76.7815108,3.10882661 61.1503718,3.1014998 45.5192329,3.10679139 C43.0608845,3.10760548 42.151953,4.01022779 42.1501213,6.48953894 C42.1397417,19.3059616 42.1385205,32.1223843 42.1385205,44.938807 C42.1385205,45.2925292 42.1889941,45.6460477 42.201409,45.8100869 C43.7673112,45.7042552 45.2023483,45.5247483 46.637589,45.5227131 C61.5568063,45.5021573 76.476227,45.5100947 91.3952407,45.5100947 L93.6374481,45.5100947 Z M90.2707789,48.6539068 L90.2707789,50.0040751 C90.2713894,54.5151515 90.2756634,59.0264313 90.2699648,63.5377112 C90.2683366,64.8445292 89.5425753,65.5499382 88.4152642,65.3423452 C87.4206497,65.159175 87.1408063,64.426901 87.1363288,63.5377112 C87.1269667,61.7402004 87.1369393,59.9424861 87.1373464,58.1447718 C87.1377534,55.2276838 87.1139413,52.3101886 87.1526106,49.3939147 C87.1631937,48.5851162 86.9714755,48.2765761 86.0859491,48.2784078 C72.7220509,48.3032376 59.3581526,48.2922474 45.9942544,48.2904157 C45.6551859,48.2902121 45.3157104,48.2908227 44.9768454,48.3036446 C43.264407,48.3687718 42.1602975,49.4382826 42.1769863,51.0102904 C42.1938787,52.6052963 43.2853699,53.6373589 45.0267084,53.6414294 C49.911045,53.6532337 54.7953816,53.6440751 59.6797182,53.6442787 C62.9358748,53.6442787 66.1922348,53.6347131 69.4483914,53.6501808 C72.6339256,53.6656485 75.1867084,55.8584 75.4284932,58.7561534 C75.7083366,62.1091867 73.6651742,64.5111593 70.3021683,65.2017112 C67.0380744,65.8719108 63.7731663,65.5143217 60.5161957,65.5263295 C43.7264031,65.5877933 26.9362035,65.5519734 10.146411,65.5501417 C9.78291977,65.5499382 9.41942857,65.5501417 8.89169472,65.5501417 C9.1212681,65.0053119 9.27594521,64.608036 9.45362035,64.2215468 C12.7970881,56.9545722 16.1307867,49.6829166 19.5060039,42.4305957 C19.8996164,41.5849597 19.9065362,40.8978677 19.511499,40.0491789 C16.1220352,32.7663295 12.7753112,25.4639421 9.41800391,18.1662356 C9.26515851,17.8336798 9.13551468,17.4905409 8.95702544,17.0607014 C9.25070841,17.0157229 9.46786693,16.9536485 9.68482192,16.953445 C13.7888532,16.9481534 17.8930881,16.9430654 21.9973229,16.9548697 C23.1325714,16.958126 23.6391389,17.36049 23.7354051,18.2435742 C23.8528376,19.3208188 23.2878591,19.9777894 22.1493542,19.9895937 C19.8430372,20.0138129 17.5365166,19.996717 15.2301996,20.0030262 C14.8390294,20.0040438 14.4480626,20.036811 13.9148337,20.0614372 C14.085182,20.5069479 14.1857221,20.8177268 14.3196399,21.113038 C17.159593,27.3801065 19.9848924,33.6536877 22.8657534,39.9018286 C23.300681,40.8449519 23.318591,41.6038873 22.8759295,42.5602395 C19.9875382,48.8049205 17.1638669,55.0797229 14.3216751,61.3459773 C14.1873503,61.6416955 14.0792798,61.948811 13.895092,62.4112141 L15.2635773,62.4112141 C33.2747084,62.4124352 51.285636,62.4144705 69.2965636,62.4132493 C70.8266458,62.4132493 71.7549119,61.8889753 72.1678591,60.7738755 C72.5687984,59.6903217 72.4629667,58.5839734 71.5401957,57.9027836 C70.8887202,57.4216564 69.947225,57.1141339 69.1323209,57.1078247 C61.2297456,57.0483961 53.324728,56.9745174 45.4237808,57.1088423 C41.7776751,57.1709166 38.9698787,54.5409988 39.0148571,50.7182356 C39.130865,40.8830106 39.0553581,31.0455468 39.058411,21.2091006 C39.058818,19.8454998 39.0643131,19.8477386 37.7399922,19.8485526 C35.8405166,19.8495703 33.9408376,19.8682943 32.0419726,19.83858 C30.8216517,19.8196524 30.2965636,19.3316055 30.2916791,18.3306818 C30.2863875,17.2896642 30.8660196,16.777398 32.0979413,16.7725135 C33.9972133,16.7649832 35.8997417,16.7120673 37.7951468,16.8022278 C38.868728,16.8531084 39.1007436,16.4639734 39.081409,15.4675272 C39.0215734,12.382126 39.0614638,9.29468963 39.0555616,6.20806732 C39.0486419,2.47485401 41.3571977,0.0694215264 45.0975342,0.0246465753 C48.929863,-0.0209424658 52.7632094,0.010807045 56.5961487,0.010807045 C69.5194207,0.0101964775 82.4426928,0.0101964775 95.3659648,0.0110105675 C96.7832955,0.0110105675 96.7806497,0.0134528376 96.7806497,1.45968376 C96.7810568,24.0836524 96.7820744,46.7076211 96.783092,69.3317933 C96.783092,70.7672376 96.1340587,71.5312611 95.033409,71.3922552 C94.0937456,71.2736016 93.6413151,70.6388149 93.6394834,69.3657816 C93.6331742,65.023629 93.6382622,60.6816798 93.6390763,56.3395272 C93.6394834,54.0669949 93.6215734,51.7942591 93.6512877,49.5219303 C93.6600391,48.8645526 93.4471546,48.6058755 92.7785832,48.6437307 C92.0049941,48.6872845 91.2269276,48.6539068 90.2707789,48.6539068 L90.2707789,48.6539068 Z" id="Fill-1" fill="#70ADF5"></path>
                        <path d="M81.6705691,74.5223906 C82.0713049,74.4973573 82.4337785,74.4572634 82.7964556,74.4548211 C84.1189448,74.4462732 85.4418411,74.4631656 86.7643303,74.4458661 C88.0534419,74.4293808 88.7450114,73.8348916 88.7525417,72.7788133 C88.7598685,71.735964 88.0389918,71.0830638 86.7901777,71.0692243 C84.8573245,71.048465 82.9226395,71.0152908 80.9914145,71.0737018 C78.8635867,71.1378114 76.9500681,71.8204258 75.3196493,73.250782 C73.5610114,74.7938896 71.739892,76.2657644 69.9965182,77.8253573 C68.7955319,78.8993456 67.4604243,79.5015687 65.8420133,79.3782341 C65.1663186,79.3269464 64.8689722,79.5284337 64.8722286,80.2719014 C64.8958372,85.6640266 64.8929879,91.0565589 64.8740603,96.4486841 C64.871618,97.1420853 65.08898,97.4579523 65.8084321,97.3916039 C67.1887217,97.2639953 68.475391,97.60978 69.7669448,98.088872 C77.0658724,100.797553 84.6735436,101.034453 92.3292462,100.80549 C93.3639546,100.774351 94.159117,99.9401127 94.1464986,99.0810442 C94.1324556,98.1350716 93.3389213,97.4270168 92.2191405,97.3964885 C91.4396493,97.3749151 90.654663,97.4424845 89.8816845,97.3681988 C89.6177159,97.3427585 89.1933714,97.0279092 89.1695593,96.8097331 C89.0828587,96.0194552 89.135571,95.2141166 89.135571,94.3216705 C91.3494888,94.3216705 93.4121894,94.3344924 95.474483,94.3121049 C95.940346,94.3074239 96.433074,94.2561362 96.8635241,94.0943358 C97.5581464,93.8328094 97.961935,93.2873691 97.8675006,92.5074708 C97.7740838,91.7346959 97.3725339,91.1615765 96.5720798,91.0036431 C96.1104908,90.9126685 95.628346,90.9012712 95.1553597,90.8976078 C93.3918372,90.885193 91.6277041,90.9159249 89.8654027,90.8674865 C89.555438,90.8591421 89.0158998,90.5795022 88.9904595,90.374555 C88.8891053,89.5559875 88.9485339,88.7172712 88.9485339,87.8138348 C89.4882755,87.8138348 89.8580759,87.8142419 90.2276728,87.8138348 C93.0765808,87.8117996 95.9254888,87.8319483 98.7739898,87.7981636 C100.072463,87.7822888 100.81064,87.0652791 100.774005,85.998007 C100.734522,84.8419992 100.077959,84.2723397 98.7503812,84.2688798 C96.1729722,84.2617566 93.5953597,84.2648094 91.0179507,84.2639953 C90.4200016,84.2635883 89.8224595,84.2639953 89.1954067,84.2639953 L89.1954067,81.24942 C89.3285104,81.1924337 89.388753,81.1448094 89.4491992,81.1444023 C91.6529409,81.1340227 93.8568861,81.1309699 96.0608313,81.1209973 C97.4958685,81.1146881 98.477254,80.3109777 98.4381777,79.1859053 C98.4039859,78.2061479 97.5099115,77.5701401 96.1318607,77.5685119 C91.7229526,77.5640344 87.3140446,77.5664767 82.9049331,77.5662732 L81.6705691,77.5662732 L81.6705691,74.5223906 Z M65.1624517,74.7938896 C65.2190309,75.3269151 65.260753,75.7197135 65.3053245,76.1379523 C66.4943029,76.3545002 67.5001112,76.2718701 68.4393675,75.4016078 C70.1544517,73.8133182 71.9861542,72.3508055 73.7268822,70.7889738 C75.8166513,68.9135139 78.2870074,68.0163867 81.0422951,67.8938661 C83.0736532,67.8032986 85.1109135,67.8089973 87.1449174,67.8289425 C90.5746787,67.8625237 92.594436,70.27569 92.0677198,73.6547742 C92.04289,73.8143358 92.0278294,73.9753221 91.9852932,74.3204963 C93.53471,74.3204963 95.0128939,74.3420697 96.4898568,74.3143906 C97.9955162,74.2858975 99.2783186,74.7495217 100.328291,75.8509855 C101.614146,77.1999327 102.032996,78.7528094 101.402483,80.5195883 C101.214021,81.0479327 101.31334,81.3300149 101.784291,81.5868603 C104.793575,83.2284728 104.79154,88.5762301 101.368495,90.1649268 C101.111649,90.284191 100.846867,90.7687781 100.872917,91.0569659 C101.200385,94.6587037 100.405833,95.9685746 96.9235632,97.338281 C96.9642677,97.7088955 97.0200329,98.0992517 97.0477119,98.491236 C97.2608,101.509068 95.1270701,103.801749 92.1072031,103.803784 C89.8010896,103.805412 87.4935515,103.752089 85.1890661,103.814164 C79.3127609,103.971894 73.6725417,102.812426 68.1615593,100.879369 C67.9376845,100.801013 67.7193049,100.705154 67.4923773,100.637991 C65.491344,100.04452 64.9104908,100.462759 64.8836258,102.501647 C64.8783342,102.898719 64.8502481,103.295792 64.8278607,103.804191 L63.650483,103.804191 C43.0647922,103.804191 22.4786943,103.804598 1.89300352,103.804191 C0.624651272,103.804191 0.00553581213,103.330798 0.00105831703,102.365287 C-0.00341917808,101.380238 0.684690411,100.830117 1.95914834,100.82971 C19.4248391,100.826046 36.8905299,100.825639 54.3560172,100.824418 C56.5265847,100.824418 58.6973558,100.808543 60.8675162,100.836426 C61.5544047,100.845177 61.8356728,100.62171 61.8338411,99.9034787 C61.8173558,92.8831734 61.8140994,85.8632751 61.8391327,78.8429699 C61.8417785,78.025827 61.4778802,77.9120579 60.788346,77.9132791 C51.292393,77.9285432 41.7964399,77.9234552 32.3006904,77.9230481 C31.8598607,77.9228446 31.4174027,77.9417722 30.9784047,77.9102262 C29.8386787,77.8292243 29.2718685,77.2699444 29.3005652,76.2885589 C29.3284477,75.3328172 29.9491914,74.7985706 31.0889174,74.7967389 C34.8872579,74.7898192 38.685802,74.7965354 42.4841425,74.7963319 C49.6060055,74.7963319 56.728072,74.7947037 63.849935,74.7938896 L65.1624517,74.7938896 Z" id="Fill-3" fill="#55CA86"></path>
                        <polygon id="Clip-7" points="0 74.7936124 0 77.921995 19.3899645 77.921995 19.3899645 74.7936124 1.10329771e-20 74.7936124"></polygon>
                        <path d="M9.71451585,74.7998325 C12.3206215,74.7998325 14.9267272,74.7947444 17.5330364,74.8020712 C18.7366685,74.8053276 19.3767468,75.3436446 19.3897722,76.3291006 C19.4027977,77.300717 18.7535609,77.9055859 17.5586802,77.9092493 C12.3126841,77.9259382 7.06648454,77.9269558 1.82048845,77.9080282 C0.655322114,77.9039577 -0.0254606654,77.2541104 0.000590215264,76.3067131 C0.0272516634,75.3534137 0.695619569,74.80431 1.8959953,74.7994254 C4.50210098,74.7886387 7.10820665,74.7961691 9.71451585,74.7961691 L9.71451585,74.7998325 Z" id="Fill-6" fill="#55CA86"></path>
                        <path d="M26.7117386,16.6003538 C27.7018755,16.6064595 28.3110184,17.2009487 28.3071515,18.157708 C28.3036916,19.0861777 27.6318638,19.7301229 26.6862982,19.7113988 C25.7779773,19.6934888 25.0493667,18.9821777 25.0544548,18.1184282 C25.0599499,17.2156023 25.7380869,16.5944517 26.7117386,16.6003538" id="Fill-9" fill="#70ADF5"></path>
                        <path d="M58.5463014,95.8191076 C58.5642114,96.6490724 57.797135,97.3833816 56.9073346,97.3872485 C56.0226223,97.3909119 55.3514051,96.7549041 55.3341057,95.8950215 C55.318638,95.1334403 56.0132603,94.4318982 56.8041487,94.4095108 C57.8345832,94.3814247 58.5271703,94.9415186 58.5463014,95.8191076" id="Fill-11" fill="#55CA86"></path>
                        <path d="M25.8993378,76.2928736 C25.901373,77.1299616 25.1984063,77.8555194 24.3651851,77.8760751 C23.5260618,77.8966309 22.8173965,77.2070967 22.7988759,76.3516916 C22.7795413,75.4684039 23.3005589,74.8026818 24.0307977,74.7772415 C24.9319953,74.745492 25.8975061,75.5288501 25.8993378,76.2928736" id="Fill-13" fill="#55CA86"></path>
                        <path d="M70.7717151,26.8308603 C73.6930771,23.9064454 76.5301808,21.0658818 79.4993706,18.0934356 C77.9035507,16.6358074 76.1418599,15.0263515 74.3801691,13.4168955 C74.4672767,13.2711734 74.5543843,13.1254513 74.641492,12.9797292 C79.8807718,12.354508 85.1200517,11.7292869 90.5386348,11.0826959 C90.354854,12.4918857 90.2007875,13.7856783 90.0143609,15.0749933 C89.5735311,18.1241675 89.1151984,21.1704924 88.668263,24.2188524 C88.5068697,25.3186881 87.9142121,25.8169112 86.9020947,25.6856391 C86.0816955,25.5791969 85.5728892,24.8562849 85.7039577,23.8779523 C85.98258,21.7979523 86.3000751,19.7234474 86.5921299,17.6452791 C86.7223843,16.717827 86.8296407,15.7873221 86.9721065,14.6618427 C85.050447,14.8916196 83.3040204,15.1002301 81.5573902,15.3090442 C81.4869714,15.4268838 81.4163491,15.5449268 81.3457268,15.6627663 C82.2943452,16.4064376 83.2431671,17.1499053 84.1140399,17.8327233 C79.4989636,22.4534982 75.1470419,26.8109151 70.6274176,31.336238 C68.6200751,29.2491147 66.5408892,27.0879092 64.4065487,24.8689033 C63.9781339,25.2722849 63.680584,25.5388994 63.3985018,25.8209816 C58.7944157,30.4218114 54.1952141,35.0277292 49.5833941,39.6210286 C49.2549088,39.9482928 48.8385018,40.4074395 48.4591358,40.4111029 C47.922447,40.416191 47.2099147,40.1943515 46.8946583,39.8070481 C46.6142043,39.462281 46.7190184,38.7566685 46.7625722,38.218962 C46.7800751,37.9997683 47.0700947,37.7891225 47.2614059,37.5996431 C52.8218442,32.0856078 58.3855389,26.574829 63.9500477,21.0648642 C64.092717,20.923416 64.2514646,20.7984532 64.5921613,20.4998857 C66.7218207,22.681647 68.7975468,24.8082536 70.7717151,26.8308603 Z" id="Fill-15" fill="#55CA86"></path>
                    </g>
                </g>
            </g>
        </g>
    </g>
</svg>