<?xml version="1.0" encoding="UTF-8"?>
<svg width="37px" height="50px" viewBox="0 0 37 50" version="1.1" xmlns="http://www.w3.org/2000/svg" xmlns:xlink="http://www.w3.org/1999/xlink">
    <!-- Generator: Sketch 43.1 (39012) - http://www.bohemiancoding.com/sketch -->
    <title>marker_icon</title>
    <desc>Created with Sketch.</desc>
    <defs></defs>
    <g id="Page-1" stroke="none" stroke-width="1" fill="none" fill-rule="evenodd">
        <g id="contacts" transform="translate(-771.000000, -818.000000)">
            <g id="Group-2" transform="translate(-6.000000, -77.000000)">
                <g id="marker_icon" transform="translate(777.000000, 895.000000)">
                    <path d="M18.4422742,47.0001936 C18.5423862,46.9056275 18.5933576,46.8671042 18.6327664,46.8190952 C21.5898758,43.207484 24.5915971,39.6312988 27.487907,35.9712914 C29.7289122,33.139439 31.6604279,30.0952243 33.1527612,26.783282 C35.1999018,22.2404321 35.5240372,17.6257622 33.7704878,12.9237857 C30.3713055,3.8096289 20.1250034,-0.377122171 11.437519,3.78426931 C4.15921432,7.27072807 0.393597135,16.0002323 2.71987578,23.9610121 C3.67108411,27.2159436 5.27721172,30.1404263 7.14233932,32.9365623 C9.57846172,36.5885359 12.3977846,39.9389047 15.2401362,43.2701086 C16.2942508,44.5055656 17.3555919,45.734731 18.4422742,47.0001936 M18.9821466,0.0967729446 C24.7329487,0.299068858 29.6656076,2.98244188 33.3233081,8.00412335 C35.9106102,11.5563041 37.1150372,15.5815088 36.9583654,19.9843003 C36.8536284,22.9305612 35.9455867,25.6772364 34.6990529,28.3205374 C32.8939539,32.1483826 30.4997456,35.5998993 27.8657117,38.8799969 C25.0643107,42.3686819 22.1778289,45.7887411 19.3224695,49.2337728 C18.8297143,49.8283679 18.1566805,49.8512109 17.6651779,49.2730704 C13.6413315,44.5420563 9.45705547,39.9409373 5.92875859,34.8049442 C3.76965443,31.6618077 1.89392786,28.3714501 0.794430469,24.6825987 C-1.40774401,17.2941518 1.06335495,9.21170413 7.0307612,4.32591904 C10.3701076,1.59192365 14.1820711,0.153106065 18.9821466,0.0967729446" id="Fill-1" fill="#405983"></path>
                    <path d="M23.6055471,5.81403295 C23.6160497,5.22495499 23.1760003,4.76451401 22.5978753,4.75977118 C22.0225445,4.75512515 21.5615862,5.21285595 21.5602372,5.79031883 C21.5589846,6.3516174 21.9906513,6.79792671 22.550469,6.81389744 C23.1420836,6.83083609 23.5951409,6.40156223 23.6055471,5.81403295 M4.09729714,18.0845868 C4.09729714,18.2295817 4.0988388,18.3745765 4.09700807,18.5195714 C4.08746901,19.2414484 4.49138568,19.729572 5.10525807,19.736541 C5.71749245,19.7435101 6.1245888,19.2658401 6.15301328,18.5420272 C6.17450026,17.9952475 6.19088047,17.4444993 6.27008359,16.9043982 C7.17427109,10.7347601 12.0779273,6.42275974 18.2972034,6.31493312 C19.0482841,6.30186616 19.5341018,5.87259229 19.5109768,5.2424744 C19.4881409,4.6250363 19.0082971,4.24677198 18.2779326,4.25161159 C16.474568,4.26361384 14.7294977,4.59967671 13.0892607,5.34168651 C7.61788568,7.81705287 4.65788568,12.0987572 4.09729714,18.0845868 M18.5218049,11.4607991 C14.5611669,11.4337941 11.3093102,14.6591072 11.2728883,18.6504346 C11.2366591,22.6152409 14.4842763,25.9205045 18.4296904,25.9344426 C22.420969,25.948671 25.6583727,22.7160017 25.6807268,18.6943783 C25.7025992,14.7587065 22.4653883,11.4877074 18.5218049,11.4607991 M15.2400784,43.2701376 C12.3977268,39.9389337 9.57840391,36.5884682 7.14237786,32.9365914 C5.27715391,30.1404553 3.6710263,27.2158759 2.71991432,23.9609443 C0.393635677,16.0002613 4.15915651,7.27075711 11.4374612,3.78429835 C20.1250419,-0.377093134 30.371344,3.80965794 33.7704299,12.9238148 C35.5239794,17.6257913 35.1999404,22.2404611 33.1527997,26.7833111 C31.6604664,30.0951565 29.7289508,33.139468 27.4879456,35.9712236 C24.5915393,39.6313278 21.5899143,43.207513 18.6327086,46.8191242 C18.5932997,46.8671332 18.5424247,46.9056565 18.4423128,47.0002226 C17.3555341,45.7347601 16.2942893,44.5054978 15.2400784,43.2701376 Z" id="Fill-4" fill="#70ADF5"></path>
                    <path d="M23.5990529,18.7045125 C23.6008836,15.8471069 21.335019,13.5519678 18.5109747,13.5506127 C15.6376935,13.5492576 13.3528471,15.8263933 13.353907,18.690284 C13.3549669,21.588052 15.6311414,23.8478619 18.5432534,23.8422479 C21.3331883,23.8369243 23.5972221,21.5361713 23.5990529,18.7045125 M18.5217664,11.4607701 C22.4653497,11.4876783 25.7025607,14.7586774 25.6806883,18.6943493 C25.6583341,22.7159727 22.4209305,25.948642 18.4297482,25.9344135 C14.4842378,25.9204754 11.2367169,22.6152119 11.2728497,18.6504056 C11.3092716,14.6591749 14.5612247,11.433765 18.5217664,11.4607701" id="Fill-6" fill="#405983"></path>
                    <path d="M4.09725859,18.0845868 C4.65784714,12.0987572 7.61794349,7.81705287 13.0893185,5.34168651 C14.7294591,4.59967671 16.4745294,4.26361384 18.277894,4.25161159 C19.0082586,4.24677198 19.4881023,4.6250363 19.5109383,5.2424744 C19.5340633,5.87259229 19.0482456,6.30186616 18.2971648,6.31493312 C12.0778888,6.42275974 7.17432891,10.7347601 6.27004505,16.9043982 C6.19093828,17.4444993 6.17455807,17.9952475 6.15297474,18.5420272 C6.12455026,19.2658401 5.71745391,19.7435101 5.10521953,19.736541 C4.49134714,19.729572 4.08743047,19.2414484 4.09696953,18.5195714 C4.09889661,18.3745765 4.09725859,18.2295817 4.09725859,18.0845868" id="Fill-8" fill="#405983"></path>
                    <path d="M23.6055471,5.81403295 C23.5951409,6.40156223 23.1420836,6.83083609 22.550469,6.81389744 C21.9906513,6.79792671 21.5589846,6.3516174 21.5602372,5.79031883 C21.5615862,5.21285595 22.0225445,4.75512515 22.5978753,4.75977118 C23.1760003,4.76451401 23.6160497,5.22495499 23.6055471,5.81403295" id="Fill-10" fill="#405983"></path>
                </g>
            </g>
        </g>
    </g>
</svg>