<?xml version="1.0" encoding="UTF-8"?>
<svg width="67px" height="88px" viewBox="0 0 67 88" version="1.1" xmlns="http://www.w3.org/2000/svg" xmlns:xlink="http://www.w3.org/1999/xlink">
    <!-- Generator: Sketch 43.1 (39012) - http://www.bohemiancoding.com/sketch -->
    <title>message_icon</title>
    <desc>Created with Sketch.</desc>
    <defs></defs>
    <g id="Page-1" stroke="none" stroke-width="1" fill="none" fill-rule="evenodd">
        <g id="contacts" transform="translate(-980.000000, -179.000000)">
            <g id="Group-2" transform="translate(-6.000000, -77.000000)">
                <g id="Group" transform="translate(234.000000, 187.000000)">
                    <g id="client">
                        <g id="message_icon" transform="translate(752.000000, 69.000000)">
                            <path d="M7.11243624,41.1671616 C5.78063388,42.1787641 4.57841741,43.0919237 3.25386682,44.0980572 C4.60679388,45.0245476 5.80033976,45.8418281 7.11243624,46.7404606 L7.11243624,41.1671616 Z M2.35858918,84.9496036 L3.27798682,84.9496036 C17.3609139,84.9509709 31.4438409,84.9516545 45.5269256,84.9586617 C45.8898292,84.9590035 46.3381774,84.8995277 46.5946692,85.0984642 C46.9291962,85.3582438 47.2637233,85.8232836 47.3225256,86.2450837 C47.4016645,86.8126681 47.0255186,87.2599334 46.4650833,87.3944378 C46.2636104,87.4428046 46.0468456,87.4228084 45.8371751,87.4231502 C31.0710056,87.4241757 16.3046786,87.4245175 1.53850918,87.4234921 C0.370186824,87.4234921 0.0170574118,87.0639023 0.0165844706,85.8202073 C0.0110668235,71.9486575 0.0139044706,58.0771078 3.15294115e-05,44.2052163 C-0.000756705883,43.5181675 0.277805647,43.0984182 0.764462118,42.7314795 C2.705728,41.2685099 4.62697271,39.7739223 6.57580565,38.3229163 C7.01453741,37.9963117 7.18337741,37.640311 7.18243153,37.0621304 C7.16414447,25.4134058 7.162568,13.7646812 7.16130682,2.11578562 C7.16114918,0.533522458 7.50970682,0.1710273 8.98670212,0.1710273 C24.620088,0.170856393 40.2533162,0.170856393 55.8865445,0.1710273 C57.3789892,0.171198208 57.6819868,0.501220909 57.680568,2.11664016 C57.6797798,3.22753998 57.6903421,4.33861071 57.6764692,5.44916872 C57.6648033,6.37463372 57.2069962,6.91675284 56.474568,6.9158983 C55.7845468,6.91504376 55.3380904,6.39274994 55.3057727,5.50710642 C55.2838598,4.90978413 55.2606856,4.30750552 55.3076645,3.71377229 C55.3653633,2.98399656 55.0858551,2.80932892 54.4476998,2.81223436 C49.2455045,2.83650324 44.0431515,2.82556515 38.8407986,2.82556515 C29.5136104,2.82539425 20.1862645,2.82539425 10.8589186,2.82522334 L9.772888,2.82522334 C9.75397035,3.20822741 9.72590918,3.51022126 9.72590918,3.8122151 C9.72512094,18.1399174 9.74813741,32.4674488 9.69138447,46.7948092 C9.68633976,48.0709768 10.0371045,48.7122223 11.0052151,49.3729513 C17.8738974,54.0600941 24.7026951,58.8162835 31.529128,63.5757201 C32.0924009,63.9684659 32.4932974,64.0074329 33.0699704,63.5919563 C35.1477586,62.0948052 37.2512433,60.6367919 39.3831045,59.2321018 C39.7761186,58.9730058 40.4171115,58.8217525 40.8210033,58.9827475 C41.7872221,59.3679734 41.7673586,60.688406 40.8210033,61.3414442 C38.9374362,62.641197 37.0355821,63.9093319 35.1414527,65.1911394 C34.4955727,65.6283212 33.8175327,66.0207252 33.2135868,66.5184083 C32.5864668,67.0352331 32.0689115,66.9678955 31.429968,66.5266119 C27.1544221,63.574011 22.8599586,60.6537118 18.5724315,57.721449 C13.396248,54.1814385 8.22132565,50.6393771 3.04403859,47.1015885 C2.85517741,46.9723823 2.64661035,46.8776994 2.35858918,46.7177299 L2.35858918,84.9496036 Z" id="Fill-1" fill="#70ADF5"></path>
                            <path d="M30.6147751,42.429366 C27.9240551,39.4781324 25.3060104,36.6067128 22.7409351,33.7934017 C21.5486504,35.1016999 20.3971962,36.3652202 19.2961892,37.5733665 C23.0328974,41.6141364 26.8753868,45.7690727 30.7959115,50.0084373 C30.9065798,49.8982019 31.1361139,49.6852509 31.3494104,49.4545256 C35.1780268,45.3077929 39.0012833,41.1552494 42.838728,37.0182584 C43.1261186,36.7084028 43.4950127,36.3467622 43.8576009,36.3002753 C44.2036362,36.2560102 44.7344339,36.4881028 44.9214033,36.7899258 C45.1266598,37.1209739 45.0829915,37.6759111 45.0449986,38.1228347 C45.0270268,38.3330511 44.7820433,38.5340385 44.6165139,38.7136625 C40.1052856,43.6106798 35.5910621,48.5044499 31.076208,53.3975363 C30.966328,53.516659 30.8435209,53.6214254 30.786768,53.6756031 C25.7466339,48.2045069 20.7293586,42.7585342 15.7642645,37.368961 C18.0072668,34.9407048 20.3249939,32.4312676 22.6669986,29.8956815 C25.2137868,32.6809637 27.8461774,35.5600742 30.5741021,38.5436093 C40.4480104,27.7489103 50.1844504,17.1040973 59.8428551,6.54490903 C62.2034621,9.10818219 64.5308056,11.6352229 66.918528,14.2277213 C66.8866833,14.2654919 66.7254104,14.4748538 66.5482151,14.666954 C61.6825962,19.9447536 56.8152433,25.221015 51.9478904,30.4972765 C51.7992292,30.6584424 51.6581351,30.8300337 51.4962315,30.973767 C50.9460433,31.4620502 50.3296433,31.4482067 49.8625351,30.9500109 C49.4140292,30.4714694 49.3895939,29.7432318 49.8171327,29.1759893 C49.9661092,28.97842 50.1433045,28.8052906 50.3104104,28.6241285 C54.5454409,24.0318395 58.7792104,19.4381833 63.021808,14.8540979 C63.2425139,14.6155108 63.5403092,14.4608394 63.7985351,14.2697646 C62.4400904,12.8373874 61.2613633,11.5945469 60.0176856,10.2831724 C50.3033162,20.9038874 40.5241539,31.5955291 30.6147751,42.429366" id="Fill-4" fill="#55CA86"></path>
                            <path d="M57.6151445,41.2939238 L57.6151445,46.7451947 C58.9128951,45.826566 60.0730198,45.0053547 61.3622574,44.0925369 C60.0643492,43.1231486 58.9151021,42.2648503 57.6151445,41.2939238 L57.6151445,41.2939238 Z M62.2578504,46.6927261 C61.9241115,46.8949098 61.6766056,47.0283887 61.4445492,47.1880165 C57.4316433,49.9493716 53.4203139,52.7134613 49.4091421,55.4777219 C48.584648,56.0458189 48.0123892,55.9690814 47.5985656,55.2297348 C47.2025562,54.5226898 47.3936245,53.800434 48.1525374,53.2948892 C50.3225492,51.8493521 52.4963445,50.409626 54.6813327,48.9905796 C55.1255821,48.7019166 55.3265821,48.4071009 55.3201186,47.7879024 C55.2794456,43.8303645 55.2944221,39.872143 55.2972598,35.9140924 C55.298048,34.8440395 55.6669421,34.3545599 56.4491868,34.3419128 C57.2746268,34.328411 57.7973845,34.8495085 57.6502998,35.9214414 C57.3999562,37.7455389 58.1055845,38.7849993 59.5173139,39.6451776 C61.0230009,40.562439 62.3883821,41.7470001 63.8442527,42.7654388 C64.5189821,43.2378276 64.7575021,43.8373717 64.7563986,44.6884919 C64.7418951,56.5346149 64.7474127,68.3805669 64.7478856,80.2266899 C64.7480433,82.1343613 64.7500927,84.0423745 64.7453633,85.9503876 C64.7422104,87.145374 64.4890292,87.4234408 63.4227045,87.4237826 C61.0061327,87.4248081 58.5895609,87.4077173 56.1733045,87.4348916 C55.5408245,87.4418988 55.1657821,87.1975009 55.0565327,86.5254919 C54.9384551,85.8001598 55.2728245,85.1782268 55.9215421,85.027828 C56.3254339,84.9339997 56.7554951,84.9546796 57.1738904,84.9529705 C58.8487327,84.9459633 60.5237327,84.9500651 62.2578504,84.9500651 L62.2578504,46.6927261 Z" id="Fill-7" fill="#70ADF5"></path>
                            <path d="M5.90290494,82.2001095 C5.48923906,81.8666686 5.06422259,81.6913173 4.932272,81.3732582 C4.78266494,81.0124721 4.83878729,80.5113708 4.91587671,80.0955525 C4.96190965,79.8473945 5.21603671,79.6417926 5.38377318,79.4235435 C9.36467671,74.2465795 13.3463685,69.0699572 17.3291638,63.8947022 C17.4634791,63.7200346 17.5962179,63.539727 17.7535496,63.3920627 C18.2484038,62.9278775 19.0090508,62.9049759 19.3968626,63.3736047 C19.8478908,63.9182874 19.8215638,64.5238133 19.4134155,65.0782378 C18.7755755,65.9452524 18.1079402,66.786289 17.453232,67.6386055 C13.9949285,72.1403134 10.541512,76.646294 7.06980847,81.1358674 C6.77154024,81.5214351 6.35156847,81.7969383 5.90290494,82.2001095" id="Fill-10" fill="#70ADF5"></path>
                            <path d="M46.2029793,62.9870116 C46.6722946,63.3835174 47.0905322,63.6279153 47.3750852,63.9945123 C50.0796781,67.4800032 52.7615699,70.9866867 55.4502405,74.4868756 C56.8113652,76.2590172 58.1759581,78.0275697 59.532984,79.8034713 C60.1485958,80.6087882 60.1675134,81.2948116 59.6105464,81.8278726 C59.0786452,82.3370065 58.399344,82.2067749 57.7728546,81.4006034 C55.7090969,78.7438438 53.6617346,76.072386 51.6112193,73.4040047 C49.5436781,70.7135762 47.4633675,68.0344276 45.4352381,65.3099886 C45.1844216,64.9727877 45.0600381,64.3339349 45.170864,63.9297383 C45.2684475,63.5742503 45.7779628,63.3518994 46.2029793,62.9870116" id="Fill-12" fill="#70ADF5"></path>
                            <path d="M45.5696165,57.6052659 C45.5722965,58.3220527 44.9054494,59.063621 44.2718659,59.0484103 C43.6642941,59.0337122 43.0936118,58.4389535 43.0781624,57.8045443 C43.0612941,57.098012 43.7100118,56.3550764 44.3617247,56.3345674 C45.0441788,56.3133749 45.5667788,56.8630139 45.5696165,57.6052659" id="Fill-14" fill="#70ADF5"></path>
                            <path d="M52.4069428,86.101282 C52.4302746,86.7802982 51.8584887,87.4138529 51.2135546,87.4223983 C50.5851734,87.4307727 50.0379805,86.8889954 50.0029828,86.2238228 C49.9638864,85.4813999 50.4454981,84.9609861 51.1845475,84.946288 C51.8720464,84.9326154 52.3832958,85.4156005 52.4069428,86.101282" id="Fill-16" fill="#70ADF5"></path>
                            <path d="M57.532632,30.160896 C57.5332626,30.8981917 57.0220132,31.4498816 56.3419238,31.4459507 C55.7051873,31.4421908 55.2016626,30.9058825 55.1844791,30.2133647 C55.1663496,29.4688909 55.6703473,28.8840448 56.3299426,28.8847285 C57.0092438,28.8854121 57.5321591,29.4403493 57.532632,30.160896" id="Fill-18" fill="#70ADF5"></path>
                            <path d="M48.7187111,32.890411 C48.7177652,33.6299285 48.2107722,34.1782003 47.5298946,34.1761494 C46.8988334,34.1744403 46.3820664,33.6299285 46.3667746,32.9509124 C46.3506946,32.2317329 46.8717181,31.6291125 47.5204358,31.6162944 C48.1888593,31.6031345 48.7196569,32.1676425 48.7187111,32.890411" id="Fill-20" fill="#55CA86"></path>
                        </g>
                    </g>
                </g>
            </g>
        </g>
    </g>
</svg>