<?xml version="1.0" encoding="UTF-8"?>
<svg width="89px" height="91px" viewBox="0 0 89 91" version="1.1" xmlns="http://www.w3.org/2000/svg" xmlns:xlink="http://www.w3.org/1999/xlink">
    <!-- Generator: Sketch 43.1 (39012) - http://www.bohemiancoding.com/sketch -->
    <title>phone_icon</title>
    <desc>Created with Sketch.</desc>
    <defs></defs>
    <g id="Page-1" stroke="none" stroke-width="1" fill="none" fill-rule="evenodd">
        <g id="contacts" transform="translate(-404.000000, -177.000000)">
            <g id="Group-2" transform="translate(-6.000000, -77.000000)">
                <g id="Group" transform="translate(234.000000, 187.000000)">
                    <g id="phone_icon" transform="translate(176.000000, 67.000000)">
                        <polygon id="Clip-2" points="73.8225871 90.8458001 5.81249717e-05 90.8458001 73.8225871 90.8459119"></polygon>
                        <path d="M54.5334735,65.4184551 L54.5334735,65.413288 C55.7129894,65.413288 56.8933918,65.439658 58.0720213,65.4070518 C59.67934,65.3621514 60.9246309,64.0657415 60.9276448,62.486566 C60.9306588,60.9815117 59.6796946,59.6587317 58.1021608,59.6277291 C55.7436608,59.5815815 53.3837424,59.5981518 51.0247106,59.622562 C50.0162803,59.6328962 49.5328082,60.1437273 49.4953998,61.18 C49.4645512,62.0382747 49.4828122,62.8985093 49.4934496,63.757853 C49.5081647,64.9293614 49.9294078,65.3847798 51.0832165,65.4125753 C52.232593,65.4400144 53.3833878,65.4184551 54.5334735,65.4184551 M54.6348839,51.0781231 C53.4252285,51.0781231 52.2145094,51.0489022 51.006095,51.0870319 C50.0200034,51.1183909 49.5485871,51.6017829 49.5092285,52.5835336 C49.4725293,53.501141 49.4654376,54.4223119 49.4989456,55.3402756 C49.5377723,56.40666 49.9731986,56.8741943 51.0282564,56.8896957 C53.3585671,56.923371 55.6908281,56.9415449 58.0204297,56.8861321 C59.7197624,56.8460425 60.9746269,55.5111465 60.9361548,53.9333964 C60.8975054,52.3358687 59.6162245,51.1150055 57.9099775,51.0809739 C56.8187524,51.0592364 55.7264635,51.077054 54.6348839,51.0781231 M55.9627922,42.5272698 C54.368593,42.5272698 52.7745711,42.5137284 51.1807265,42.5317242 C50.0306408,42.5449093 49.5269576,43.0243814 49.4922086,44.1242629 C49.4661468,44.9542076 49.4695153,45.7855777 49.4844078,46.6157005 C49.5072783,47.8705954 49.9522783,48.35862 51.1973918,48.3668161 C54.3556508,48.3873063 57.5144416,48.3924734 60.6725233,48.3539874 C62.5179436,48.331359 63.8086209,47.0500941 63.7628799,45.4007171 C63.7162524,43.7281773 62.4083779,42.5434838 60.5675671,42.5290516 C59.0325831,42.5169356 57.497599,42.5265571 55.9627922,42.5272698 M55.9698839,33.994056 L55.9698839,33.9858599 C54.375862,33.9858599 52.7820173,33.9694677 51.1885273,33.9913834 C50.0074157,34.0075974 49.5221707,34.493662 49.4893719,35.6715848 C49.4663241,36.5013513 49.4835213,37.3327213 49.5032006,38.162666 C49.5315671,39.3591191 49.9746169,39.8207736 51.1920731,39.8287915 C54.3499775,39.8496381 57.5082365,39.8608632 60.6661408,39.8339586 C62.4365671,39.8188136 63.7437325,38.5649878 63.770858,36.9546315 C63.798338,35.3091744 62.4722026,34.0286222 60.6624177,33.9994013 C59.0987125,33.9741003 57.5341209,33.994056 55.9698839,33.994056 M66.6142484,86.3194124 C67.0241448,86.2602579 67.3118878,86.212863 67.6010492,86.1777623 C70.1201747,85.8721901 70.6116249,84.2817895 70.0710651,82.2156585 C68.9479277,77.923216 67.9914436,73.5864077 66.9840771,69.2634971 C66.2105572,65.9462129 65.6820532,65.6009075 62.4170651,66.3724104 C61.516605,66.5849745 61.3485333,66.8533079 61.5862803,67.7334982 C62.52734,71.2188026 63.4717683,74.7030378 64.414601,78.1876295 C65.1400751,80.8690029 65.8653719,83.5507326 66.6142484,86.3194124 M60.9363321,25.1397687 C62.0390811,25.3913535 63.0023022,25.6586178 63.9823659,25.8234307 C65.3749855,26.0577324 66.2520432,25.4651184 66.6289635,24.0867475 C66.980354,22.8006718 67.2968181,21.5049745 67.6290612,20.2133754 C68.6773819,16.1379515 69.7306667,12.0634185 70.7717185,7.98603475 C71.0970472,6.7115405 70.5814855,5.45522023 69.5188042,5.09120629 C68.6637305,4.79810646 67.7625612,4.64113324 66.7693779,4.39596282 C64.8175831,11.3373506 62.8898998,18.1928575 60.9363321,25.1397687 M45.1492922,22.6337207 C45.333852,22.701784 45.3886349,22.7397355 45.443595,22.7399137 C49.665599,22.7479316 53.8877803,22.7628984 58.1097843,22.7317176 C58.3480631,22.7299358 58.7256926,22.387303 58.7994456,22.1330456 C60.505338,16.2737218 62.170099,10.4024602 63.8692544,4.54117641 C64.0298799,3.98651394 63.8756369,3.78749115 63.3675213,3.67737826 C62.1858779,3.42133909 61.0091986,3.14302789 59.8316329,2.86899292 C55.6794815,1.90274347 51.9014137,3.95301682 50.4284815,7.98674745 C48.7516647,12.5787041 47.084599,17.1742242 45.4162922,21.7692098 C45.3180731,22.0395031 45.2457384,22.3192397 45.1492922,22.6337207 M12.3503102,46.6292419 L12.3540333,46.6292419 C12.3540333,51.616037 12.3706986,56.602832 12.3370133,61.5894489 C12.3315173,62.3793039 12.5662504,62.6107548 13.3408341,62.5950753 C15.5848042,62.5494622 17.8305472,62.552313 20.07434,62.593828 C20.8191388,62.6077258 21.0349018,62.3529338 21.0274556,61.6241932 C20.9948341,58.4483809 21.0106129,55.2722123 21.0106129,52.0960436 C21.0104357,45.3875321 20.9982026,38.6791988 21.0290512,31.9710436 C21.0329516,31.1136598 20.7749934,30.8574425 19.925593,30.8791799 C17.7117624,30.9354836 15.495095,30.9269312 13.2807325,30.8825653 C12.5332743,30.8675985 12.3320492,31.1172233 12.3361269,31.8468548 C12.363607,36.774139 12.3503102,41.7016014 12.3503102,46.6292419 M64.117107,86.8159894 C64.0997325,86.5437362 64.1091289,86.4530445 64.0867902,86.3712616 C62.4874496,80.5094433 60.8787125,74.6508322 59.2960373,68.7849159 C59.1462265,68.228828 58.8749715,68.1383145 58.354091,68.144907 C55.9023361,68.1760879 53.4498719,68.181255 50.9982942,68.149896 C49.0596189,68.1247731 47.3134815,66.8971392 47.095591,65.0412561 C46.8275273,62.7575719 46.3679894,60.3573606 47.8643241,58.3874447 C46.5004257,55.4245529 46.4848241,52.5865626 47.7583042,49.8314243 C47.4778301,48.8550188 47.1016189,47.9244046 46.9640412,46.9594024 C46.8268181,45.9990328 46.8369237,44.9926937 46.9560631,44.0280478 C47.0544596,43.2305312 47.3388341,42.4337273 47.6726727,41.6969688 C47.8515592,41.3021304 47.8765572,41.0940206 47.6841966,40.6856408 C47.3409616,39.9560093 47.0294616,39.1540383 46.9654596,38.3611543 C46.8521707,36.9560569 46.9337245,35.5349236 46.9337245,34.0913402 C45.1207484,33.5728475 43.6786647,34.712106 43.8116329,36.5499934 C43.9227942,38.0855157 43.8554237,39.6365394 43.8212066,41.1797233 C43.7387663,44.911089 41.4458639,47.6316611 37.8511149,48.2877058 C37.5513161,48.3427623 37.2383978,48.325301 36.8568679,48.3457913 C36.8568679,47.5562926 36.8125452,46.8735215 36.8823978,46.2028663 C36.905091,45.9867386 37.2004576,45.6719013 37.4190572,45.6241501 C39.7284476,45.1181297 41.0918141,43.4694655 41.1054655,41.0765593 C41.1146847,39.47333 41.1015651,37.8701007 41.1035153,36.2666932 C41.1072384,33.3413966 43.0815492,31.3269367 45.9777723,31.3055556 C47.5434277,31.2939741 49.1092604,31.3066246 50.6749157,31.3075155 C54.1602763,31.3096536 56.4845592,29.579741 57.4782743,26.2360868 C57.5413898,26.0238789 57.5493679,25.7952789 57.5874855,25.5451195 C57.3298819,25.5044954 57.1584416,25.4537151 56.9866468,25.4537151 C51.5214795,25.4522897 46.0559576,25.4373229 40.5909675,25.4852523 C39.9825054,25.4905976 39.2795472,25.7220485 38.7866787,26.0796481 C36.0337066,28.077894 33.2660193,30.0654493 30.6371508,32.2219157 C28.9943739,33.5694622 27.2643699,34.2206961 25.1810253,33.9936996 C25.0056847,33.9744566 24.8246707,34.0056375 24.649862,33.9840781 C23.9438898,33.8965936 23.6673161,34.1440803 23.6696209,34.9132669 C23.6932006,42.9593471 23.6939098,51.005249 23.6653659,59.0513291 C23.6625293,59.850093 23.9114456,60.1389166 24.676101,60.032189 C27.2094098,59.6781529 29.4372464,60.497407 31.5438161,61.820187 C32.2439376,62.2597477 32.9630293,62.6870142 33.718111,63.0166401 C35.5264775,63.8057824 37.3468998,64.5721182 39.1930293,65.2650454 C39.8227663,65.501307 40.5441627,65.491151 41.4384177,65.6258521 C39.7373122,60.4339763 38.4659596,55.4008555 38.3594078,50.0607371 C39.2426707,49.9855467 40.0975671,49.913029 40.7671946,49.8558344 C41.2088261,52.6697709 41.4572106,55.3363557 42.0633679,57.9181286 C44.1380253,66.7542419 47.7299376,75.0740007 50.9607086,83.5102866 C51.8739337,85.8951749 53.8737743,87.2562627 56.3592145,87.8346226 C59.0685731,88.4651881 61.5070313,87.2252601 64.117107,86.8159894 M61.9603639,58.4024115 C63.4175173,59.7515615 64.0662245,61.3389332 63.8657086,63.2960204 C64.0362624,63.325954 64.2025612,63.3954427 64.3580452,63.3763778 C66.7601588,63.0813181 68.9424317,64.6820529 69.5755373,67.438973 C70.6233261,72.0036687 71.7468181,76.5507249 72.7742185,81.1195186 C73.0296946,82.2564608 73.2392524,83.470197 73.1185173,84.6110591 C72.9082504,86.600218 71.6250193,87.9256707 69.7374038,88.4247421 C66.5716986,89.260923 63.3926966,90.109398 60.1686627,90.6442829 C54.3407584,91.6117795 49.7710871,89.0695618 47.8102504,83.5920695 C46.0520572,78.6797521 44.3252444,73.7562096 42.5537544,68.8488811 C42.4519894,68.5671846 42.0736508,68.1887384 41.8240253,68.1885602 C38.5189695,68.1878475 35.6046627,66.9381197 32.7678321,65.4205932 C31.9336787,64.97444 31.0681448,64.5703364 30.2900153,64.0390151 C28.4961867,62.8138756 26.5424416,62.4179681 24.409101,62.6048749 C23.806844,62.6576151 23.6506508,62.8721392 23.6783082,63.4168238 C23.7082703,64.0032016 23.6850452,64.5922521 23.6850452,65.3144002 C23.1593779,65.3144002 22.727852,65.3147565 22.2961488,65.3144002 C19.2823819,65.3122621 16.2684376,65.3279416 13.2550253,65.2946226 C12.56235,65.286961 12.3171568,65.4950708 12.3357723,66.2049247 C12.3786767,67.8266844 12.3494237,69.4502258 12.3494237,71.1156386 C11.9962604,71.1398705 11.7670233,71.1690914 11.537609,71.1694478 C7.99196952,71.1722986 4.44633008,71.1528774 0.901045219,71.1872654 C0.192768327,71.1940361 -0.00668386454,70.9748794 0.000230478088,70.2789232 C0.0186687251,68.4086078 -0.0109388446,68.4102114 1.88483207,68.4119931 C4.16000538,68.4139531 6.43588785,68.3772488 8.70964283,68.4312362 C9.51152928,68.450301 9.69520259,68.1837494 9.69342968,67.4184827 C9.67126833,58.1242784 9.68066474,48.8304305 9.68261494,39.5365826 C9.6833241,35.2904659 9.68616076,31.0443493 9.68651534,26.7982326 C9.68669263,25.6044522 9.68438785,25.5998196 8.46214482,25.5976815 C6.00985797,25.5934053 3.55757112,25.5948307 1.10528426,25.5939398 C0.787047211,25.5937616 0.468810159,25.5939398 0.023100996,25.5939398 C0.023100996,24.7933942 -0.0403691235,24.0806895 0.0624595618,23.3931076 C0.092599004,23.1917685 0.592913745,22.924326 0.881011355,22.920228 C3.42141175,22.8845927 5.96252131,22.9022322 8.50345359,22.9027667 C9.56719861,22.9029449 10.6314755,22.9227224 11.6941568,22.8901162 C12.2969456,22.8715859 12.5329197,23.0713214 12.5116448,23.7058068 C12.4698042,24.9514365 12.528842,26.2006297 12.4884197,27.4464376 C12.4671448,28.1028386 12.6830851,28.3211045 13.3457982,28.315581 C16.4774635,28.2890328 19.6094835,28.3073849 22.7413261,28.3097012 C23.0615133,28.3098794 23.3818779,28.3097012 23.8149994,28.3097012 L23.8149994,31.3609683 C25.5448261,31.3989199 27.093107,31.7178552 28.5974197,30.4923595 C31.3487962,28.2512594 34.2730313,26.2248617 37.1151807,24.0958344 C38.4422026,23.1016113 39.9413739,22.7819633 41.5497564,22.9173772 C42.2635293,22.9776007 42.5908082,22.7041003 42.8232365,22.025249 C44.484097,17.1733333 46.1672962,12.3287229 47.878862,7.49444666 C49.6404237,2.51905489 53.7892066,-0.371497344 58.8918141,0.0384860558 C61.0214317,0.209535193 63.1150592,0.851503984 65.2207424,1.30015162 C66.7211548,1.61979969 68.2132345,1.97953741 69.7109875,2.31219234 C72.7142942,2.97928398 74.3872106,5.50136786 73.6489715,8.49864763 C72.2808181,14.0532902 70.8495492,19.5929659 69.3851269,25.122842 C68.7458161,27.5362384 66.4355392,28.8978608 63.978111,28.4565184 C62.9037285,28.2635536 61.8339556,28.0392297 60.7537225,27.8890272 C60.5094157,27.8549956 60.1050153,27.9925476 59.9890671,28.1831961 C59.3786548,29.1872189 58.8370313,30.2336476 58.2165133,31.3656009 C58.4874137,31.3873384 58.7852624,31.4265372 59.0839974,31.4322388 C59.851844,31.4470274 60.6218181,31.4163811 61.3878918,31.4582525 C63.7043739,31.5845795 65.3609795,32.7519898 66.2797006,34.8589232 C67.1939894,36.9558787 66.8004038,38.9184894 65.3691349,40.6815427 C65.2202106,40.8647078 65.0695133,41.0464475 64.9225392,41.2313944 C64.9060512,41.2520629 64.9087106,41.2880544 64.8860173,41.3926439 C66.3685233,42.8043338 67.0287544,44.5629327 66.643856,46.6543648 C66.2570074,48.7545274 65.0115392,50.1585558 62.9716309,50.9836897 C64.4903042,53.6866224 64.1647982,56.1361886 61.9603639,58.4024115" id="Fill-1" fill="#55CA86"></path>
                        <path d="M73.0118769,25.0572019 C73.5125462,24.5379965 74.1004426,23.9284557 74.6603271,23.3479577 C75.29361,23.9974099 75.8825701,24.6016054 76.5240084,25.2590755 C75.9802574,25.7599287 75.3608032,26.330627 74.7080183,26.9321498 C74.1853649,26.3545027 73.6036737,25.7112866 73.0118769,25.0572019" id="Fill-4" fill="#70ADF5"></path>
                        <path d="M80.3815733,29.4548752 C79.9316092,29.903701 79.3348482,30.4989876 78.6765673,31.1555668 C78.0790972,30.5150235 77.5075116,29.901741 76.8653641,29.2132683 C77.4763084,28.7035062 78.120406,28.1664832 78.828151,27.5760073 C79.2417705,28.076326 79.793145,28.7432395 80.3815733,29.4548752" id="Fill-6" fill="#70ADF5"></path>
                        <path d="M74.8440004,64.1190162 C75.3056657,64.6041899 75.8738829,65.2012583 76.4835861,65.8423362 C75.8715781,66.3891589 75.2443231,66.9497012 74.5344506,67.5838302 C74.1199446,67.0701483 73.5894904,66.4130345 73.000353,65.6830467 C73.4538629,65.2983643 74.0992016,64.7510071 74.8440004,64.1190162" id="Fill-8" fill="#70ADF5"></path>
                        <path d="M88.769646,19.2830106 C88.1030325,22.479135 88.601397,21.9895069 85.8322914,21.2940852 C85.7794588,21.2809002 85.7356679,21.2317236 85.6057137,21.144239 C85.7980743,20.3577694 85.9980584,19.5401189 86.2241042,18.6164535 C87.1167635,18.8502207 87.9282237,19.0627849 88.769646,19.2830106" id="Fill-10" fill="#70ADF5"></path>
                        <path d="M83.322456,17.8517748 C83.1306273,18.6487569 82.9965954,19.3391896 82.7822508,20.0032522 C82.7281771,20.1710942 82.3936293,20.3865092 82.2296353,20.3556847 C81.5213584,20.2224089 80.8285058,20.0059249 80.0725376,19.8045858 C80.2890098,18.9215446 80.4829659,18.1304423 80.7106074,17.2017881 C81.5676313,17.415065 82.3712906,17.6149786 83.322456,17.8517748" id="Fill-12" fill="#70ADF5"></path>
                        <path d="M77.1157165,19.185477 C76.2484098,18.9666766 75.4388998,18.7624867 74.5341847,18.5344212 C74.7229994,17.7454571 74.8839795,17.0348904 75.0703122,16.3309163 C75.1024018,16.2101129 75.264091,16.01501 75.3291568,16.0289077 C76.0970034,16.1924734 76.8609496,16.3786676 77.6149675,16.596577 C77.6773739,16.614751 77.7087544,16.9199668 77.6725871,17.0719511 C77.5101886,17.7543659 77.3181827,18.4294754 77.1157165,19.185477" id="Fill-14" fill="#70ADF5"></path>
                        <path d="M82.5668956,70.5996581 C82.6613916,70.7083456 82.6911765,70.7272323 82.6977363,70.752177 C83.4691287,73.719345 83.8444534,73.0330103 80.7530331,73.8226871 C80.5491486,73.0552823 80.3225709,72.2841358 80.1615908,71.4994479 C80.1394295,71.3914731 80.4204355,71.1391756 80.5996765,71.0857228 C81.2450151,70.8934707 81.9068418,70.7578786 82.5668956,70.5996581" id="Fill-16" fill="#70ADF5"></path>
                        <path d="M78.3219502,82.3834826 C77.4916972,81.9059705 76.783243,81.4988379 75.9836614,81.038787 C76.4352211,80.2464375 76.852741,79.5141334 77.3241574,78.6873959 C78.1065418,79.1342617 78.8341434,79.5497686 79.6746793,80.0299534 C79.2229422,80.8160667 78.8048904,81.5433819 78.3219502,82.3834826" id="Fill-18" fill="#70ADF5"></path>
                        <path d="M84.6052084,82.9009597 C84.149039,83.704178 83.7446386,84.41617 83.2677263,85.255558 C82.4826825,84.8042377 81.7384155,84.3764367 80.92731,83.910506 C81.394294,83.0892919 81.8121685,82.3546715 82.2694016,81.5503842 C83.0721745,82.0145332 83.7995988,82.4353853 84.6052084,82.9009597" id="Fill-20" fill="#70ADF5"></path>
                        <path d="M80.9581054,7.28630124 C81.7477588,6.83070474 82.4757149,6.41056529 83.2859341,5.94320916 C83.7502588,6.74999093 84.1702608,7.47980058 84.6342309,8.28604781 C83.841209,8.74752413 83.1148484,9.16997986 82.2936373,9.64767021 C81.834454,8.83572134 81.4197707,8.10252634 80.9581054,7.28630124" id="Fill-22" fill="#70ADF5"></path>
                        <path d="M74.5510627,72.7156785 C74.6615149,72.5980822 74.6778257,72.5660105 74.7024691,72.5565672 C77.0152281,71.6640827 77.3643137,71.887872 77.6798914,74.5489333 C76.986507,74.7274658 76.2844353,74.9341502 75.569244,75.0713458 C75.4125189,75.1012794 75.0902042,74.9170453 75.0464133,74.7705844 C74.8373875,74.0728465 74.6982141,73.354262 74.5510627,72.7156785" id="Fill-24" fill="#70ADF5"></path>
                        <path d="M78.8855046,60.1003236 C79.3234129,60.5915553 79.8701779,61.2051941 80.4559468,61.8626642 C79.8832974,62.3622703 79.2482416,62.9167545 78.5217038,63.5505272 C78.1394647,63.0589391 77.6198253,62.3906003 77.06065,61.6714812 C77.4962536,61.2964203 78.1332596,60.747994 78.8855046,60.1003236" id="Fill-26" fill="#70ADF5"></path>
                        <path d="M77.3584454,12.4448047 C76.8990849,11.6478226 76.4874155,10.9333361 76.0062482,10.0985807 C76.7909375,9.64672587 77.5383956,9.21643039 78.3558837,8.74568891 C78.8173717,9.55318338 79.2247861,10.2662445 79.6954932,11.0897748 C78.9288876,11.5341462 78.2037681,11.9548202 77.3584454,12.4448047" id="Fill-28" fill="#70ADF5"></path>
                        <path d="M85.5943317,69.8589441 C86.3463994,69.6658011 87.0426205,69.4550187 87.7537341,69.3281573 C87.9232241,69.2980455 88.264509,69.5100751 88.3169871,69.6770262 C88.5261902,70.3434052 88.6527759,71.0357978 88.8316624,71.8130023 C87.9524771,72.0394643 87.1482859,72.2468613 86.2568675,72.4765304 C86.029758,71.5794133 85.8239233,70.7662172 85.5943317,69.8589441" id="Fill-30" fill="#70ADF5"></path>
                    </g>
                </g>
            </g>
        </g>
    </g>
</svg>