<?xml version="1.0" encoding="UTF-8"?>
<svg width="90px" height="78px" viewBox="0 0 90 78" version="1.1" xmlns="http://www.w3.org/2000/svg" xmlns:xlink="http://www.w3.org/1999/xlink">
    <!-- Generator: Sketch 43.1 (39012) - http://www.bohemiancoding.com/sketch -->
    <title>supplier_icon</title>
    <desc>Created with Sketch.</desc>
    <defs></defs>
    <g id="Page-1" stroke="none" stroke-width="1" fill="none" fill-rule="evenodd">
        <g id="main" transform="translate(-346.000000, -334.000000)">
            <g id="Group-8" transform="translate(-35.000000, -3.000000)">
                <g id="первый-разговор" transform="translate(35.000000, 0.000000)">
                    <g id="supplier_icon" transform="translate(346.000000, 337.000000)">
                        <path d="M22.529386,53.831 C18.3511404,53.8018772 14.9628947,57.141 14.9637719,61.286614 C14.9644737,65.3376667 18.3113158,68.7094211 22.3739474,68.7525789 C26.5034211,68.7964386 29.9483333,65.388193 29.940614,61.2667895 C29.9328947,57.1915263 26.6118421,53.8594211 22.529386,53.831 M32.9030702,59.7520526 L56.7935965,59.7520526 L56.7935965,3.03029825 C56.5065789,3.01573684 56.2242982,2.98889474 55.9420175,2.98889474 C40.8837719,2.98696491 25.8253509,2.98538596 10.7671053,2.98924561 C8.23850877,2.98994737 6.31973684,4.53152632 6.05640351,6.90275439 C5.96254386,7.74907018 6.19324561,8.63819298 6.31921053,9.50152632 C6.84657895,13.1139825 7.38938596,16.7241579 7.93184211,20.3345088 C7.95710526,20.5029298 8.03377193,20.6636316 8.1095614,20.9001228 L9.15096491,20.9001228 C13.3907895,20.9001228 17.6304386,20.8959123 21.8700877,20.9073158 C22.2720175,20.9085439 22.7041228,20.9339825 23.0685088,21.0813509 C23.7423684,21.3534561 24.0192105,21.9283684 23.9118421,22.6445088 C23.8102632,23.3234561 23.3969298,23.7483684 22.7157018,23.8655614 C22.430614,23.9145088 22.1328947,23.9001228 21.8409649,23.9001228 C15.2620175,23.9017018 8.68307018,23.9013509 2.10429825,23.901 C1.8995614,23.901 1.69429825,23.9067895 1.4904386,23.8931053 C0.61377193,23.833807 0.0316666667,23.2773158 0.00114035088,22.4776667 C-0.0300877193,21.6527544 0.556052632,20.9771404 1.45219298,20.9211754 C2.32605263,20.866614 3.20570175,20.9067895 4.08289474,20.8980175 C4.33921053,20.895386 4.59517544,20.8674912 4.96307018,20.8443333 C4.73517544,19.2901228 4.52096491,17.7973158 4.29640351,16.3059123 C3.87061404,13.4755614 3.40254386,10.6511754 3.01903509,7.81503509 C2.57289474,4.51661404 5.3004386,0.963280702 8.82868421,0.188368421 C9.36622807,0.0702982456 9.9272807,0.00801754386 10.4776316,0.00784210526 C26.3253509,-0.00163157895 42.1732456,-0.000403508772 58.0209649,0.000824561404 C59.3632456,0.001 59.8685088,0.497140351 59.8688596,1.85468421 C59.8723684,21.5327544 59.8723684,41.211 59.8692105,60.8888947 C59.8688596,62.2774912 59.3507895,62.7883684 57.955,62.7890702 C49.9434211,62.7927544 41.9318421,62.791 33.9200877,62.791 L32.8985088,62.791 C31.4574561,69.8890702 25.159386,72.4322281 20.5848246,71.5988947 C15.7457018,70.7173158 11.9632456,66.308193 11.9562281,61.3045088 C11.9490351,56.1759123 15.6232456,51.8169649 20.7916667,50.9441579 C25.9390351,50.0750351 31.7165789,53.3018772 32.9030702,59.7520526" id="Fill-1" fill="#70ADF5"></path>
                        <path d="M73.3623684,53.8303158 C69.2158772,53.8255789 65.8909649,57.129614 65.877807,61.2676842 C65.8646491,65.3690877 69.2355263,68.7480351 73.3439474,68.7518947 C77.4395614,68.7559298 80.8385088,65.3724211 80.8448246,61.2854035 C80.8511404,57.1769825 77.4969298,53.8352281 73.3623684,53.8303158 M83.7748246,62.789614 C82.4044737,69.5492632 76.6886842,72.2517193 72.2423684,71.6797895 C66.7611404,70.9747018 62.8514912,66.5952281 62.859386,61.2766316 C62.8671053,56.0859298 66.7702632,51.5715439 71.8911404,50.9062807 C77.5290351,50.1738246 82.6453509,53.7831228 83.7655263,59.7294386 L86.7835965,59.7294386 C86.7992105,59.418386 86.827807,59.1099649 86.8279825,58.8015439 C86.8307895,53.8018947 86.8211404,48.8022456 86.8342982,43.8025965 C86.8392105,41.9052281 86.3757018,40.2494386 84.8414912,38.9666316 C83.9253509,38.2008421 83.1676316,37.2476842 82.267807,36.4594386 C81.9139474,36.149614 81.3683333,35.8985614 80.9079825,35.8952281 C75.7330702,35.8559298 70.557807,35.8703158 65.3827193,35.8701404 C65.1195614,35.8701404 64.8562281,35.8766316 64.5934211,35.8669825 C63.5379825,35.8285614 62.8835965,35.2666316 62.8697368,34.3943509 C62.8557018,33.4913684 63.5358772,32.8764561 64.6351754,32.8682105 C66.9448246,32.8510175 69.255,32.8392632 71.5642982,32.8766316 C72.2111404,32.8871579 72.5592105,32.6862807 72.8332456,32.0917193 C73.4809649,30.6861053 74.1976316,29.3120702 74.9046491,27.9348772 C75.4030702,26.964 76.2434211,26.6447018 77.0592105,27.0818947 C77.8195614,27.4894386 78.0316667,28.3436491 77.5785088,29.2815439 C77.0251754,30.4271579 76.4514912,31.5625965 75.8355263,32.8054035 L80.6830702,32.8054035 C80.5513158,31.1225965 80.4313158,29.5008421 80.2958772,27.8801404 C79.9718421,24.0071579 79.6253509,20.1359298 79.3176316,16.2615439 C79.1227193,13.8064561 77.2323684,11.9699649 74.7527193,11.9531228 C71.3904386,11.9301404 68.027807,11.9636491 64.6658772,11.9261053 C64.2090351,11.921193 63.5704386,11.7762807 63.3460526,11.461193 C63.0564035,11.054 62.9304386,10.3736491 63.0390351,9.87785965 C63.190614,9.18487719 63.8523684,8.94908772 64.557807,8.94996491 C67.3939474,8.95277193 70.2300877,8.93926316 73.0662281,8.95645614 C74.0864035,8.96277193 75.122193,8.93891228 76.1232456,9.10066667 C79.6067544,9.66364912 82.0562281,12.514 82.3230702,16.0504912 C82.7520175,21.7324211 83.2430702,27.4099649 83.7388596,33.086807 C83.7707895,33.4531228 83.992193,33.8655789 84.2504386,34.1387368 C85.2742982,35.2218947 86.3142982,36.2945263 87.4109649,37.3027719 C89.0776316,38.8350526 89.7762281,40.7929474 89.7979825,42.9550526 C89.8586842,49.006807 89.8242982,55.0594386 89.817807,61.1117193 C89.8165789,62.1941754 89.2355263,62.7675088 88.1197368,62.7845263 C86.6900877,62.8061053 85.2597368,62.789614 83.7748246,62.789614" id="Fill-4" fill="#55CA86"></path>
                        <path d="M76.308,77.717386 C72.4520351,77.717386 68.5960702,77.7187895 64.7401053,77.7163333 C63.573614,77.7156316 62.8690526,77.1508947 62.8657193,76.2265088 C62.8622105,75.3014211 63.5655439,74.7305439 64.7337895,74.730193 C72.4748421,74.7280877 80.2157193,74.7280877 87.9567719,74.730193 C89.1472982,74.7305439 89.8199298,75.2756316 89.8202807,76.2200175 C89.8204561,77.1612456 89.1390526,77.7156316 87.9634386,77.7163333 C84.0781754,77.7187895 80.1930877,77.717386 76.308,77.717386" id="Fill-7" fill="#70ADF5"></path>
                        <path d="M8.72112281,44.8349825 C8.51603509,43.4311228 8.33884211,42.1677895 8.14498246,40.9067368 C7.9774386,39.8177895 8.41077193,39.056386 9.31077193,38.8972632 C10.2362105,38.7337544 10.9000702,39.2655088 11.0927018,40.357614 C11.2244561,41.1039298 11.3151579,41.857614 11.4330526,42.6067368 C11.5458596,43.3232281 11.6700702,44.0377895 11.8027018,44.8342807 L12.8835789,44.8342807 C15.9497193,44.8346316 19.0156842,44.8295439 22.0818246,44.837614 C23.2700702,44.8407719 23.9477895,45.3993684 23.9444561,46.3327018 C23.9412982,47.2651579 23.2544561,47.8407719 22.0788421,47.8421754 C16.326386,47.8490175 10.5739298,47.8497193 4.82129825,47.8411228 C3.66796491,47.8393684 2.96463158,47.2242807 2.98638596,46.2981404 C3.00726316,45.3939298 3.66866667,44.8493684 4.79936842,44.8381404 C6.07270175,44.8253333 7.3465614,44.8349825 8.72112281,44.8349825" id="Fill-9" fill="#70ADF5"></path>
                        <path d="M6.80089474,32.8619825 C6.59650877,31.4454912 6.42492982,30.2026842 6.23580702,28.9623333 C6.06440351,27.8365439 6.52563158,27.0558421 7.46721053,26.9153158 C8.34633333,26.7842632 9.00212281,27.3551404 9.19019298,28.4765439 C9.42650877,29.8874211 9.62615789,31.304614 9.85650877,32.8160175 C10.2038772,32.8316316 10.5437018,32.8595263 10.8837018,32.8598772 C14.5384386,32.8630351 18.1933509,32.8584737 21.8480877,32.8670702 C22.2242281,32.8681228 22.6228246,32.8744386 22.9712456,32.9940877 C23.6580877,33.2297018 23.9844035,33.7758421 23.9280877,34.4954912 C23.8747544,35.1751404 23.4956316,35.6416316 22.8205439,35.7981228 C22.5121228,35.8697018 22.1821228,35.8674211 21.8619474,35.8674211 C16.277386,35.8711053 10.693,35.8704035 5.1084386,35.8695263 C4.87457895,35.8695263 4.63914035,35.8742632 4.40738596,35.8495263 C3.58352632,35.7614561 3.02668421,35.204614 2.98738596,34.4449649 C2.94703509,33.663386 3.50685965,33.0042632 4.35142105,32.8951404 C4.75457895,32.8432105 5.16808772,32.8674211 5.57703509,32.8628596 C5.94949123,32.8584737 6.32194737,32.8619825 6.80089474,32.8619825" id="Fill-11" fill="#70ADF5"></path>
                        <path d="M11.9403684,77.717386 C8.58335088,77.717386 5.22615789,77.7187895 1.86914035,77.7166842 C0.683526316,77.7156316 0.00931578947,77.1770351 0.000368421052,76.235807 C-0.00840350877,75.2872105 0.662824561,74.7308947 1.84317544,74.7305439 C8.64492982,74.7280877 15.4466842,74.7270351 22.2484386,74.7321228 C23.2051053,74.7328246 23.7672105,75.1622982 23.9108947,75.9503684 C24.0433509,76.677386 23.6598421,77.3945789 22.9593158,77.6207193 C22.6637018,77.7163333 22.3287895,77.713 22.0115965,77.7137018 C18.6545789,77.7198421 15.2975614,77.717386 11.9403684,77.717386" id="Fill-13" fill="#55CA86"></path>
                        <path d="M38.9488246,77.717386 C36.5251404,77.717386 34.1012807,77.7217719 31.6775965,77.7152807 C30.5763684,77.7122982 29.9377719,77.1331754 29.9572456,76.1851053 C29.9758421,75.277386 30.5967193,74.7331754 31.6658421,74.7321228 C36.513386,74.7259825 41.3611053,74.7256316 46.2086491,74.7324737 C47.2500526,74.7342281 47.8935614,75.3198421 47.896193,76.2172105 C47.8986491,77.1087895 47.2416316,77.7108947 46.2202281,77.7142281 C43.7965439,77.7231754 41.3726842,77.7170351 38.9488246,77.717386" id="Fill-15" fill="#55CA86"></path>
                        <path d="M56.9059298,74.7345789 C57.4303158,74.7345789 57.9569825,74.7047544 58.4789123,74.7410702 C59.3152281,74.7996667 59.8731228,75.4305439 59.8608421,76.2463333 C59.848386,77.0566842 59.2710175,77.6821228 58.4317193,77.707386 C57.3838246,77.7396667 56.3329474,77.7433509 55.2854035,77.7044035 C54.4834737,77.6742281 53.8671579,76.9703684 53.8792632,76.1994912 C53.8908421,75.4582632 54.4778596,74.8291404 55.2452281,74.737386 C55.3027719,74.730193 55.3615439,74.7308947 55.4197895,74.7308947 C55.9152281,74.7305439 56.4106667,74.7305439 56.9059298,74.7305439 L56.9059298,74.7345789 Z" id="Fill-17" fill="#70ADF5"></path>
                        <path d="M22.4179298,62.7689474 C23.198807,62.7910526 23.8817895,62.15 23.923193,61.3559649 C23.9674035,60.5108772 23.3324912,59.8284211 22.4865263,59.8114035 C21.668807,59.7949123 21.0193333,60.3931579 20.9793333,61.1998246 C20.9381053,62.027193 21.5967018,62.7457895 22.4179298,62.7689474 M22.5044211,56.8073684 C24.9621404,56.8257895 26.9640702,58.8405263 26.9547719,61.2861404 C26.9454737,63.7603509 24.8667018,65.8087719 22.3991579,65.7752632 C19.9575789,65.7419298 17.9452982,63.7045614 17.9484561,61.2685965 C17.951614,58.7877193 19.9933684,56.7884211 22.5044211,56.8073684" id="Fill-19" fill="#70ADF5"></path>
                        <path d="M74.841614,61.2347193 C74.8142456,60.4106842 74.1051228,59.7701579 73.2663509,59.8115614 C72.456,59.851386 71.8638947,60.4994561 71.8867018,61.3208596 C71.9089825,62.1227895 72.5651228,62.7705088 73.3537193,62.7687544 C74.1623158,62.767 74.8682807,62.0391053 74.841614,61.2347193 M73.3542456,56.807 C75.8205614,56.8089298 77.8289825,58.7827895 77.8595088,61.2343684 C77.8900351,63.6868246 75.8167018,65.7759474 73.3523158,65.7754211 C70.8644211,65.7748947 68.8449474,63.7289298 68.8686316,61.232614 C68.8921404,58.7554211 70.8691579,56.8048947 73.3542456,56.807" id="Fill-21" fill="#55CA86"></path>
                    </g>
                </g>
            </g>
        </g>
    </g>
</svg>