<?xml version="1.0" encoding="UTF-8"?>
<svg width="402px" height="332px" viewBox="0 0 402 332" version="1.1" xmlns="http://www.w3.org/2000/svg" xmlns:xlink="http://www.w3.org/1999/xlink">
    <!-- Generator: Sketch 43.1 (39012) - http://www.bohemiancoding.com/sketch -->
    <title>supplier_icon2</title>
    <desc>Created with Sketch.</desc>
    <defs></defs>
    <g id="Page-1" stroke="none" stroke-width="1" fill="none" fill-rule="evenodd">
        <g id="registration" transform="translate(-287.000000, -328.000000)">
            <g id="Group-6" transform="translate(0.000000, -3.000000)">
                <g id="Group-3" transform="translate(287.000000, 205.000000)">
                    <g id="supplier_icon2" transform="translate(0.000000, 126.000000)">
                        <ellipse id="Oval-3" fill="#F1F3F7" cx="373.463415" cy="20.9268293" rx="18.0731707" ry="18.0731707"></ellipse>
                        <ellipse id="Oval-3" fill="#F1F3F7" cx="373.939024" cy="97.5" rx="28.0609756" ry="28.0609756"></ellipse>
                        <circle id="Oval-3" fill="#F1F3F7" cx="183.219512" cy="161.707317" r="161.707317"></circle>
                        <ellipse id="Oval-3" fill="#F1F3F7" cx="30.0731707" cy="312.95122" rx="18.0731707" ry="18.0731707"></ellipse>
                        <ellipse id="Oval-3" fill="#F1F3F7" cx="29.5035461" cy="313.695035" rx="17.5177305" ry="17.5177305"></ellipse>
                        <circle id="Oval-3-Copy" fill="#F1F3F7" cx="5.9929078" cy="256.992908" r="5.9929078"></circle>
                        <g id="Page-1" transform="translate(106.170732, 83.707317)">
                            <path d="M40.4796284,96.7207398 C32.9723741,96.6684135 26.8845507,102.667976 26.8861268,110.116599 C26.8873877,117.39532 32.9008194,123.453513 40.2003445,123.531056 C47.6199679,123.609861 53.809607,117.486103 53.7957374,110.080979 C53.7818678,102.758759 47.8147732,96.7718053 40.4796284,96.7207398 M59.1185245,107.359379 L102.043779,107.359379 L102.043779,5.44468221 C101.528081,5.41851904 101.020894,5.37029054 100.513706,5.37029054 C73.4578341,5.36682314 46.4016467,5.36398616 19.3457745,5.37092098 C14.8025239,5.37218186 11.3549743,8.1420107 10.8818307,12.4025099 C10.7131886,13.9231261 11.1277015,15.5206557 11.3540287,17.0718481 C12.3015768,23.5625213 13.2768642,30.0490967 14.2515212,36.5359873 C14.2969127,36.8385975 14.4346634,37.127338 14.570838,37.5522532 L16.4419776,37.5522532 C24.0598738,37.5522532 31.6774547,37.5446879 39.2950357,37.5651772 C40.0172023,37.5673837 40.7935865,37.6130904 41.4482962,37.8778743 C42.6590522,38.3667789 43.1564677,39.3997514 42.9635537,40.6864751 C42.7810419,41.9063724 42.0383861,42.6698327 40.814391,42.8803989 C40.3021602,42.968345 39.7672336,42.9424971 39.2427093,42.9424971 C27.421999,42.945334 15.6012887,42.9447036 3.7808936,42.9440732 C3.41303309,42.9440732 3.04422693,42.9544754 2.67794252,42.9298883 C1.10279347,42.8233443 0.056897019,41.8234698 0.00204892312,40.3867019 C-0.0540600485,38.9045424 0.999086436,37.6906343 2.60922479,37.5900794 C4.17933034,37.4920464 5.75983811,37.5642315 7.33593282,37.5484705 C7.79646769,37.5437423 8.25637213,37.4936225 8.91738625,37.4520136 C8.50791684,34.6594889 8.12303452,31.977291 7.71955427,29.2976147 C6.9545179,24.2121876 6.11351376,19.1374778 5.42444516,14.0416484 C4.62284339,8.11521709 9.52355227,1.73077264 15.8629204,0.338450578 C16.8287512,0.12630823 17.8368214,0.0144055056 18.8256632,0.0140902867 C47.3000207,-0.00293153616 75.7746933,-0.000725003566 104.249051,0.00148152903 C106.660791,0.00179674797 107.568621,0.893235915 107.569252,3.33240009 C107.575556,38.6889327 107.575556,74.0457805 107.569882,109.401998 C107.569252,111.896956 106.63841,112.814873 104.130528,112.816134 C89.7357403,112.822754 75.3409521,112.819602 60.9458487,112.819602 L59.1103288,112.819602 C56.5211204,125.573045 45.2050756,130.142459 36.9857417,128.645169 C28.2910576,127.061193 21.4949372,119.139111 21.4823285,110.148752 C21.4694045,100.933956 28.0710348,93.1020264 37.3573848,91.5338122 C46.6059086,89.9722175 56.9866988,95.7700395 59.1185245,107.359379" id="Fill-1" fill="#70ADF5"></path>
                            <path d="M131.813686,96.7195105 C124.363487,96.7109996 118.389457,102.647518 118.365816,110.082587 C118.342174,117.451775 124.398791,123.522892 131.780588,123.529827 C139.139375,123.537077 145.246426,117.457765 145.257774,110.114424 C145.269122,102.732627 139.242451,96.7283366 131.813686,96.7195105 M150.522246,112.817111 C148.060071,124.962497 137.790237,129.81813 129.801329,128.790516 C119.952943,127.523651 112.928289,119.654841 112.942474,110.098663 C112.956344,100.77228 119.969335,92.6610666 129.17026,91.4657564 C139.300136,90.1497173 148.492866,96.6347166 150.505539,107.318747 L155.928251,107.318747 C155.956305,106.759864 156.007686,106.205709 156.008001,105.651554 C156.013045,96.668445 155.995707,87.6853356 156.019349,78.7022262 C156.028175,75.2931334 155.195367,72.318097 152.438777,70.0132161 C150.792704,68.6372854 149.431273,66.9247009 147.814515,65.5084222 C147.178718,64.9517455 146.198388,64.5006672 145.371253,64.4946781 C136.07324,64.424069 126.774596,64.449917 117.476268,64.4496018 C117.00344,64.4496018 116.530296,64.4612649 116.058098,64.4439278 C114.161741,64.3748949 112.985974,63.3652486 112.961072,61.79798 C112.935854,60.1755481 114.157958,59.0707057 116.13312,59.0558905 C120.282977,59.024999 124.43378,59.0038793 128.583007,59.071021 C129.74522,59.0899341 130.370614,58.7290084 130.862986,57.6607314 C132.026774,55.1351973 133.314444,52.6664025 134.584776,50.1919338 C135.480313,48.4475122 136.990212,47.8738137 138.45598,48.6593393 C139.822139,49.3915929 140.203238,50.926394 139.389028,52.6115544 C138.394827,54.6699341 137.364061,56.7100311 136.257328,58.9430421 L144.967142,58.9430421 C144.730413,55.919462 144.514803,53.0055781 144.271454,50.0935855 C143.689245,43.1348122 143.066687,36.179191 142.513793,29.2178959 C142.163585,24.806722 138.767101,21.5070101 134.311796,21.4767491 C128.270625,21.4354554 122.228824,21.4956622 116.188283,21.4282054 C115.367453,21.4193793 114.220056,21.1590084 113.816891,20.5928752 C113.296465,19.861252 113.070138,18.638833 113.265258,17.7480242 C113.537607,16.5029094 114.726613,16.0792552 115.994109,16.0808313 C121.089938,16.0858748 126.185767,16.0616029 131.281597,16.0924944 C133.114595,16.1038422 134.975648,16.0609725 136.774287,16.3516043 C143.033274,17.3631419 147.434361,22.4845041 147.913809,28.8386875 C148.684519,39.0476834 149.566817,49.2487987 150.457626,59.4486533 C150.514996,60.1068304 150.912802,60.8479101 151.376804,61.338706 C153.216422,63.2848678 155.08504,65.2121164 157.055474,67.0236796 C160.050053,69.7768019 161.305255,73.2946453 161.344342,77.1794035 C161.453408,88.0528809 161.391625,98.9279344 161.379962,109.802357 C161.377756,111.747258 160.333751,112.777394 158.328958,112.80797 C155.760239,112.846742 153.190259,112.817111 150.522246,112.817111" id="Fill-4" fill="#55CA86"></path>
                            <path d="M137.106244,139.638555 C130.178047,139.638555 123.24985,139.641077 116.321653,139.636664 C114.225762,139.635403 112.959843,138.620713 112.953853,136.959825 C112.947549,135.297675 114.211262,134.271953 116.310305,134.271322 C130.219025,134.26754 144.127431,134.26754 158.036151,134.271322 C160.175227,134.271953 161.383776,135.251338 161.384407,136.948162 C161.384722,138.639311 160.160412,139.635403 158.04813,139.636664 C151.067291,139.641077 144.086767,139.638555 137.106244,139.638555" id="Fill-7" fill="#70ADF5"></path>
                            <path d="M15.6696597,80.5571636 C15.3011687,78.0347816 14.9827976,75.76489 14.6344807,73.4990963 C14.3334466,71.5425323 15.1120374,70.1744821 16.7291105,69.8885785 C18.3918905,69.5947945 19.5846789,70.5502231 19.9307893,72.512461 C20.1675188,73.8534024 20.3304869,75.2075829 20.5423141,76.5535678 C20.7449999,77.840922 20.9681749,79.1248087 21.2064804,80.5559027 L23.1485443,80.5559027 C28.6576257,80.5565332 34.166392,80.5473918 39.6754734,80.5618919 C41.8104513,80.5675658 43.0281421,81.5712229 43.0221529,83.2481877 C43.016479,84.9235764 41.7823968,85.9578097 39.6701147,85.9603315 C29.3344008,85.972625 18.9986869,85.9738859 8.66265782,85.9584402 C6.5904085,85.955288 5.32669576,84.8501304 5.36578291,83.1860896 C5.40329397,81.5614511 6.59166938,80.5830116 8.62325546,80.5628375 C10.9111145,80.5398266 13.1999193,80.5571636 15.6696597,80.5571636" id="Fill-9" fill="#70ADF5"></path>
                            <path d="M12.2194938,59.0447002 C11.8522637,56.4996225 11.5439796,54.2666115 11.2041736,52.0380136 C10.8962047,50.0152536 11.7249153,48.6125293 13.4166953,48.3600389 C14.9962575,48.1245704 16.1745459,49.1502928 16.5124606,51.1651723 C16.9370605,53.700163 17.2957796,56.2465016 17.7096621,58.9621128 C18.3337956,58.9901673 18.9443747,59.0402871 19.555269,59.0409176 C26.12191,59.0465915 32.6888662,59.0383958 39.2555072,59.0538415 C39.9313366,59.0557328 40.647514,59.0670807 41.2735389,59.28206 C42.507621,59.7053991 43.0939283,60.6866757 42.992743,61.9797038 C42.8969164,63.2008619 42.2157283,64.0390291 41.0027658,64.3202044 C40.4486109,64.4488137 39.8556841,64.4447159 39.2804095,64.4447159 C29.2463601,64.4513355 19.212626,64.4500746 9.17857667,64.4484985 C8.75838982,64.4484985 8.335366,64.4570094 7.91896177,64.4125635 C6.43869362,64.2543236 5.4381887,63.2538187 5.36757966,61.8889207 C5.2950793,60.4846203 6.30094295,59.3003427 7.81840693,59.1042766 C8.54278006,59.0109718 9.28575111,59.054472 10.0205265,59.0462763 C10.6897363,59.0383958 11.3589461,59.0447002 12.2194938,59.0447002" id="Fill-11" fill="#70ADF5"></path>
                            <path d="M21.4538327,139.638555 C15.4221182,139.638555 9.39008858,139.641077 3.35837413,139.637294 C1.22812452,139.635403 0.0167381258,138.667681 0.000661959777,136.976531 C-0.0150989873,135.272142 1.19092868,134.272583 3.31172172,134.271953 C15.5327601,134.26754 27.7537985,134.265648 39.9748368,134.27479 C41.6937257,134.276051 42.7036872,135.047707 42.9618515,136.46367 C43.1998418,137.769937 42.5107732,139.058552 41.252104,139.46487 C40.7209601,139.636664 40.1192071,139.630675 39.5492913,139.631936 C33.5175768,139.642968 27.4858624,139.638555 21.4538327,139.638555" id="Fill-13" fill="#55CA86"></path>
                            <path d="M69.9812214,139.638555 C65.6264717,139.638555 61.2714068,139.646436 56.9166571,139.634773 C54.9380278,139.629414 53.7906309,138.588876 53.8256202,136.885433 C53.8590334,135.25449 54.9745932,134.276681 56.8955374,134.27479 C65.605352,134.263757 74.3154818,134.263127 83.0252964,134.27542 C84.896436,134.278572 86.0526591,135.330773 86.0573874,136.943118 C86.0618005,138.545061 84.8813055,139.626892 83.0461008,139.632881 C78.6913512,139.648957 74.3362863,139.637925 69.9812214,139.638555" id="Fill-15" fill="#55CA86"></path>
                            <path d="M102.245614,134.279203 C103.187803,134.279203 104.13409,134.225616 105.071867,134.290866 C106.574515,134.396149 107.576912,135.529676 107.554846,136.995444 C107.532466,138.451441 106.49508,139.575196 104.987073,139.620588 C103.10427,139.678588 101.216109,139.685208 99.3339364,139.615229 C97.8930706,139.561011 96.7857065,138.296353 96.8074566,136.911281 C96.828261,135.579481 97.8829836,134.449106 99.2617512,134.284246 C99.3651431,134.271322 99.4707414,134.272583 99.5753941,134.272583 C100.465572,134.271953 101.355751,134.271953 102.245614,134.271953 L102.245614,134.279203 Z" id="Fill-17" fill="#70ADF5"></path>
                            <path d="M40.2793698,112.779979 C41.6824094,112.819696 42.9095567,111.667886 42.9839484,110.241205 C43.0633835,108.722796 41.9226062,107.496594 40.4026205,107.466018 C38.933385,107.436387 37.7664444,108.511284 37.6945745,109.96066 C37.6204981,111.447233 38.80383,112.73837 40.2793698,112.779979 M40.4347728,102.068524 C44.8506749,102.101622 48.4476383,105.721596 48.4309317,110.115748 C48.4142251,114.561281 44.6791958,118.241777 40.2456414,118.18157 C35.8587394,118.121679 32.2431781,114.461041 32.2488521,110.084226 C32.254526,105.626715 35.9230441,102.03448 40.4347728,102.068524" id="Fill-19" fill="#70ADF5"></path>
                            <path d="M134.471518,110.023357 C134.422344,108.542774 133.148229,107.39191 131.641167,107.466301 C130.185171,107.537856 129.121307,108.702275 129.162285,110.17813 C129.202318,111.618996 130.381237,112.782784 131.798146,112.779632 C133.25099,112.77648 134.519431,111.468636 134.471518,110.023357 M131.799092,102.067862 C136.23044,102.071329 139.839066,105.617858 139.893914,110.022727 C139.948762,114.429173 136.223505,118.1828 131.795624,118.181854 C127.325504,118.180908 123.697019,114.504825 123.739574,110.019575 C123.781813,105.568683 127.334015,102.064079 131.799092,102.067862" id="Fill-21" fill="#55CA86"></path>
                        </g>
                    </g>
                </g>
            </g>
        </g>
    </g>
</svg>